<svg id="Layer_1" xmlns="http://www.w3.org/2000/svg" viewBox="0 0 45.1 74.5"><style>.st0{fill:#ccc}</style><path class="st0" d="M44.9 19.4C43.6 10.4 37 2.9 28.1.7 26.2.2 24.3 0 22.5 0c-1.8 0-3.7.2-5.6.7C8 3 1.4 10.5.2 19.5c-.4 3.1-.2 6 .5 8.8.9 3.4 2.8 6.5 5.2 9.1 3.9 4.1 4.7 11.3 5.3 16.4.2 1.3 1.2 2.3 2.5 2.3h6.6l-8 4.2c-1.2.6-1.8 2-1.5 3.3.3 1.3 1.5 2.2 2.8 2.2h4.8l-6 3.2c-1.2.6-1.8 2-1.5 3.3.3 1.3 1.5 2.2 2.8 2.2h16.8c1.6 0 2.9-1.3 2.9-2.9s-1.3-2.9-2.9-2.9h-4.8l6.1-3.1c1.2-.6 1.8-2 1.5-3.3-.3-1.3-1.5-2.2-2.8-2.2h-5.1l7-3.7c.9-.5 1.5-1.5 1.5-2.5v-.1c.6-5.2 1.3-12.4 5.2-16.5 2.4-2.6 4.3-5.7 5.1-9.1.9-2.8 1.1-5.8.7-8.8z"/></svg>