<svg id="Layer_1" data-name="Layer 1" xmlns="http://www.w3.org/2000/svg" viewBox="0 0 283.46 87.58"><defs><style>.cls-1{fill:#036cd6;}</style></defs><title>Asgart-logo</title><path class="cls-1" d="M96.74,66.42c-5-1.88-9.31-3.51-9.31-17.05V43.7s0,0,0,0A43.71,43.71,0,1,0,32.8,86.05a2.63,2.63,0,0,1-.19-.55,2.73,2.73,0,0,1,1.48-3.07l6.24-3H35.38a2.73,2.73,0,0,1-1.19-5.18L40.77,71H35.52a2.73,2.73,0,0,1-2.73-2.7s0-.5,0-.59a16.33,16.33,0,0,0-4.5-11.28l0,0a4.25,4.25,0,0,0-.36-.38h0a21.86,21.86,0,1,1,31.64,0l-.36.38a16.32,16.32,0,0,0-4,7,14.83,14.83,0,0,0-.39,4.93,2.89,2.89,0,0,1-.11,1.22A2.67,2.67,0,0,1,53.4,71l-6.16,3h5a2.73,2.73,0,0,1,1.18,5.2l-6.22,3h5A2.73,2.73,0,0,1,55,84.89,2.67,2.67,0,0,1,54.72,86,43.64,43.64,0,0,0,71,77.83c.73-.59,1.44-1.2,2.13-1.83,3.78,4.74,9,8.29,15.87,10.87a10.93,10.93,0,1,0,7.7-20.45Z"/><path class="cls-1" d="M139.85,41.93l-1.58-7.79h-9l-1.52,7.79h-7q2.4-10,4.85-18.16t4.74-15.54h7.3q2.39,7.4,4.76,15.71t4.6,18Zm-6-27.17q-.55,1.91-1,3.62T132,21.76q-.41,1.66-.76,3.35t-.68,3.48h6.59q-.33-1.8-.65-3.48t-.74-3.35q-.41-1.66-.87-3.38T133.86,14.76Z"/><path class="cls-1" d="M160.21,36.86a15.19,15.19,0,0,0,3.76-.35q1.31-.35,1.31-1.44a1.81,1.81,0,0,0-.41-1.2,3.36,3.36,0,0,0-1.14-.84,15.54,15.54,0,0,0-1.69-.68l-2-.65q-1.47-.44-3-1a12.53,12.53,0,0,1-2.78-1.44,7.28,7.28,0,0,1-2.07-2.2,6.31,6.31,0,0,1-.82-3.35,7.63,7.63,0,0,1,.63-3.08,6.9,6.9,0,0,1,2-2.56,9.55,9.55,0,0,1,3.4-1.74,17.25,17.25,0,0,1,5-.63,26.74,26.74,0,0,1,4.65.38,16,16,0,0,1,3.73,1.09l-1,5.66q-.93-.27-2.89-.9a14.47,14.47,0,0,0-4.41-.63,6.58,6.58,0,0,0-3.46.63,1.71,1.71,0,0,0-.9,1.33,1.55,1.55,0,0,0,.41,1.06,4.08,4.08,0,0,0,1.09.84,12.82,12.82,0,0,0,1.58.73q.9.35,1.93.68,1.47.49,3,1.09a13,13,0,0,1,2.86,1.5,7.25,7.25,0,0,1,2.1,2.29,6.61,6.61,0,0,1,.82,3.4,7.61,7.61,0,0,1-.6,3,5.93,5.93,0,0,1-2,2.45,10.62,10.62,0,0,1-3.62,1.63,21.56,21.56,0,0,1-5.5.6,18.43,18.43,0,0,1-5.66-.76q-2.34-.76-3.76-1.36l1-5.61q1.9.76,4.06,1.42A15,15,0,0,0,160.21,36.86Z"/><path class="cls-1" d="M199.13,38.82q0,6.26-3,9.25t-9.72,3a21.14,21.14,0,0,1-4.6-.49q-2.21-.49-4.22-1.14l1.25-5.66q1.58.6,3.32,1.12a15.57,15.57,0,0,0,4.36.52,8.69,8.69,0,0,0,2.89-.41,4.42,4.42,0,0,0,1.8-1.12,4.07,4.07,0,0,0,.93-1.66,7.42,7.42,0,0,0,.27-2v-1a19.68,19.68,0,0,1-2.59.82,11.14,11.14,0,0,1-2.53.27q-5,0-7.59-3.16t-2.59-8.77q0-6.31,3.48-9.42T190,15.8a34.14,34.14,0,0,1,9.09,1.36ZM183.89,28.32A8.48,8.48,0,0,0,185,33.14a4.05,4.05,0,0,0,3.59,1.66,7.39,7.39,0,0,0,2-.27,7.69,7.69,0,0,0,1.71-.71V21.51a11.67,11.67,0,0,0-1.36-.22q-.6-.05-1.25-.05Q183.89,21.24,183.89,28.32Z"/><path class="cls-1" d="M215.85,15.69a16.06,16.06,0,0,1,5.25.73,8.23,8.23,0,0,1,3.35,2.07,7.77,7.77,0,0,1,1.8,3.27,16,16,0,0,1,.54,4.33V41.33q-1.47.33-4.36.76a43.7,43.7,0,0,1-6.48.44,20.78,20.78,0,0,1-4.44-.44,9.18,9.18,0,0,1-3.4-1.44A6.64,6.64,0,0,1,205.94,38a9.16,9.16,0,0,1-.76-3.95,7.47,7.47,0,0,1,.87-3.76,6.89,6.89,0,0,1,2.34-2.45,10.34,10.34,0,0,1,3.37-1.33,18.92,18.92,0,0,1,4-.41,22.08,22.08,0,0,1,4.63.44v-.82a4.48,4.48,0,0,0-1.2-3.18Q218,21.3,215,21.29a24.17,24.17,0,0,0-3.67.27,16.61,16.61,0,0,0-2.86.65l-.93-5.39a21.28,21.28,0,0,1,3.54-.79A31,31,0,0,1,215.85,15.69Zm.6,21.45q1.09,0,2.12,0a15.65,15.65,0,0,0,1.8-.14V31.09q-.65-.11-1.58-.19t-1.69-.08a14.73,14.73,0,0,0-2,.14,6.39,6.39,0,0,0-1.71.46,2.84,2.84,0,0,0-1.17.93,3,3,0,0,0,.87,4.06A6.84,6.84,0,0,0,216.45,37.14Z"/><path class="cls-1" d="M254.07,23.15q-.65-.16-1.55-.33t-1.82-.3q-.93-.14-1.8-.19t-1.47-.05q-1.42,0-2.78.14a17.4,17.4,0,0,0-2.78.52v19h-6.75V18a40.26,40.26,0,0,1,5.47-1.58,31.73,31.73,0,0,1,6.56-.6q.54,0,1.55.05t2.15.19q1.14.14,2.31.33a12.33,12.33,0,0,1,2.1.52Z"/><path class="cls-1" d="M265.55,21.89h-5.82V16.34h5.82V9.92l6.7-1.09v7.51H283v5.55H272.25V32.24a7.84,7.84,0,0,0,.27,2.29,3.26,3.26,0,0,0,.76,1.36,2.43,2.43,0,0,0,1.2.65,7,7,0,0,0,1.58.16q.92,0,1.72-.05a13.26,13.26,0,0,0,1.52-.19,10.52,10.52,0,0,0,1.52-.41,17.26,17.26,0,0,0,1.72-.71l.93,5.77a17.26,17.26,0,0,1-4,1.09,27.72,27.72,0,0,1-4.16.33,20.12,20.12,0,0,1-4.14-.38,6.65,6.65,0,0,1-3-1.47,6.76,6.76,0,0,1-1.91-3.08,17.05,17.05,0,0,1-.65-5.2Z"/><path class="cls-1" d="M121.81,65.93a1.21,1.21,0,0,1,.92.34,1.17,1.17,0,0,1,.32.84,1.12,1.12,0,0,1-.32.82,1.43,1.43,0,0,1-1.81,0,1.11,1.11,0,0,1-.33-.83,1.16,1.16,0,0,1,.32-.84A1.2,1.2,0,0,1,121.81,65.93Zm0,7.4a1.21,1.21,0,0,1,.92.34,1.17,1.17,0,0,1,.32.84,1.12,1.12,0,0,1-.32.82,1.43,1.43,0,0,1-1.81,0,1.11,1.11,0,0,1-.33-.83,1.16,1.16,0,0,1,.32-.84A1.2,1.2,0,0,1,121.81,73.34Z"/><path class="cls-1" d="M126.95,65.93a1.21,1.21,0,0,1,.92.34,1.17,1.17,0,0,1,.32.84,1.12,1.12,0,0,1-.32.82,1.43,1.43,0,0,1-1.81,0,1.11,1.11,0,0,1-.33-.83,1.16,1.16,0,0,1,.32-.84A1.2,1.2,0,0,1,126.95,65.93Zm0,7.4a1.21,1.21,0,0,1,.92.34,1.17,1.17,0,0,1,.32.84,1.12,1.12,0,0,1-.32.82,1.43,1.43,0,0,1-1.81,0,1.11,1.11,0,0,1-.33-.83,1.16,1.16,0,0,1,.32-.84A1.2,1.2,0,0,1,126.95,73.34Z"/><path class="cls-1" d="M130.42,70.78a5.61,5.61,0,0,1,1-3.5A3.24,3.24,0,0,1,134.14,66a3.08,3.08,0,0,1,2.42,1V62.18h2.12V75.57h-1.92l-.1-1a3.12,3.12,0,0,1-2.54,1.15,3.22,3.22,0,0,1-2.68-1.33A5.81,5.81,0,0,1,130.42,70.78Zm2.12.18a3.92,3.92,0,0,0,.55,2.25,1.79,1.79,0,0,0,1.57.81,2,2,0,0,0,1.9-1.16v-4a2,2,0,0,0-1.88-1.13,1.81,1.81,0,0,0-1.59.82A4.38,4.38,0,0,0,132.54,71Z"/><path class="cls-1" d="M141.31,63.68a1.12,1.12,0,0,1,.31-.81,1.17,1.17,0,0,1,.88-.32,1.18,1.18,0,0,1,.89.32,1.12,1.12,0,0,1,.31.81,1.09,1.09,0,0,1-.31.8,1.19,1.19,0,0,1-.89.32,1.18,1.18,0,0,1-.88-.32A1.1,1.1,0,0,1,141.31,63.68Zm2.25,11.88h-2.12V66.13h2.12Z"/><path class="cls-1" d="M145.91,70.78a5.52,5.52,0,0,1,1-3.51A3.32,3.32,0,0,1,149.68,66a3.11,3.11,0,0,1,2.54,1.12l.1-1h1.91v9.15a3.8,3.8,0,0,1-1.15,2.93A4.4,4.4,0,0,1,150,79.28a5,5,0,0,1-2-.43,3.6,3.6,0,0,1-1.5-1.13l1-1.27a3,3,0,0,0,2.41,1.16A2.34,2.34,0,0,0,151.5,77a2.19,2.19,0,0,0,.61-1.68v-.64a3.12,3.12,0,0,1-2.44,1A3.31,3.31,0,0,1,147,74.43,5.7,5.7,0,0,1,145.91,70.78ZM148,71a3.8,3.8,0,0,0,.58,2.24,1.86,1.86,0,0,0,1.61.82,2,2,0,0,0,1.9-1.1V68.77a2,2,0,0,0-1.88-1.07,1.87,1.87,0,0,0-1.63.83A4.25,4.25,0,0,0,148,71Z"/><path class="cls-1" d="M156.82,63.68a1.13,1.13,0,0,1,.31-.81,1.17,1.17,0,0,1,.89-.32,1.18,1.18,0,0,1,.89.32,1.12,1.12,0,0,1,.31.81,1.09,1.09,0,0,1-.31.8,1.19,1.19,0,0,1-.89.32,1.18,1.18,0,0,1-.89-.32A1.1,1.1,0,0,1,156.82,63.68Zm2.25,11.88h-2.12V66.13h2.12Z"/><path class="cls-1" d="M164.44,63.84v2.29h1.67V67.7h-1.67V73a1.16,1.16,0,0,0,.21.78,1,1,0,0,0,.76.24,3.27,3.27,0,0,0,.74-.09v1.64a5.22,5.22,0,0,1-1.4.2q-2.44,0-2.44-2.69V67.7h-1.55V66.13h1.55V63.84Z"/><path class="cls-1" d="M173.77,75.57a3.27,3.27,0,0,1-.24-.88,3.56,3.56,0,0,1-4.8.24,2.59,2.59,0,0,1-.9-2A2.68,2.68,0,0,1,169,70.61a5.43,5.43,0,0,1,3.2-.81h1.3v-.62A1.65,1.65,0,0,0,173,68a1.63,1.63,0,0,0-1.25-.44,1.87,1.87,0,0,0-1.19.36,1.12,1.12,0,0,0-.46.92H168a2.35,2.35,0,0,1,.51-1.45,3.43,3.43,0,0,1,1.4-1.06,4.91,4.91,0,0,1,2-.38,4,4,0,0,1,2.64.83,3,3,0,0,1,1,2.34v4.25a4.82,4.82,0,0,0,.36,2v.15ZM171.44,74a2.41,2.41,0,0,0,1.18-.31,2,2,0,0,0,.83-.82V71.14h-1.14a3.12,3.12,0,0,0-1.77.41,1.33,1.33,0,0,0-.59,1.16,1.24,1.24,0,0,0,.41,1A1.57,1.57,0,0,0,171.44,74Z"/><path class="cls-1" d="M180.46,75.57h-2.12V62.18h2.12Z"/><path class="cls-1" d="M188,63.68a1.13,1.13,0,0,1,.31-.81,1.17,1.17,0,0,1,.89-.32,1.18,1.18,0,0,1,.89.32,1.12,1.12,0,0,1,.31.81,1.09,1.09,0,0,1-.31.8,1.19,1.19,0,0,1-.89.32,1.18,1.18,0,0,1-.89-.32A1.1,1.1,0,0,1,188,63.68Zm2.25,11.88h-2.12V66.13h2.12Z"/><path class="cls-1" d="M195,66.13l.06,1.09A3.39,3.39,0,0,1,197.77,66q2.95,0,3,3.37v6.23h-2.12V69.46a1.94,1.94,0,0,0-.39-1.33,1.63,1.63,0,0,0-1.27-.43,2,2,0,0,0-1.91,1.16v6.71H193V66.13Z"/><path class="cls-1" d="M205.31,66.13l.06,1.09A3.39,3.39,0,0,1,208.12,66q2.95,0,3,3.37v6.23H209V69.46a1.94,1.94,0,0,0-.39-1.33,1.63,1.63,0,0,0-1.27-.43,2,2,0,0,0-1.91,1.16v6.71h-2.12V66.13Z"/><path class="cls-1" d="M213.29,70.76a5.56,5.56,0,0,1,.55-2.5,4,4,0,0,1,1.54-1.71,4.35,4.35,0,0,1,2.28-.6,4.12,4.12,0,0,1,3.1,1.23A4.84,4.84,0,0,1,222,70.45v.5a5.6,5.6,0,0,1-.54,2.49,4,4,0,0,1-1.53,1.7,4.38,4.38,0,0,1-2.31.6,4.09,4.09,0,0,1-3.2-1.33,5.09,5.09,0,0,1-1.2-3.54Zm2.12.18a3.8,3.8,0,0,0,.6,2.28,2,2,0,0,0,1.67.82,1.93,1.93,0,0,0,1.67-.84,4.2,4.2,0,0,0,.6-2.45,3.75,3.75,0,0,0-.61-2.27,2.07,2.07,0,0,0-3.32,0A4.12,4.12,0,0,0,215.41,70.95Z"/><path class="cls-1" d="M227.46,72.88l2-6.75h2.19l-3.27,9.43h-1.84l-3.3-9.43h2.2Z"/><path class="cls-1" d="M238.88,75.57a3.25,3.25,0,0,1-.24-.88,3.56,3.56,0,0,1-4.8.24,2.59,2.59,0,0,1-.9-2,2.68,2.68,0,0,1,1.12-2.31,5.43,5.43,0,0,1,3.2-.81h1.3v-.62a1.65,1.65,0,0,0-.41-1.17,1.63,1.63,0,0,0-1.25-.44,1.87,1.87,0,0,0-1.19.36,1.12,1.12,0,0,0-.46.92h-2.12a2.35,2.35,0,0,1,.51-1.45,3.43,3.43,0,0,1,1.4-1.06,4.91,4.91,0,0,1,2-.38,4,4,0,0,1,2.64.83,3,3,0,0,1,1,2.34v4.25a4.82,4.82,0,0,0,.36,2v.15ZM236.55,74a2.41,2.41,0,0,0,1.18-.31,2,2,0,0,0,.83-.82V71.14h-1.14a3.12,3.12,0,0,0-1.77.41,1.33,1.33,0,0,0-.59,1.16,1.24,1.24,0,0,0,.41,1A1.57,1.57,0,0,0,236.55,74Z"/><path class="cls-1" d="M246,63.84v2.29h1.67V67.7H246V73a1.16,1.16,0,0,0,.21.78,1,1,0,0,0,.76.24,3.27,3.27,0,0,0,.74-.09v1.64a5.22,5.22,0,0,1-1.4.2q-2.44,0-2.44-2.69V67.7H242.3V66.13h1.55V63.84Z"/><path class="cls-1" d="M249.67,63.68a1.13,1.13,0,0,1,.31-.81,1.17,1.17,0,0,1,.89-.32,1.18,1.18,0,0,1,.89.32,1.12,1.12,0,0,1,.31.81,1.09,1.09,0,0,1-.31.8,1.19,1.19,0,0,1-.89.32,1.18,1.18,0,0,1-.89-.32A1.1,1.1,0,0,1,249.67,63.68Zm2.25,11.88H249.8V66.13h2.12Z"/><path class="cls-1" d="M254.24,70.76a5.57,5.57,0,0,1,.55-2.5,4,4,0,0,1,1.54-1.71,4.35,4.35,0,0,1,2.28-.6,4.12,4.12,0,0,1,3.1,1.23A4.83,4.83,0,0,1,263,70.45v.5a5.61,5.61,0,0,1-.54,2.49,4,4,0,0,1-1.53,1.7,4.38,4.38,0,0,1-2.31.6,4.09,4.09,0,0,1-3.2-1.33,5.09,5.09,0,0,1-1.2-3.54Zm2.12.18a3.8,3.8,0,0,0,.6,2.28,2,2,0,0,0,1.67.82,1.93,1.93,0,0,0,1.67-.84,4.2,4.2,0,0,0,.6-2.45,3.75,3.75,0,0,0-.61-2.27,2.07,2.07,0,0,0-3.32,0A4.12,4.12,0,0,0,256.35,70.95Z"/><path class="cls-1" d="M267.17,66.13l.06,1.09A3.39,3.39,0,0,1,270,66q2.95,0,3,3.37v6.23h-2.12V69.46a1.94,1.94,0,0,0-.39-1.33,1.63,1.63,0,0,0-1.27-.43,2,2,0,0,0-1.91,1.16v6.71h-2.12V66.13Z"/><path class="cls-1" d="M280.84,73a1,1,0,0,0-.47-.86,5,5,0,0,0-1.55-.52A8,8,0,0,1,277,71a2.41,2.41,0,0,1-1.59-2.22,2.51,2.51,0,0,1,1-2,4.07,4.07,0,0,1,2.62-.82,4.23,4.23,0,0,1,2.73.84,2.66,2.66,0,0,1,1,2.17h-2.12a1.31,1.31,0,0,0-.45-1,1.74,1.74,0,0,0-1.2-.41,1.88,1.88,0,0,0-1.14.32,1,1,0,0,0-.44.86.86.86,0,0,0,.41.76,5.64,5.64,0,0,0,1.66.55,7.84,7.84,0,0,1,2,.65,2.77,2.77,0,0,1,1.05.91,2.33,2.33,0,0,1,.34,1.29A2.46,2.46,0,0,1,281.87,75a4.5,4.5,0,0,1-2.76.79,4.88,4.88,0,0,1-2.07-.42,3.4,3.4,0,0,1-1.41-1.15,2.72,2.72,0,0,1-.51-1.58h2.06a1.49,1.49,0,0,0,.57,1.16,2.2,2.2,0,0,0,1.39.41,2.14,2.14,0,0,0,1.27-.32A1,1,0,0,0,280.84,73Z"/></svg>