<svg version="1.1" id="Layer_1" xmlns="http://www.w3.org/2000/svg" xmlns:xlink="http://www.w3.org/1999/xlink" x="0px" y="0px"
	 viewBox="0 0 45.1 74.5" style="enable-background:new 0 0 45.1 74.5;" xml:space="preserve">
<style type="text/css">
	.st0{fill:#CCCCCC;}
</style>
<path class="st0" d="M44.9,19.4c-1.3-9-7.9-16.5-16.8-18.7C26.2,0.2,24.3,0,22.5,0c-1.8,0-3.7,0.2-5.6,0.7C8,3,1.4,10.5,0.2,19.5
	c-0.4,3.1-0.2,6,0.5,8.8c0.9,3.4,2.8,6.5,5.2,9.1c3.9,4.1,4.7,11.3,5.3,16.4c0.2,1.3,1.2,2.3,2.5,2.3l6.6,0l-8,4.2
	c-1.2,0.6-1.8,2-1.5,3.3c0.3,1.3,1.5,2.2,2.8,2.2h4.8L12.4,69c-1.2,0.6-1.8,2-1.5,3.3c0.3,1.3,1.5,2.2,2.8,2.2h16.8
	c1.6,0,2.9-1.3,2.9-2.9s-1.3-2.9-2.9-2.9h-4.8l6.1-3.1c1.2-0.6,1.8-2,1.5-3.3c-0.3-1.3-1.5-2.2-2.8-2.2h-5.1l7-3.7
	c0.9-0.5,1.5-1.5,1.5-2.5c0,0,0,0,0-0.1c0.6-5.2,1.3-12.4,5.2-16.5c2.4-2.6,4.3-5.7,5.1-9.1C45.1,25.4,45.3,22.4,44.9,19.4z"/>
</svg>
