<?xml version="1.0" encoding="utf-8"?>
<!-- Generator: Adobe Illustrator 21.0.0, SVG Export Plug-In . SVG Version: 6.00 Build 0)  -->
<svg version="1.1" id="Layer_1" xmlns="http://www.w3.org/2000/svg" xmlns:xlink="http://www.w3.org/1999/xlink" x="0px" y="0px"
	 viewBox="0 0 405 272.3" style="enable-background:new 0 0 405 272.3;" xml:space="preserve">
<style type="text/css">
	.st0{opacity:0.4;fill:none;stroke:#C1C1C1;stroke-miterlimit:10;}
	.st1{fill:none;stroke:#000000;stroke-width:2;stroke-linecap:round;stroke-linejoin:round;stroke-miterlimit:10;}
	.st2{fill:none;stroke:#000000;stroke-width:3;stroke-linecap:round;stroke-linejoin:round;stroke-miterlimit:10;}
	.st3{fill:none;stroke:#000000;stroke-width:2;stroke-linecap:round;stroke-linejoin:round;}
	.st4{fill:none;stroke:#000000;stroke-width:2;stroke-linecap:round;stroke-linejoin:round;stroke-dasharray:8,8;}
	.st5{fill:none;stroke:#000000;stroke-width:3;stroke-miterlimit:10;}
	.st6{fill:none;stroke:#000000;stroke-width:2;stroke-linecap:round;stroke-miterlimit:10;}
	.st7{fill:none;stroke:#FFFFFF;stroke-width:3;stroke-miterlimit:10;}
	.st8{fill:#FFFFFF;stroke:#000000;stroke-width:3;stroke-miterlimit:10;}
	.st9{fill:none;stroke:#000000;stroke-width:2;stroke-miterlimit:10;}
	.st10{fill:#FFFFFF;}
	.st11{fill:#FFFFFF;stroke:#000000;stroke-width:2;stroke-linecap:round;stroke-linejoin:round;stroke-miterlimit:10;}
	.st12{fill:none;}
</style>
<rect x="1937.5" y="155.2" class="st0" width="163" height="137"/>
<g>
	<line class="st1" x1="200.8" y1="26.7" x2="200.8" y2="19.7"/>
	<line class="st1" x1="181.9" y1="27.5" x2="186.9" y2="32.4"/>
	<line class="st1" x1="174.1" y1="46.3" x2="181.1" y2="46.3"/>
	<line class="st1" x1="181.9" y1="65.2" x2="186.9" y2="60.2"/>
	<line class="st1" x1="219.6" y1="65.2" x2="214.7" y2="60.2"/>
	<line class="st1" x1="227.4" y1="46.3" x2="220.4" y2="46.3"/>
	<line class="st1" x1="219.6" y1="27.5" x2="214.7" y2="32.4"/>
	<path class="st2" d="M206.4,77.3h-11.7l11.7-6h-11.7l12.6-7.2l0,0c0.3-2.9,0.8-7,2.9-9.4c1.4-1.5,2.4-3.2,2.9-5.2
		c0.4-1.6,0.5-3.2,0.3-5c-0.7-5.1-4.5-9.4-9.5-10.6c-1.1-0.3-2.2-0.4-3.2-0.4c-1,0-2.1,0.1-3.2,0.4c-5,1.3-8.8,5.6-9.5,10.7
		c-0.2,1.7-0.1,3.4,0.3,5c0.5,1.9,1.6,3.7,3,5.2c2.2,2.3,2.7,6,3,8.9"/>
</g>
<g>
	<path d="M190.7,94.2v-1.2h1.6v-5h-1.6v-1.2h4.7V88h-1.6v5h1.6v1.2H190.7z"/>
	<path d="M201.2,94c-0.3,0.1-0.6,0.2-1,0.2c-0.4,0.1-0.8,0.1-1.2,0.1c-0.9,0-1.5-0.3-2-0.8c-0.5-0.5-0.7-1.2-0.7-2.1
		c0-0.9,0.2-1.6,0.6-2.2s0.9-0.8,1.7-0.8c0.2,0,0.4,0,0.6,0.1c0.2,0,0.4,0.1,0.5,0.2v-2.6l1.5-0.3V94z M197.9,91.3
		c0,0.5,0.1,0.9,0.3,1.2c0.2,0.3,0.5,0.5,0.9,0.5c0.1,0,0.2,0,0.3,0c0.1,0,0.2,0,0.3,0v-3.1c-0.1-0.1-0.2-0.1-0.4-0.2
		c-0.1,0-0.3-0.1-0.5-0.1c-0.4,0-0.6,0.1-0.8,0.4C197.9,90.4,197.9,90.8,197.9,91.3z"/>
	<path d="M202.4,91.4c0-0.5,0.1-0.9,0.2-1.3c0.2-0.4,0.4-0.7,0.6-0.9c0.2-0.3,0.5-0.4,0.9-0.6c0.3-0.1,0.6-0.2,1-0.2
		c0.8,0,1.5,0.2,1.9,0.7c0.4,0.5,0.6,1.2,0.6,2.2c0,0.1,0,0.2,0,0.3c0,0.1,0,0.2,0,0.3h-3.7c0,0.4,0.2,0.7,0.5,0.9
		c0.3,0.2,0.7,0.3,1.2,0.3c0.3,0,0.6,0,0.8-0.1c0.3-0.1,0.5-0.1,0.7-0.2l0.2,1.3c-0.3,0.1-0.5,0.2-0.8,0.2c-0.3,0.1-0.6,0.1-1,0.1
		c-0.5,0-0.9-0.1-1.3-0.2s-0.7-0.3-1-0.6c-0.3-0.2-0.5-0.5-0.6-0.9C202.5,92.3,202.4,91.9,202.4,91.4z M206.2,90.8
		c0-0.2,0-0.3-0.1-0.4s-0.1-0.3-0.2-0.4c-0.1-0.1-0.2-0.2-0.3-0.3c-0.1-0.1-0.3-0.1-0.5-0.1c-0.2,0-0.4,0-0.5,0.1
		c-0.1,0.1-0.3,0.2-0.3,0.3c-0.1,0.1-0.2,0.2-0.2,0.4c-0.1,0.1-0.1,0.3-0.1,0.4H206.2z"/>
	<path d="M210.9,88.4c0.5,0,0.8,0.1,1.2,0.2c0.3,0.1,0.6,0.3,0.7,0.5c0.2,0.2,0.3,0.4,0.4,0.7c0.1,0.3,0.1,0.6,0.1,1V94
		c-0.2,0-0.5,0.1-1,0.2c-0.4,0.1-0.9,0.1-1.4,0.1c-0.4,0-0.7,0-1-0.1c-0.3-0.1-0.5-0.2-0.8-0.3c-0.2-0.1-0.4-0.3-0.5-0.6
		c-0.1-0.2-0.2-0.5-0.2-0.9c0-0.3,0.1-0.6,0.2-0.8c0.1-0.2,0.3-0.4,0.5-0.5c0.2-0.1,0.5-0.2,0.7-0.3c0.3-0.1,0.6-0.1,0.9-0.1
		c0.4,0,0.7,0,1,0.1v-0.2c0-0.3-0.1-0.5-0.3-0.7c-0.2-0.2-0.5-0.3-0.9-0.3c-0.3,0-0.6,0-0.8,0.1s-0.5,0.1-0.6,0.1l-0.2-1.2
		c0.2-0.1,0.4-0.1,0.8-0.2S210.5,88.4,210.9,88.4z M211,93.1c0.2,0,0.3,0,0.5,0c0.2,0,0.3,0,0.4,0v-1.3c-0.1,0-0.2,0-0.3,0
		c-0.1,0-0.3,0-0.4,0c-0.2,0-0.3,0-0.4,0c-0.1,0-0.3,0.1-0.4,0.1c-0.1,0-0.2,0.1-0.3,0.2c-0.1,0.1-0.1,0.2-0.1,0.3
		c0,0.3,0.1,0.4,0.3,0.5C210.5,93.1,210.7,93.1,211,93.1z"/>
</g>
<g>
	<g>
		<path d="M306.6,137.6l-0.3-1.4h-1.6l-0.3,1.4h-1.3c0.3-1.2,0.6-2.3,0.9-3.3c0.3-1,0.6-2,0.9-2.9h1.3c0.3,0.9,0.6,1.9,0.9,2.9
			s0.6,2.1,0.8,3.3H306.6z M305.5,132.6c-0.1,0.2-0.1,0.5-0.2,0.7s-0.1,0.4-0.2,0.6c0,0.2-0.1,0.4-0.1,0.6s-0.1,0.4-0.1,0.6h1.2
			c0-0.2-0.1-0.4-0.1-0.6s-0.1-0.4-0.1-0.6s-0.1-0.4-0.2-0.6S305.6,132.9,305.5,132.6z"/>
		<path d="M308.6,133.1c0.2-0.1,0.5-0.1,0.8-0.2c0.3-0.1,0.7-0.1,1.1-0.1c0.4,0,0.7,0.1,0.9,0.2c0.2,0.1,0.4,0.3,0.6,0.4
			c0.1,0.2,0.2,0.4,0.3,0.7c0.1,0.3,0.1,0.6,0.1,0.9v2.7h-1.2v-2.5c0-0.4,0-0.8-0.1-1c-0.1-0.2-0.3-0.3-0.6-0.3c-0.1,0-0.2,0-0.3,0
			c-0.1,0-0.2,0-0.3,0v3.7h-1.2V133.1z"/>
		<path d="M315.4,132.8c0.4,0,0.7,0,1,0.1c0.3,0.1,0.5,0.2,0.6,0.4c0.2,0.2,0.3,0.4,0.3,0.6c0.1,0.2,0.1,0.5,0.1,0.8v2.8
			c-0.2,0-0.4,0.1-0.8,0.1c-0.4,0.1-0.8,0.1-1.2,0.1c-0.3,0-0.6,0-0.8-0.1c-0.2-0.1-0.5-0.1-0.6-0.3c-0.2-0.1-0.3-0.3-0.4-0.5
			c-0.1-0.2-0.1-0.4-0.1-0.7c0-0.3,0.1-0.5,0.2-0.7c0.1-0.2,0.3-0.3,0.4-0.5c0.2-0.1,0.4-0.2,0.6-0.2c0.2,0,0.5-0.1,0.7-0.1
			c0.3,0,0.6,0,0.9,0.1v-0.1c0-0.2-0.1-0.4-0.2-0.6c-0.1-0.2-0.4-0.2-0.8-0.2c-0.2,0-0.5,0-0.7,0s-0.4,0.1-0.5,0.1l-0.2-1
			c0.2-0.1,0.4-0.1,0.7-0.1C314.8,132.8,315.1,132.8,315.4,132.8z M315.5,136.7c0.1,0,0.3,0,0.4,0c0.1,0,0.2,0,0.3,0v-1.1
			c-0.1,0-0.2,0-0.3,0c-0.1,0-0.2,0-0.3,0c-0.1,0-0.3,0-0.4,0s-0.2,0-0.3,0.1s-0.2,0.1-0.2,0.2c-0.1,0.1-0.1,0.2-0.1,0.3
			c0,0.2,0.1,0.4,0.2,0.5C315.1,136.7,315.3,136.7,315.5,136.7z"/>
		<path d="M322.7,137.4c0,0-0.1,0-0.1,0.1s-0.2,0.1-0.3,0.1c-0.1,0-0.3,0.1-0.4,0.1c-0.2,0-0.3,0-0.6,0c-0.6,0-1-0.2-1.2-0.5
			c-0.3-0.3-0.4-0.8-0.4-1.5v-4h-1.3v-1h2.5v5.1c0,0.3,0.1,0.5,0.2,0.7s0.3,0.2,0.5,0.2c0.2,0,0.5,0,0.6-0.1
			c0.2-0.1,0.3-0.1,0.3-0.1L322.7,137.4z"/>
		<path d="M327.7,132.9c-0.1,0.4-0.2,0.9-0.4,1.3c-0.1,0.4-0.2,0.8-0.4,1.2c-0.1,0.4-0.3,0.8-0.4,1.2c-0.1,0.4-0.3,0.8-0.5,1.1
			c-0.1,0.3-0.3,0.5-0.4,0.7c-0.1,0.2-0.3,0.4-0.4,0.5c-0.2,0.1-0.3,0.2-0.5,0.3c-0.2,0.1-0.4,0.1-0.6,0.1c-0.2,0-0.4,0-0.6,0
			s-0.3-0.1-0.4-0.1l0.2-1c0.1,0.1,0.3,0.1,0.4,0.1s0.2,0,0.3,0c0.2,0,0.4-0.1,0.6-0.2c0.1-0.2,0.3-0.3,0.3-0.6
			c-0.3-0.6-0.6-1.3-0.9-2c-0.3-0.8-0.6-1.6-0.8-2.5h1.3c0.1,0.2,0.1,0.5,0.2,0.8c0.1,0.3,0.2,0.6,0.2,0.8c0.1,0.3,0.2,0.6,0.3,0.8
			c0.1,0.3,0.2,0.5,0.3,0.8c0.1-0.2,0.1-0.5,0.2-0.8c0.1-0.3,0.1-0.5,0.2-0.8c0.1-0.3,0.1-0.6,0.2-0.8c0.1-0.3,0.1-0.5,0.2-0.8
			H327.7z"/>
		<path d="M330.3,136.7c0.3,0,0.5,0,0.7-0.1c0.2,0,0.2-0.1,0.2-0.3c0-0.1,0-0.2-0.1-0.2c0-0.1-0.1-0.1-0.2-0.2
			c-0.1,0-0.2-0.1-0.3-0.1c-0.1,0-0.2-0.1-0.4-0.1c-0.2-0.1-0.4-0.1-0.5-0.2c-0.2-0.1-0.4-0.2-0.5-0.3c-0.2-0.1-0.3-0.2-0.4-0.4
			c-0.1-0.2-0.1-0.4-0.1-0.6c0-0.2,0-0.4,0.1-0.6c0.1-0.2,0.2-0.3,0.4-0.5s0.4-0.2,0.6-0.3c0.3-0.1,0.6-0.1,0.9-0.1
			c0.3,0,0.6,0,0.9,0.1c0.3,0,0.5,0.1,0.7,0.2l-0.2,1c-0.1,0-0.3-0.1-0.5-0.2c-0.2-0.1-0.5-0.1-0.8-0.1c-0.3,0-0.5,0-0.6,0.1
			c-0.1,0.1-0.2,0.2-0.2,0.2c0,0.1,0,0.1,0.1,0.2s0.1,0.1,0.2,0.2c0.1,0,0.2,0.1,0.3,0.1c0.1,0,0.2,0.1,0.4,0.1
			c0.2,0.1,0.4,0.1,0.6,0.2s0.4,0.2,0.5,0.3c0.2,0.1,0.3,0.3,0.4,0.4c0.1,0.2,0.2,0.4,0.2,0.6c0,0.2,0,0.4-0.1,0.5
			c-0.1,0.2-0.2,0.3-0.4,0.5s-0.4,0.2-0.7,0.3s-0.6,0.1-1,0.1c-0.4,0-0.8,0-1-0.1c-0.3-0.1-0.5-0.2-0.7-0.3l0.2-1
			c0.2,0.1,0.5,0.2,0.7,0.3C329.8,136.6,330,136.7,330.3,136.7z"/>
		<path d="M337.7,137.4c-0.3,0.1-0.5,0.2-0.7,0.2s-0.4,0.1-0.6,0.1c-0.3,0-0.6,0-0.8-0.1c-0.2-0.1-0.4-0.2-0.5-0.4s-0.2-0.4-0.3-0.6
			c-0.1-0.3-0.1-0.5-0.1-0.9v-1.7h-1.3v-1h2.5v2.9c0,0.3,0.1,0.5,0.2,0.6s0.3,0.2,0.5,0.2c0.1,0,0.3,0,0.4,0s0.3-0.1,0.5-0.2
			L337.7,137.4z M335.9,131.6c0,0.2-0.1,0.4-0.2,0.6c-0.2,0.1-0.3,0.2-0.6,0.2c-0.2,0-0.4-0.1-0.5-0.2c-0.1-0.1-0.2-0.3-0.2-0.6
			c0-0.2,0.1-0.4,0.2-0.6c0.2-0.1,0.3-0.2,0.5-0.2c0.2,0,0.4,0.1,0.6,0.2S335.9,131.3,335.9,131.6z"/>
		<path d="M340.3,136.7c0.3,0,0.5,0,0.7-0.1c0.2,0,0.2-0.1,0.2-0.3c0-0.1,0-0.2-0.1-0.2c0-0.1-0.1-0.1-0.2-0.2
			c-0.1,0-0.2-0.1-0.3-0.1c-0.1,0-0.2-0.1-0.4-0.1c-0.2-0.1-0.4-0.1-0.5-0.2c-0.2-0.1-0.4-0.2-0.5-0.3c-0.2-0.1-0.3-0.2-0.4-0.4
			c-0.1-0.2-0.1-0.4-0.1-0.6c0-0.2,0-0.4,0.1-0.6c0.1-0.2,0.2-0.3,0.4-0.5s0.4-0.2,0.6-0.3c0.3-0.1,0.6-0.1,0.9-0.1
			c0.3,0,0.6,0,0.9,0.1c0.3,0,0.5,0.1,0.7,0.2l-0.2,1c-0.1,0-0.3-0.1-0.5-0.2c-0.2-0.1-0.5-0.1-0.8-0.1c-0.3,0-0.5,0-0.6,0.1
			c-0.1,0.1-0.2,0.2-0.2,0.2c0,0.1,0,0.1,0.1,0.2s0.1,0.1,0.2,0.2c0.1,0,0.2,0.1,0.3,0.1c0.1,0,0.2,0.1,0.4,0.1
			c0.2,0.1,0.4,0.1,0.6,0.2s0.4,0.2,0.5,0.3c0.2,0.1,0.3,0.3,0.4,0.4c0.1,0.2,0.2,0.4,0.2,0.6c0,0.2,0,0.4-0.1,0.5
			c-0.1,0.2-0.2,0.3-0.4,0.5s-0.4,0.2-0.7,0.3s-0.6,0.1-1,0.1c-0.4,0-0.8,0-1-0.1c-0.3-0.1-0.5-0.2-0.7-0.3l0.2-1
			c0.2,0.1,0.5,0.2,0.7,0.3C339.8,136.6,340,136.7,340.3,136.7z"/>
	</g>
</g>
<g>
	<g>
		<path d="M259.8,31.4c0.4,0,0.7,0,1,0.1c0.3,0.1,0.5,0.2,0.7,0.4c0.2,0.2,0.4,0.4,0.5,0.6c0.1,0.3,0.2,0.6,0.2,0.9
			c0,0.4-0.1,0.7-0.2,1s-0.4,0.5-0.7,0.7c0.1,0.2,0.2,0.4,0.4,0.6c0.1,0.2,0.3,0.4,0.4,0.7c0.1,0.2,0.2,0.5,0.3,0.7
			c0.1,0.2,0.2,0.4,0.3,0.7h-1.3c-0.2-0.4-0.3-0.8-0.5-1.2c-0.2-0.4-0.4-0.7-0.7-1.1h-0.6v2.3h-1.2v-6.1c0.1,0,0.3-0.1,0.4-0.1
			c0.1,0,0.3,0,0.4,0c0.1,0,0.3,0,0.4,0C259.6,31.4,259.7,31.4,259.8,31.4z M260.9,33.4c0-0.3-0.1-0.6-0.3-0.7
			c-0.2-0.2-0.5-0.2-0.8-0.2c0,0-0.1,0-0.2,0c-0.1,0-0.1,0-0.2,0v1.9h0.3c0.4,0,0.7-0.1,0.9-0.2S260.9,33.7,260.9,33.4z"/>
		<path d="M263,35.4c0-0.4,0.1-0.8,0.2-1.1c0.1-0.3,0.3-0.6,0.5-0.8s0.4-0.4,0.7-0.5s0.5-0.2,0.8-0.2c0.7,0,1.2,0.2,1.6,0.6
			c0.4,0.4,0.5,1,0.5,1.8c0,0.1,0,0.2,0,0.3c0,0.1,0,0.2,0,0.2h-3c0,0.3,0.1,0.5,0.4,0.7s0.6,0.3,1,0.3c0.2,0,0.5,0,0.7-0.1
			c0.2-0.1,0.4-0.1,0.6-0.2l0.2,1c-0.2,0.1-0.4,0.1-0.7,0.2s-0.5,0.1-0.8,0.1c-0.4,0-0.8-0.1-1.1-0.2c-0.3-0.1-0.6-0.3-0.8-0.5
			s-0.4-0.5-0.5-0.8S263,35.8,263,35.4z M266.2,34.9c0-0.1,0-0.2,0-0.4c0-0.1-0.1-0.2-0.2-0.3c-0.1-0.1-0.2-0.2-0.3-0.2
			s-0.3-0.1-0.4-0.1c-0.2,0-0.3,0-0.4,0.1c-0.1,0.1-0.2,0.1-0.3,0.2c-0.1,0.1-0.1,0.2-0.2,0.3c0,0.1-0.1,0.2-0.1,0.4H266.2z"/>
		<path d="M268,35.3c0-0.4,0.1-0.7,0.2-1c0.1-0.3,0.2-0.6,0.4-0.8c0.2-0.2,0.4-0.4,0.7-0.5c0.3-0.1,0.6-0.2,1-0.2c0.2,0,0.3,0,0.5,0
			c0.2,0,0.3,0,0.5,0.1s0.3,0,0.5,0.1c0.1,0,0.3,0.1,0.4,0.1v6.2h-1.2v-1.8c-0.2,0.1-0.3,0.1-0.5,0.2s-0.3,0.1-0.5,0.1
			c-0.3,0-0.6-0.1-0.8-0.2c-0.2-0.1-0.4-0.3-0.6-0.5c-0.2-0.2-0.3-0.5-0.4-0.8S268,35.7,268,35.3z M269.3,35.4c0,0.4,0.1,0.8,0.2,1
			c0.1,0.2,0.4,0.4,0.7,0.4c0.1,0,0.3,0,0.4,0c0.1,0,0.2-0.1,0.3-0.1V34c-0.1,0-0.1,0-0.2,0c-0.1,0-0.2,0-0.3,0
			c-0.3,0-0.6,0.1-0.8,0.4C269.3,34.6,269.3,34.9,269.3,35.4z"/>
		<path d="M277.1,37.5c-0.2,0.1-0.5,0.1-0.8,0.2c-0.3,0.1-0.7,0.1-1.1,0.1c-0.4,0-0.7-0.1-1-0.2c-0.2-0.1-0.4-0.3-0.6-0.5
			s-0.2-0.4-0.3-0.7s-0.1-0.6-0.1-0.9V33h1.2v2.5c0,0.4,0.1,0.8,0.2,1s0.3,0.3,0.6,0.3c0.2,0,0.4,0,0.6,0V33h1.2V37.5z"/>
		<path d="M278,35.4c0-0.4,0.1-0.8,0.2-1.1c0.1-0.3,0.3-0.6,0.5-0.8s0.4-0.4,0.7-0.5s0.5-0.2,0.8-0.2c0.7,0,1.2,0.2,1.6,0.6
			c0.4,0.4,0.5,1,0.5,1.8c0,0.1,0,0.2,0,0.3c0,0.1,0,0.2,0,0.2h-3c0,0.3,0.1,0.5,0.4,0.7s0.6,0.3,1,0.3c0.2,0,0.5,0,0.7-0.1
			c0.2-0.1,0.4-0.1,0.6-0.2l0.2,1c-0.2,0.1-0.4,0.1-0.7,0.2s-0.5,0.1-0.8,0.1c-0.4,0-0.8-0.1-1.1-0.2c-0.3-0.1-0.6-0.3-0.8-0.5
			s-0.4-0.5-0.5-0.8S278,35.8,278,35.4z M281.2,34.9c0-0.1,0-0.2,0-0.4c0-0.1-0.1-0.2-0.2-0.3c-0.1-0.1-0.2-0.2-0.3-0.2
			s-0.3-0.1-0.4-0.1c-0.2,0-0.3,0-0.4,0.1c-0.1,0.1-0.2,0.1-0.3,0.2c-0.1,0.1-0.1,0.2-0.2,0.3c0,0.1-0.1,0.2-0.1,0.4H281.2z"/>
		<path d="M285,36.7c0.3,0,0.5,0,0.7-0.1c0.2,0,0.2-0.1,0.2-0.3c0-0.1,0-0.2-0.1-0.2c0-0.1-0.1-0.1-0.2-0.2c-0.1,0-0.2-0.1-0.3-0.1
			c-0.1,0-0.2-0.1-0.4-0.1c-0.2-0.1-0.4-0.1-0.5-0.2c-0.2-0.1-0.4-0.2-0.5-0.3c-0.2-0.1-0.3-0.2-0.4-0.4c-0.1-0.2-0.1-0.4-0.1-0.6
			c0-0.2,0-0.4,0.1-0.6c0.1-0.2,0.2-0.3,0.4-0.5s0.4-0.2,0.6-0.3c0.3-0.1,0.6-0.1,0.9-0.1c0.3,0,0.6,0,0.9,0.1
			c0.3,0,0.5,0.1,0.7,0.2l-0.2,1c-0.1,0-0.3-0.1-0.5-0.2c-0.2-0.1-0.5-0.1-0.8-0.1c-0.3,0-0.5,0-0.6,0.1c-0.1,0.1-0.2,0.2-0.2,0.2
			c0,0.1,0,0.1,0.1,0.2s0.1,0.1,0.2,0.2c0.1,0,0.2,0.1,0.3,0.1c0.1,0,0.2,0.1,0.4,0.1c0.2,0.1,0.4,0.1,0.6,0.2s0.4,0.2,0.5,0.3
			c0.2,0.1,0.3,0.3,0.4,0.4c0.1,0.2,0.2,0.4,0.2,0.6c0,0.2,0,0.4-0.1,0.5c-0.1,0.2-0.2,0.3-0.4,0.5s-0.4,0.2-0.7,0.3s-0.6,0.1-1,0.1
			c-0.4,0-0.8,0-1-0.1c-0.3-0.1-0.5-0.2-0.7-0.3l0.2-1c0.2,0.1,0.5,0.2,0.7,0.3C284.4,36.7,284.7,36.7,285,36.7z"/>
		<path d="M289.1,34h-1.1v-1h1.1v-1.2l1.2-0.2V33h2v1h-2v1.9c0,0.2,0,0.3,0,0.4c0,0.1,0.1,0.2,0.1,0.3c0.1,0.1,0.1,0.1,0.2,0.1
			c0.1,0,0.2,0,0.3,0c0.1,0,0.2,0,0.3,0s0.2,0,0.3,0s0.2,0,0.3-0.1s0.2-0.1,0.3-0.1l0.2,1.1c-0.2,0.1-0.5,0.2-0.7,0.2
			c-0.3,0-0.5,0.1-0.8,0.1c-0.3,0-0.5,0-0.8-0.1s-0.4-0.1-0.6-0.3c-0.2-0.1-0.3-0.3-0.4-0.6s-0.1-0.6-0.1-1V34z"/>
	</g>
</g>
<g>
	<line class="st1" x1="307.2" y1="51.7" x2="243.2" y2="51.7"/>
	<polyline class="st1" points="302.2,46.7 307.2,51.7 302.2,56.7 	"/>
</g>
<g>
	<line class="st1" x1="358.5" y1="158.7" x2="358.5" y2="113.7"/>
	<polyline class="st1" points="363.5,153.7 358.5,158.7 353.5,153.7 	"/>
</g>
<g>
	<g>
		<path d="M267.2,229.2l-0.3-1.4h-1.6l-0.3,1.4h-1.3c0.3-1.2,0.6-2.3,0.9-3.3c0.3-1,0.6-2,0.9-2.9h1.3c0.3,0.9,0.6,1.9,0.9,2.9
			s0.6,2.1,0.8,3.3H267.2z M266.1,224.2c-0.1,0.2-0.1,0.5-0.2,0.7s-0.1,0.4-0.2,0.6c0,0.2-0.1,0.4-0.1,0.6s-0.1,0.4-0.1,0.6h1.2
			c0-0.2-0.1-0.4-0.1-0.6s-0.1-0.4-0.1-0.6s-0.1-0.4-0.2-0.6S266.2,224.4,266.1,224.2z"/>
		<path d="M273.3,226.8c0,0.4,0,0.7-0.1,1c-0.1,0.3-0.2,0.6-0.4,0.8s-0.3,0.4-0.6,0.5s-0.5,0.2-0.8,0.2c-0.3,0-0.6-0.1-1-0.2v1.8
			h-1.2v-6.2c0.2-0.1,0.5-0.1,0.8-0.2c0.3,0,0.7-0.1,1-0.1c0.7,0,1.3,0.2,1.7,0.7C273.1,225.5,273.3,226.1,273.3,226.8z
			 M272.1,226.9c0-0.4-0.1-0.8-0.3-1c-0.2-0.3-0.4-0.4-0.8-0.4c-0.1,0-0.2,0-0.3,0c-0.1,0-0.2,0-0.3,0v2.6c0.1,0.1,0.2,0.1,0.3,0.1
			c0.1,0,0.3,0,0.4,0c0.3,0,0.5-0.1,0.7-0.4C272,227.6,272.1,227.3,272.1,226.9z"/>
		<path d="M278.3,226.8c0,0.4,0,0.7-0.1,1c-0.1,0.3-0.2,0.6-0.4,0.8s-0.3,0.4-0.6,0.5s-0.5,0.2-0.8,0.2c-0.3,0-0.6-0.1-1-0.2v1.8
			h-1.2v-6.2c0.2-0.1,0.5-0.1,0.8-0.2c0.3,0,0.7-0.1,1-0.1c0.7,0,1.3,0.2,1.7,0.7C278.1,225.5,278.3,226.1,278.3,226.8z
			 M277.1,226.9c0-0.4-0.1-0.8-0.3-1c-0.2-0.3-0.4-0.4-0.8-0.4c-0.1,0-0.2,0-0.3,0c-0.1,0-0.2,0-0.3,0v2.6c0.1,0.1,0.2,0.1,0.3,0.1
			c0.1,0,0.3,0,0.4,0c0.3,0,0.5-0.1,0.7-0.4C277,227.6,277.1,227.3,277.1,226.9z"/>
		<path d="M283,225.7c-0.1,0-0.2,0-0.3-0.1c-0.1,0-0.2,0-0.3-0.1c-0.1,0-0.2,0-0.3,0c-0.1,0-0.2,0-0.3,0c-0.2,0-0.3,0-0.5,0
			c-0.2,0-0.3,0-0.5,0.1v3.5h-1.2v-4.4c0.3-0.1,0.7-0.2,1-0.3c0.3-0.1,0.7-0.1,1.2-0.1c0.1,0,0.2,0,0.3,0c0.1,0,0.3,0,0.4,0
			c0.1,0,0.3,0,0.4,0.1s0.3,0.1,0.4,0.1L283,225.7z"/>
		<path d="M288.4,226.8c0,0.4-0.1,0.7-0.2,1c-0.1,0.3-0.3,0.6-0.4,0.8c-0.2,0.2-0.4,0.4-0.7,0.5c-0.3,0.1-0.6,0.2-0.9,0.2
			c-0.3,0-0.6-0.1-0.9-0.2c-0.3-0.1-0.5-0.3-0.7-0.5c-0.2-0.2-0.3-0.5-0.5-0.8c-0.1-0.3-0.2-0.6-0.2-1c0-0.4,0.1-0.7,0.2-1
			c0.1-0.3,0.3-0.6,0.5-0.8c0.2-0.2,0.4-0.4,0.7-0.5c0.3-0.1,0.6-0.2,0.9-0.2c0.3,0,0.6,0.1,0.9,0.2c0.3,0.1,0.5,0.3,0.7,0.5
			c0.2,0.2,0.3,0.5,0.5,0.8C288.3,226.1,288.4,226.4,288.4,226.8z M285.2,226.8c0,0.4,0.1,0.8,0.2,1c0.2,0.3,0.4,0.4,0.7,0.4
			c0.3,0,0.6-0.1,0.7-0.4s0.2-0.6,0.2-1s-0.1-0.8-0.2-1c-0.2-0.3-0.4-0.4-0.7-0.4c-0.3,0-0.6,0.1-0.7,0.4
			C285.3,226.1,285.2,226.4,285.2,226.8z"/>
		<path d="M290.6,229.2c-0.3-0.6-0.6-1.3-0.9-2.1c-0.3-0.8-0.6-1.7-0.9-2.6h1.3c0.1,0.3,0.1,0.5,0.2,0.8c0.1,0.3,0.2,0.6,0.3,0.9
			c0.1,0.3,0.2,0.6,0.3,0.8s0.2,0.5,0.3,0.8c0.1-0.2,0.2-0.5,0.3-0.8s0.2-0.6,0.3-0.8s0.2-0.6,0.3-0.9c0.1-0.3,0.2-0.6,0.2-0.8h1.3
			c-0.3,0.9-0.6,1.8-0.9,2.6s-0.7,1.5-1,2.1H290.6z"/>
		<path d="M296,224.3c0.4,0,0.7,0,1,0.1c0.3,0.1,0.5,0.2,0.6,0.4c0.2,0.2,0.3,0.4,0.3,0.6c0.1,0.2,0.1,0.5,0.1,0.8v2.8
			c-0.2,0-0.4,0.1-0.8,0.1c-0.4,0.1-0.8,0.1-1.2,0.1c-0.3,0-0.6,0-0.8-0.1c-0.2-0.1-0.5-0.1-0.6-0.3c-0.2-0.1-0.3-0.3-0.4-0.5
			c-0.1-0.2-0.1-0.4-0.1-0.7c0-0.3,0.1-0.5,0.2-0.7c0.1-0.2,0.3-0.3,0.4-0.5c0.2-0.1,0.4-0.2,0.6-0.2c0.2,0,0.5-0.1,0.7-0.1
			c0.3,0,0.6,0,0.9,0.1v-0.1c0-0.2-0.1-0.4-0.2-0.6c-0.1-0.2-0.4-0.2-0.8-0.2c-0.2,0-0.5,0-0.7,0s-0.4,0.1-0.5,0.1l-0.2-1
			c0.2-0.1,0.4-0.1,0.7-0.1C295.4,224.4,295.7,224.3,296,224.3z M296.1,228.3c0.1,0,0.3,0,0.4,0c0.1,0,0.2,0,0.3,0v-1.1
			c-0.1,0-0.2,0-0.3,0c-0.1,0-0.2,0-0.3,0c-0.1,0-0.3,0-0.4,0s-0.2,0-0.3,0.1s-0.2,0.1-0.2,0.2c-0.1,0.1-0.1,0.2-0.1,0.3
			c0,0.2,0.1,0.4,0.2,0.5C295.7,228.2,295.9,228.3,296.1,228.3z"/>
		<path d="M303.3,229c0,0-0.1,0-0.1,0.1s-0.2,0.1-0.3,0.1c-0.1,0-0.3,0.1-0.4,0.1c-0.2,0-0.3,0-0.6,0c-0.6,0-1-0.2-1.2-0.5
			c-0.3-0.3-0.4-0.8-0.4-1.5v-4H299v-1h2.5v5.1c0,0.3,0.1,0.5,0.2,0.7s0.3,0.2,0.5,0.2c0.2,0,0.5,0,0.6-0.1c0.2-0.1,0.3-0.1,0.3-0.1
			L303.3,229z"/>
	</g>
</g>
<line class="st1" x1="252.9" y1="202.2" x2="314.4" y2="202.2"/>
<polyline class="st1" points="256.5,197.2 251.5,202.2 256.5,207.2 "/>
<g>
	<line class="st1" x1="90.4" y1="202.2" x2="151.9" y2="202.2"/>
	<polyline class="st1" points="95.4,197.2 90.4,202.2 95.4,207.2 	"/>
</g>
<g>
	<path d="M108.4,221.5v1h-1.6v5.2h-1.2v-5.2h-1.6v-1H108.4z"/>
	<path d="M108.9,225.4c0-0.4,0.1-0.8,0.2-1.1c0.1-0.3,0.3-0.6,0.5-0.8s0.4-0.4,0.7-0.5s0.5-0.2,0.8-0.2c0.7,0,1.2,0.2,1.6,0.6
		c0.4,0.4,0.5,1,0.5,1.8c0,0.1,0,0.2,0,0.3c0,0.1,0,0.2,0,0.2h-3c0,0.3,0.1,0.5,0.4,0.7s0.6,0.3,1,0.3c0.2,0,0.5,0,0.7-0.1
		c0.2-0.1,0.4-0.1,0.6-0.2l0.2,1c-0.2,0.1-0.4,0.1-0.7,0.2s-0.5,0.1-0.8,0.1c-0.4,0-0.8-0.1-1.1-0.2c-0.3-0.1-0.6-0.3-0.8-0.5
		s-0.4-0.5-0.5-0.8S108.9,225.8,108.9,225.4z M112.1,224.9c0-0.1,0-0.2,0-0.4c0-0.1-0.1-0.2-0.2-0.3c-0.1-0.1-0.2-0.2-0.3-0.2
		s-0.3-0.1-0.4-0.1c-0.2,0-0.3,0-0.4,0.1c-0.1,0.1-0.2,0.1-0.3,0.2c-0.1,0.1-0.1,0.2-0.2,0.3c0,0.1-0.1,0.2-0.1,0.4H112.1z"/>
	<path d="M115.9,226.7c0.3,0,0.5,0,0.7-0.1c0.2,0,0.2-0.1,0.2-0.3c0-0.1,0-0.2-0.1-0.2c0-0.1-0.1-0.1-0.2-0.2
		c-0.1,0-0.2-0.1-0.3-0.1c-0.1,0-0.2-0.1-0.4-0.1c-0.2-0.1-0.4-0.1-0.5-0.2c-0.2-0.1-0.4-0.2-0.5-0.3c-0.2-0.1-0.3-0.2-0.4-0.4
		c-0.1-0.2-0.1-0.4-0.1-0.6c0-0.2,0-0.4,0.1-0.6c0.1-0.2,0.2-0.3,0.4-0.5s0.4-0.2,0.6-0.3c0.3-0.1,0.6-0.1,0.9-0.1
		c0.3,0,0.6,0,0.9,0.1c0.3,0,0.5,0.1,0.7,0.2l-0.2,1c-0.1,0-0.3-0.1-0.5-0.2c-0.2-0.1-0.5-0.1-0.8-0.1c-0.3,0-0.5,0-0.6,0.1
		c-0.1,0.1-0.2,0.2-0.2,0.2c0,0.1,0,0.1,0.1,0.2s0.1,0.1,0.2,0.2c0.1,0,0.2,0.1,0.3,0.1c0.1,0,0.2,0.1,0.4,0.1
		c0.2,0.1,0.4,0.1,0.6,0.2s0.4,0.2,0.5,0.3c0.2,0.1,0.3,0.3,0.4,0.4c0.1,0.2,0.2,0.4,0.2,0.6c0,0.2,0,0.4-0.1,0.5
		c-0.1,0.2-0.2,0.3-0.4,0.5s-0.4,0.2-0.7,0.3s-0.6,0.1-1,0.1c-0.4,0-0.8,0-1-0.1c-0.3-0.1-0.5-0.2-0.7-0.3l0.2-1
		c0.2,0.1,0.5,0.2,0.7,0.3C115.4,226.7,115.6,226.7,115.9,226.7z"/>
	<path d="M120.1,224H119v-1h1.1v-1.2l1.2-0.2v1.4h2v1h-2v1.9c0,0.2,0,0.3,0,0.4c0,0.1,0.1,0.2,0.1,0.3c0.1,0.1,0.1,0.1,0.2,0.1
		c0.1,0,0.2,0,0.3,0c0.1,0,0.2,0,0.3,0s0.2,0,0.3,0s0.2,0,0.3-0.1s0.2-0.1,0.3-0.1l0.2,1.1c-0.2,0.1-0.5,0.2-0.7,0.2
		c-0.3,0-0.5,0.1-0.8,0.1c-0.3,0-0.5,0-0.8-0.1s-0.4-0.1-0.6-0.3c-0.2-0.1-0.3-0.3-0.4-0.6s-0.1-0.6-0.1-1V224z"/>
	<path d="M128.3,227.5c-0.3,0.1-0.5,0.2-0.7,0.2s-0.4,0.1-0.6,0.1c-0.3,0-0.6,0-0.8-0.1c-0.2-0.1-0.4-0.2-0.5-0.4s-0.2-0.4-0.3-0.6
		c-0.1-0.3-0.1-0.5-0.1-0.9V224H124v-1h2.5v2.9c0,0.3,0.1,0.5,0.2,0.6s0.3,0.2,0.5,0.2c0.1,0,0.3,0,0.4,0s0.3-0.1,0.5-0.2
		L128.3,227.5z M126.5,221.6c0,0.2-0.1,0.4-0.2,0.6c-0.2,0.1-0.3,0.2-0.6,0.2c-0.2,0-0.4-0.1-0.5-0.2c-0.1-0.1-0.2-0.3-0.2-0.6
		c0-0.2,0.1-0.4,0.2-0.6c0.2-0.1,0.3-0.2,0.5-0.2c0.2,0,0.4,0.1,0.6,0.2S126.5,221.4,126.5,221.6z"/>
	<path d="M129.3,223.1c0.2-0.1,0.5-0.1,0.8-0.2c0.3-0.1,0.7-0.1,1.1-0.1c0.4,0,0.7,0.1,0.9,0.2c0.2,0.1,0.4,0.3,0.6,0.4
		c0.1,0.2,0.2,0.4,0.3,0.7c0.1,0.3,0.1,0.6,0.1,0.9v2.7h-1.2v-2.5c0-0.4,0-0.8-0.1-1c-0.1-0.2-0.3-0.3-0.6-0.3c-0.1,0-0.2,0-0.3,0
		c-0.1,0-0.2,0-0.3,0v3.7h-1.2V223.1z"/>
	<path d="M138,227.1c0,0.8-0.2,1.3-0.6,1.7s-1,0.5-1.8,0.5c-0.3,0-0.6,0-0.8-0.1c-0.3-0.1-0.5-0.1-0.8-0.2l0.2-1
		c0.2,0.1,0.4,0.1,0.6,0.2c0.2,0.1,0.5,0.1,0.8,0.1c0.2,0,0.4,0,0.5-0.1c0.1-0.1,0.3-0.1,0.3-0.2c0.1-0.1,0.1-0.2,0.2-0.3
		c0-0.1,0-0.2,0-0.4v-0.2c-0.2,0.1-0.3,0.1-0.5,0.1c-0.1,0-0.3,0.1-0.5,0.1c-0.6,0-1.1-0.2-1.4-0.6s-0.5-0.9-0.5-1.6
		c0-0.8,0.2-1.3,0.6-1.7c0.4-0.4,1-0.6,1.7-0.6c0.5,0,1.1,0.1,1.7,0.3V227.1z M135.2,225.2c0,0.4,0.1,0.7,0.2,0.9
		c0.1,0.2,0.4,0.3,0.7,0.3c0.1,0,0.3,0,0.4-0.1c0.1,0,0.2-0.1,0.3-0.1v-2.3c-0.1,0-0.2,0-0.3,0s-0.1,0-0.2,0
		C135.6,223.9,135.2,224.3,135.2,225.2z"/>
</g>
<g>
	<polyline class="st1" points="247,68.7 242,73.7 247,78.7 	"/>
	<g>
		<g>
			<g>
				<line class="st3" x1="243" y1="73.7" x2="247" y2="73.7"/>
				<line class="st4" x1="255" y1="73.7" x2="299" y2="73.7"/>
				<line class="st3" x1="303" y1="73.7" x2="307" y2="73.7"/>
			</g>
		</g>
		<polyline class="st1" points="303.5,68.2 308.5,73.2 303.5,78.2 		"/>
	</g>
</g>
<g>
	<line class="st1" x1="38" y1="108.2" x2="38" y2="161.2"/>
	<polyline class="st1" points="43,113.2 38,108.2 33,113.2 	"/>
</g>
<g>
	<path d="M18.8,244.7l-0.3-1.7h-2l-0.3,1.7h-1.5c0.4-1.5,0.7-2.8,1.1-4c0.4-1.2,0.7-2.3,1-3.4h1.6c0.4,1.1,0.7,2.2,1,3.5
		s0.7,2.5,1,4H18.8z M17.5,238.7c-0.1,0.3-0.2,0.5-0.2,0.8c-0.1,0.3-0.1,0.5-0.2,0.7c-0.1,0.2-0.1,0.5-0.2,0.7
		c-0.1,0.2-0.1,0.5-0.2,0.8h1.5c0-0.3-0.1-0.5-0.1-0.8c0-0.2-0.1-0.5-0.2-0.7c-0.1-0.2-0.1-0.5-0.2-0.7S17.6,239,17.5,238.7z"/>
	<path d="M26.1,244.4c0,0-0.1,0-0.2,0.1s-0.2,0.1-0.3,0.1c-0.1,0-0.3,0.1-0.5,0.1c-0.2,0-0.4,0-0.7,0c-0.7,0-1.2-0.2-1.5-0.6
		c-0.3-0.4-0.5-1-0.5-1.8v-4.8h-1.6v-1.2h3v6.1c0,0.4,0.1,0.6,0.2,0.8c0.2,0.1,0.3,0.2,0.6,0.2c0.3,0,0.5,0,0.7-0.1
		c0.2-0.1,0.3-0.1,0.4-0.2L26.1,244.4z"/>
	<path d="M32.1,244.4c0,0-0.1,0-0.2,0.1s-0.2,0.1-0.3,0.1c-0.1,0-0.3,0.1-0.5,0.1c-0.2,0-0.4,0-0.7,0c-0.7,0-1.2-0.2-1.5-0.6
		c-0.3-0.4-0.5-1-0.5-1.8v-4.8h-1.6v-1.2h3v6.1c0,0.4,0.1,0.6,0.2,0.8c0.2,0.1,0.3,0.2,0.6,0.2c0.3,0,0.5,0,0.7-0.1
		c0.2-0.1,0.3-0.1,0.4-0.2L32.1,244.4z"/>
	<path d="M43.7,244.5c-0.3,0.1-0.6,0.2-1,0.2c-0.4,0.1-0.8,0.1-1.2,0.1c-0.9,0-1.5-0.3-2-0.8c-0.5-0.5-0.7-1.2-0.7-2.1
		c0-0.9,0.2-1.6,0.6-2.2s0.9-0.8,1.7-0.8c0.2,0,0.4,0,0.6,0.1c0.2,0,0.4,0.1,0.5,0.2v-2.6l1.5-0.3V244.5z M40.4,241.8
		c0,0.5,0.1,0.9,0.3,1.2c0.2,0.3,0.5,0.5,0.9,0.5c0.1,0,0.2,0,0.3,0c0.1,0,0.2,0,0.3,0v-3.1c-0.1-0.1-0.2-0.1-0.4-0.2
		c-0.1,0-0.3-0.1-0.5-0.1c-0.4,0-0.6,0.1-0.8,0.4C40.4,240.9,40.4,241.3,40.4,241.8z"/>
	<path d="M50.2,241.8c0,0.4-0.1,0.9-0.2,1.2c-0.1,0.4-0.3,0.7-0.5,0.9c-0.2,0.3-0.5,0.5-0.8,0.6c-0.3,0.1-0.7,0.2-1.1,0.2
		c-0.4,0-0.8-0.1-1.1-0.2c-0.3-0.1-0.6-0.3-0.8-0.6s-0.4-0.6-0.5-0.9c-0.1-0.4-0.2-0.8-0.2-1.2c0-0.4,0.1-0.8,0.2-1.2
		s0.3-0.7,0.6-0.9c0.2-0.3,0.5-0.5,0.8-0.6c0.3-0.1,0.7-0.2,1.1-0.2c0.4,0,0.8,0.1,1.1,0.2c0.3,0.1,0.6,0.3,0.8,0.6s0.4,0.6,0.5,0.9
		S50.2,241.4,50.2,241.8z M46.4,241.8c0,0.5,0.1,0.9,0.3,1.2c0.2,0.3,0.5,0.5,0.9,0.5c0.4,0,0.7-0.2,0.9-0.5
		c0.2-0.3,0.3-0.7,0.3-1.2s-0.1-0.9-0.3-1.2c-0.2-0.3-0.5-0.5-0.9-0.5c-0.4,0-0.7,0.2-0.9,0.5C46.5,240.9,46.4,241.3,46.4,241.8z"/>
	<path d="M51.3,239.2c0.3-0.1,0.6-0.1,1-0.2c0.4-0.1,0.8-0.1,1.3-0.1c0.4,0,0.8,0.1,1.1,0.2s0.5,0.3,0.7,0.5
		c0.2,0.2,0.3,0.5,0.4,0.8c0.1,0.3,0.1,0.7,0.1,1.1v3.2h-1.5v-3c0-0.5-0.1-0.9-0.2-1.1s-0.4-0.3-0.7-0.3c-0.1,0-0.2,0-0.3,0
		c-0.1,0-0.2,0-0.3,0v4.4h-1.5V239.2z"/>
	<path d="M56.9,241.9c0-0.5,0.1-0.9,0.2-1.3c0.2-0.4,0.4-0.7,0.6-0.9c0.2-0.3,0.5-0.4,0.9-0.6c0.3-0.1,0.6-0.2,1-0.2
		c0.8,0,1.5,0.2,1.9,0.7c0.4,0.5,0.6,1.2,0.6,2.2c0,0.1,0,0.2,0,0.3c0,0.1,0,0.2,0,0.3h-3.7c0,0.4,0.2,0.7,0.5,0.9
		c0.3,0.2,0.7,0.3,1.2,0.3c0.3,0,0.6,0,0.8-0.1c0.3-0.1,0.5-0.1,0.7-0.2l0.2,1.3c-0.3,0.1-0.5,0.2-0.8,0.2c-0.3,0.1-0.6,0.1-1,0.1
		c-0.5,0-0.9-0.1-1.3-0.2s-0.7-0.3-1-0.6c-0.3-0.2-0.5-0.5-0.6-0.9C57,242.8,56.9,242.4,56.9,241.9z M60.7,241.3
		c0-0.2,0-0.3-0.1-0.4s-0.1-0.3-0.2-0.4c-0.1-0.1-0.2-0.2-0.3-0.3c-0.1-0.1-0.3-0.1-0.5-0.1c-0.2,0-0.4,0-0.5,0.1
		c-0.1,0.1-0.3,0.2-0.3,0.3c-0.1,0.1-0.2,0.2-0.2,0.4c-0.1,0.1-0.1,0.3-0.1,0.4H60.7z"/>
</g>
<g>
	<g>
		<path d="M65.9,186.1v10.3c0,2.3,1.1,3.4,3.4,3.4c0.5,0,0.9,0.2,1.2,0.5c0.3,0.3,0.5,0.7,0.5,1.2s-0.2,0.9-0.5,1.2
			c-0.3,0.3-0.7,0.5-1.2,0.5c-2.3,0-3.4,1.1-3.4,3.4v10.3c0,4.6-2.3,6.8-6.8,6.8c-0.5,0-0.9-0.2-1.2-0.5c-0.3-0.3-0.5-0.7-0.5-1.2
			c0-0.5,0.2-0.9,0.5-1.2c0.3-0.3,0.7-0.5,1.2-0.5c2.3,0,3.4-1.1,3.4-3.4v-10.3c0-2.3,0.6-4,1.7-5.1c-1.1-1.1-1.7-2.9-1.7-5.1v-10.3
			c0-2.3-1.1-3.4-3.4-3.4c-0.5,0-0.9-0.2-1.2-0.5c-0.3-0.3-0.5-0.7-0.5-1.2c0-0.5,0.2-0.9,0.5-1.2c0.3-0.3,0.7-0.5,1.2-0.5
			C63.6,179.2,65.9,181.5,65.9,186.1z"/>
	</g>
	<g>
		<path d="M17,179.2c0.5,0,0.9,0.2,1.2,0.5c0.3,0.3,0.5,0.7,0.5,1.2c0,0.5-0.2,0.9-0.5,1.2c-0.3,0.3-0.7,0.5-1.2,0.5
			c-2.3,0-3.4,1.1-3.4,3.4v10.3c0,2.3-0.6,4-1.7,5.1c1.1,1.1,1.7,2.9,1.7,5.1v10.3c0,2.3,1.1,3.4,3.4,3.4c0.5,0,0.9,0.2,1.2,0.5
			c0.3,0.3,0.5,0.7,0.5,1.2c0,0.5-0.2,0.9-0.5,1.2c-0.3,0.3-0.7,0.5-1.2,0.5c-4.6,0-6.8-2.3-6.8-6.8v-10.3c0-2.3-1.1-3.4-3.4-3.4
			c-0.5,0-0.9-0.2-1.2-0.5C5.2,202.4,5,202,5,201.5s0.2-0.9,0.5-1.2c0.3-0.3,0.7-0.5,1.2-0.5c2.3,0,3.4-1.1,3.4-3.4v-10.3
			C10.2,181.5,12.4,179.2,17,179.2z"/>
	</g>
</g>
<polyline class="st2" points="26.1,199.5 36.9,216.7 51.7,187.7 "/>
<g>
	<path class="st2" d="M210,218.6l7.4,4.7c1.9-1.4,3.6-3.1,5-5l-4.7-7.4c0.6-1.2,1.2-2.4,1.6-3.8l8.5-1.9c0.2-1.2,0.2-2.3,0.2-3.5
		c0-1.2-0.1-2.4-0.2-3.5l-8.5-1.9c-0.4-1.3-0.9-2.6-1.6-3.8l4.7-7.4c-1.4-1.9-3.1-3.6-5-5l-7.4,4.7c-1.2-0.6-2.4-1.2-3.8-1.6
		l-1.9-8.5c-1.2-0.2-2.3-0.2-3.5-0.2s-2.4,0.1-3.5,0.2l-1.9,8.5c-1.3,0.4-2.6,0.9-3.8,1.6l-7.4-4.7c-1.9,1.4-3.6,3.1-5,5l4.7,7.4
		c-0.6,1.2-1.2,2.4-1.6,3.8l-8.5,1.9c-0.2,1.2-0.2,2.3-0.2,3.5c0,1.2,0.1,2.4,0.2,3.5l8.5,1.9c0.4,1.3,0.9,2.6,1.6,3.8l-4.7,7.4
		c1.4,1.9,3.1,3.6,5,5l7.4-4.7"/>
	<g>
		<path class="st2" d="M205.4,227.2h-9.5l9.5-4.9h-9.5l10.2-5.8l0,0c0.3-2.4,0.6-5.7,2.4-7.6c1.1-1.2,2-2.6,2.4-4.2
			c0.3-1.3,0.4-2.6,0.2-4c-0.6-4.2-3.7-7.6-7.7-8.6c-0.9-0.2-1.7-0.3-2.6-0.3c-0.8,0-1.7,0.1-2.6,0.3c-4.1,1-7.1,4.5-7.7,8.7
			c-0.2,1.4-0.1,2.8,0.3,4c0.4,1.6,1.3,3,2.4,4.2c1.8,1.9,2.2,4.8,2.4,7.2"/>
	</g>
</g>
<g>
	<path d="M173.2,240.9c0,0.7-0.1,1.3-0.3,1.8s-0.4,0.9-0.7,1.2c-0.3,0.3-0.7,0.5-1.1,0.7s-0.9,0.2-1.4,0.2c-0.3,0-0.5,0-0.8,0
		s-0.5-0.1-0.8-0.1v-7.2c0.3-0.1,0.7-0.1,0.9-0.1c0.3,0,0.6,0,0.8,0c0.5,0,0.9,0.1,1.3,0.2c0.4,0.1,0.7,0.4,1,0.7
		c0.3,0.3,0.5,0.7,0.7,1.2C173.1,239.7,173.2,240.3,173.2,240.9z M169.6,243.5c0,0,0.1,0,0.1,0s0.1,0,0.1,0c0.3,0,0.6-0.1,0.8-0.2
		c0.2-0.1,0.4-0.3,0.6-0.5c0.1-0.2,0.2-0.5,0.3-0.8c0.1-0.3,0.1-0.6,0.1-1c0-0.3,0-0.6-0.1-0.9c0-0.3-0.1-0.6-0.3-0.8
		c-0.1-0.2-0.3-0.4-0.5-0.6c-0.2-0.1-0.5-0.2-0.8-0.2c-0.1,0-0.1,0-0.2,0s-0.2,0-0.2,0V243.5z"/>
	<path d="M173.9,241.9c0-0.5,0.1-0.9,0.2-1.3c0.2-0.4,0.4-0.7,0.6-0.9c0.2-0.3,0.5-0.4,0.9-0.6c0.3-0.1,0.6-0.2,1-0.2
		c0.8,0,1.5,0.2,1.9,0.7c0.4,0.5,0.6,1.2,0.6,2.2c0,0.1,0,0.2,0,0.3c0,0.1,0,0.2,0,0.3h-3.7c0,0.4,0.2,0.7,0.5,0.9
		c0.3,0.2,0.7,0.3,1.2,0.3c0.3,0,0.6,0,0.8-0.1c0.3-0.1,0.5-0.1,0.7-0.2l0.2,1.3c-0.3,0.1-0.5,0.2-0.8,0.2c-0.3,0.1-0.6,0.1-1,0.1
		c-0.5,0-0.9-0.1-1.3-0.2s-0.7-0.3-1-0.6c-0.3-0.2-0.5-0.5-0.6-0.9C174,242.8,173.9,242.4,173.9,241.9z M177.7,241.3
		c0-0.2,0-0.3-0.1-0.4s-0.1-0.3-0.2-0.4c-0.1-0.1-0.2-0.2-0.3-0.3c-0.1-0.1-0.3-0.1-0.5-0.1c-0.2,0-0.4,0-0.5,0.1
		c-0.1,0.1-0.3,0.2-0.3,0.3c-0.1,0.1-0.2,0.2-0.2,0.4c-0.1,0.1-0.1,0.3-0.1,0.4H177.7z"/>
	<path d="M181.8,244.7c-0.4-0.7-0.7-1.5-1.1-2.5c-0.4-1-0.7-2-1.1-3.1h1.5c0.1,0.3,0.2,0.6,0.3,1c0.1,0.3,0.2,0.7,0.3,1
		s0.2,0.7,0.3,1s0.2,0.6,0.3,0.9c0.1-0.3,0.2-0.6,0.3-0.9s0.3-0.7,0.4-1c0.1-0.3,0.2-0.7,0.4-1s0.2-0.7,0.3-1h1.5
		c-0.3,1.1-0.7,2.2-1.1,3.1s-0.8,1.8-1.2,2.5H181.8z"/>
	<path d="M185.9,241.9c0-0.5,0.1-0.9,0.2-1.3c0.2-0.4,0.4-0.7,0.6-0.9c0.2-0.3,0.5-0.4,0.9-0.6c0.3-0.1,0.6-0.2,1-0.2
		c0.8,0,1.5,0.2,1.9,0.7c0.4,0.5,0.6,1.2,0.6,2.2c0,0.1,0,0.2,0,0.3c0,0.1,0,0.2,0,0.3h-3.7c0,0.4,0.2,0.7,0.5,0.9
		c0.3,0.2,0.7,0.3,1.2,0.3c0.3,0,0.6,0,0.8-0.1c0.3-0.1,0.5-0.1,0.7-0.2l0.2,1.3c-0.3,0.1-0.5,0.2-0.8,0.2c-0.3,0.1-0.6,0.1-1,0.1
		c-0.5,0-0.9-0.1-1.3-0.2s-0.7-0.3-1-0.6c-0.3-0.2-0.5-0.5-0.6-0.9C186,242.8,185.9,242.4,185.9,241.9z M189.7,241.3
		c0-0.2,0-0.3-0.1-0.4s-0.1-0.3-0.2-0.4c-0.1-0.1-0.2-0.2-0.3-0.3c-0.1-0.1-0.3-0.1-0.5-0.1c-0.2,0-0.4,0-0.5,0.1
		c-0.1,0.1-0.3,0.2-0.3,0.3c-0.1,0.1-0.2,0.2-0.2,0.4c-0.1,0.1-0.1,0.3-0.1,0.4H189.7z"/>
	<path d="M197.1,244.4c0,0-0.1,0-0.2,0.1s-0.2,0.1-0.3,0.1c-0.1,0-0.3,0.1-0.5,0.1c-0.2,0-0.4,0-0.7,0c-0.7,0-1.2-0.2-1.5-0.6
		c-0.3-0.4-0.5-1-0.5-1.8v-4.8h-1.6v-1.2h3v6.1c0,0.4,0.1,0.6,0.2,0.8c0.2,0.1,0.3,0.2,0.6,0.2c0.3,0,0.5,0,0.7-0.1
		c0.2-0.1,0.3-0.1,0.4-0.2L197.1,244.4z"/>
	<path d="M203.2,241.8c0,0.4-0.1,0.9-0.2,1.2c-0.1,0.4-0.3,0.7-0.5,0.9c-0.2,0.3-0.5,0.5-0.8,0.6c-0.3,0.1-0.7,0.2-1.1,0.2
		c-0.4,0-0.8-0.1-1.1-0.2c-0.3-0.1-0.6-0.3-0.8-0.6s-0.4-0.6-0.5-0.9c-0.1-0.4-0.2-0.8-0.2-1.2c0-0.4,0.1-0.8,0.2-1.2
		s0.3-0.7,0.6-0.9c0.2-0.3,0.5-0.5,0.8-0.6c0.3-0.1,0.7-0.2,1.1-0.2c0.4,0,0.8,0.1,1.1,0.2c0.3,0.1,0.6,0.3,0.8,0.6s0.4,0.6,0.5,0.9
		S203.2,241.4,203.2,241.8z M199.4,241.8c0,0.5,0.1,0.9,0.3,1.2c0.2,0.3,0.5,0.5,0.9,0.5c0.4,0,0.7-0.2,0.9-0.5
		c0.2-0.3,0.3-0.7,0.3-1.2s-0.1-0.9-0.3-1.2c-0.2-0.3-0.5-0.5-0.9-0.5c-0.4,0-0.7,0.2-0.9,0.5C199.5,240.9,199.4,241.3,199.4,241.8z
		"/>
	<path d="M209.1,241.8c0,0.4,0,0.8-0.1,1.2c-0.1,0.4-0.2,0.7-0.4,0.9c-0.2,0.3-0.4,0.5-0.7,0.6c-0.3,0.1-0.6,0.2-1,0.2
		c-0.4,0-0.8-0.1-1.2-0.3v2.1h-1.5v-7.4c0.3-0.1,0.6-0.2,1-0.2c0.4-0.1,0.8-0.1,1.2-0.1c0.9,0,1.5,0.3,2,0.8
		C208.9,240.2,209.1,240.9,209.1,241.8z M207.6,241.9c0-0.5-0.1-0.9-0.3-1.2c-0.2-0.3-0.5-0.5-0.9-0.5c-0.1,0-0.2,0-0.4,0
		c-0.1,0-0.2,0-0.3,0v3.1c0.1,0.1,0.2,0.1,0.4,0.2s0.3,0.1,0.5,0.1c0.4,0,0.6-0.1,0.8-0.4C207.6,242.8,207.6,242.4,207.6,241.9z"/>
	<path d="M213.6,239c0.3,0,0.6,0,0.8,0.1c0.2,0.1,0.4,0.2,0.5,0.4c0.1,0.2,0.2,0.4,0.2,0.7c0,0.3,0.1,0.6,0.1,1v3.4H214v-3.4
		c0-0.2,0-0.4,0-0.5c0-0.1-0.1-0.2-0.1-0.3s-0.1-0.1-0.2-0.1c-0.1,0-0.1,0-0.2,0c-0.1,0-0.1,0-0.2,0c-0.1,0-0.2,0-0.2,0.1
		c0,0.2,0,0.3,0.1,0.5c0,0.2,0,0.4,0,0.6v1.1h-1.2v-1.3c0-0.4,0-0.7-0.1-0.8c-0.1-0.2-0.2-0.2-0.4-0.2c0,0-0.1,0-0.2,0
		c-0.1,0-0.1,0-0.2,0v4.4h-1.2v-5.4c0.3-0.1,0.6-0.2,0.9-0.2c0.3,0,0.6-0.1,0.8-0.1c0.2,0,0.4,0,0.6,0.1s0.3,0.1,0.4,0.3
		c0.1-0.1,0.3-0.2,0.5-0.2C213.2,239,213.4,239,213.6,239z"/>
	<path d="M215.9,241.9c0-0.5,0.1-0.9,0.2-1.3c0.2-0.4,0.4-0.7,0.6-0.9c0.2-0.3,0.5-0.4,0.9-0.6c0.3-0.1,0.6-0.2,1-0.2
		c0.8,0,1.5,0.2,1.9,0.7c0.4,0.5,0.6,1.2,0.6,2.2c0,0.1,0,0.2,0,0.3c0,0.1,0,0.2,0,0.3h-3.7c0,0.4,0.2,0.7,0.5,0.9
		c0.3,0.2,0.7,0.3,1.2,0.3c0.3,0,0.6,0,0.8-0.1c0.3-0.1,0.5-0.1,0.7-0.2l0.2,1.3c-0.3,0.1-0.5,0.2-0.8,0.2c-0.3,0.1-0.6,0.1-1,0.1
		c-0.5,0-0.9-0.1-1.3-0.2s-0.7-0.3-1-0.6c-0.3-0.2-0.5-0.5-0.6-0.9C216,242.8,215.9,242.4,215.9,241.9z M219.7,241.3
		c0-0.2,0-0.3-0.1-0.4s-0.1-0.3-0.2-0.4c-0.1-0.1-0.2-0.2-0.3-0.3c-0.1-0.1-0.3-0.1-0.5-0.1c-0.2,0-0.4,0-0.5,0.1
		c-0.1,0.1-0.3,0.2-0.3,0.3c-0.1,0.1-0.2,0.2-0.2,0.4c-0.1,0.1-0.1,0.3-0.1,0.4H219.7z"/>
	<path d="M222.3,239.2c0.3-0.1,0.6-0.1,1-0.2c0.4-0.1,0.8-0.1,1.3-0.1c0.4,0,0.8,0.1,1.1,0.2s0.5,0.3,0.7,0.5
		c0.2,0.2,0.3,0.5,0.4,0.8c0.1,0.3,0.1,0.7,0.1,1.1v3.2h-1.5v-3c0-0.5-0.1-0.9-0.2-1.1s-0.4-0.3-0.7-0.3c-0.1,0-0.2,0-0.3,0
		c-0.1,0-0.2,0-0.3,0v4.4h-1.5V239.2z"/>
	<path d="M229.2,240.3h-1.3V239h1.3v-1.4l1.5-0.2v1.7h2.4v1.2h-2.4v2.3c0,0.2,0,0.4,0.1,0.5s0.1,0.2,0.2,0.3s0.2,0.1,0.3,0.1
		c0.1,0,0.2,0,0.3,0c0.1,0,0.3,0,0.4,0c0.1,0,0.2,0,0.3,0c0.1,0,0.2,0,0.3-0.1s0.2-0.1,0.4-0.2l0.2,1.3c-0.3,0.1-0.6,0.2-0.9,0.2
		c-0.3,0-0.6,0.1-0.9,0.1c-0.3,0-0.6,0-0.9-0.1s-0.5-0.2-0.7-0.3c-0.2-0.2-0.3-0.4-0.4-0.7c-0.1-0.3-0.1-0.7-0.1-1.1V240.3z"/>
</g>
<g>
	<path d="M337.6,89.7c0.4,0,0.8,0,1.2,0.1s0.6,0.2,0.9,0.4c0.2,0.2,0.4,0.5,0.6,0.8c0.1,0.3,0.2,0.7,0.2,1.1c0,0.4-0.1,0.8-0.3,1.2
		c-0.2,0.4-0.5,0.6-0.9,0.8c0.1,0.2,0.3,0.4,0.4,0.7s0.3,0.5,0.4,0.8c0.1,0.3,0.3,0.6,0.4,0.8c0.1,0.3,0.2,0.5,0.3,0.8h-1.5
		c-0.2-0.5-0.4-0.9-0.6-1.4c-0.2-0.4-0.5-0.9-0.8-1.4h-0.8v2.7h-1.5v-7.3c0.1,0,0.3-0.1,0.5-0.1c0.2,0,0.3,0,0.5-0.1
		c0.2,0,0.3,0,0.5,0C337.3,89.7,337.5,89.7,337.6,89.7z M338.9,92.1c0-0.4-0.1-0.7-0.4-0.9c-0.2-0.2-0.6-0.3-0.9-0.3
		c-0.1,0-0.1,0-0.2,0s-0.2,0-0.2,0v2.2h0.3c0.5,0,0.9-0.1,1.1-0.3S338.9,92.4,338.9,92.1z"/>
	<path d="M341.4,94.4c0-0.5,0.1-0.9,0.2-1.3c0.2-0.4,0.4-0.7,0.6-0.9c0.2-0.3,0.5-0.4,0.9-0.6c0.3-0.1,0.6-0.2,1-0.2
		c0.8,0,1.5,0.2,1.9,0.7c0.4,0.5,0.6,1.2,0.6,2.2c0,0.1,0,0.2,0,0.3c0,0.1,0,0.2,0,0.3h-3.7c0,0.4,0.2,0.7,0.5,0.9
		c0.3,0.2,0.7,0.3,1.2,0.3c0.3,0,0.6,0,0.8-0.1c0.3-0.1,0.5-0.1,0.7-0.2l0.2,1.3c-0.3,0.1-0.5,0.2-0.8,0.2c-0.3,0.1-0.6,0.1-1,0.1
		c-0.5,0-0.9-0.1-1.3-0.2s-0.7-0.3-1-0.6c-0.3-0.2-0.5-0.5-0.6-0.9C341.5,95.3,341.4,94.9,341.4,94.4z M345.2,93.8
		c0-0.2,0-0.3-0.1-0.4s-0.1-0.3-0.2-0.4c-0.1-0.1-0.2-0.2-0.3-0.3c-0.1-0.1-0.3-0.1-0.5-0.1c-0.2,0-0.4,0-0.5,0.1
		c-0.1,0.1-0.3,0.2-0.3,0.3c-0.1,0.1-0.2,0.2-0.2,0.4c-0.1,0.1-0.1,0.3-0.1,0.4H345.2z"/>
	<path d="M349.8,96.1c0.4,0,0.6,0,0.8-0.1c0.2-0.1,0.3-0.2,0.3-0.3c0-0.1,0-0.2-0.1-0.3c-0.1-0.1-0.1-0.1-0.3-0.2
		c-0.1-0.1-0.2-0.1-0.4-0.2c-0.1,0-0.3-0.1-0.4-0.1c-0.2-0.1-0.4-0.1-0.7-0.2s-0.4-0.2-0.6-0.3c-0.2-0.1-0.3-0.3-0.5-0.5
		c-0.1-0.2-0.2-0.4-0.2-0.7c0-0.2,0-0.5,0.1-0.7s0.2-0.4,0.4-0.6c0.2-0.2,0.4-0.3,0.8-0.4c0.3-0.1,0.7-0.1,1.1-0.1
		c0.4,0,0.7,0,1,0.1c0.3,0.1,0.6,0.1,0.8,0.2l-0.2,1.2c-0.1,0-0.3-0.1-0.6-0.2c-0.3-0.1-0.6-0.1-1-0.1c-0.4,0-0.6,0-0.8,0.1
		s-0.2,0.2-0.2,0.3c0,0.1,0,0.2,0.1,0.2c0.1,0.1,0.1,0.1,0.2,0.2c0.1,0.1,0.2,0.1,0.3,0.2c0.1,0.1,0.3,0.1,0.4,0.2
		c0.2,0.1,0.4,0.2,0.7,0.2c0.2,0.1,0.4,0.2,0.6,0.3c0.2,0.1,0.3,0.3,0.5,0.5c0.1,0.2,0.2,0.5,0.2,0.8c0,0.2,0,0.5-0.1,0.7
		c-0.1,0.2-0.2,0.4-0.4,0.5c-0.2,0.2-0.5,0.3-0.8,0.4s-0.7,0.1-1.2,0.1c-0.5,0-0.9-0.1-1.2-0.2c-0.3-0.1-0.6-0.2-0.8-0.3l0.2-1.2
		c0.3,0.1,0.6,0.2,0.9,0.3C349.1,96,349.4,96.1,349.8,96.1z"/>
	<path d="M353.4,94.4c0-0.5,0.1-0.9,0.2-1.3c0.2-0.4,0.4-0.7,0.6-0.9c0.2-0.3,0.5-0.4,0.9-0.6c0.3-0.1,0.6-0.2,1-0.2
		c0.8,0,1.5,0.2,1.9,0.7c0.4,0.5,0.6,1.2,0.6,2.2c0,0.1,0,0.2,0,0.3c0,0.1,0,0.2,0,0.3h-3.7c0,0.4,0.2,0.7,0.5,0.9
		c0.3,0.2,0.7,0.3,1.2,0.3c0.3,0,0.6,0,0.8-0.1c0.3-0.1,0.5-0.1,0.7-0.2l0.2,1.3c-0.3,0.1-0.5,0.2-0.8,0.2c-0.3,0.1-0.6,0.1-1,0.1
		c-0.5,0-0.9-0.1-1.3-0.2s-0.7-0.3-1-0.6c-0.3-0.2-0.5-0.5-0.6-0.9C353.5,95.3,353.4,94.9,353.4,94.4z M357.2,93.8
		c0-0.2,0-0.3-0.1-0.4s-0.1-0.3-0.2-0.4c-0.1-0.1-0.2-0.2-0.3-0.3c-0.1-0.1-0.3-0.1-0.5-0.1c-0.2,0-0.4,0-0.5,0.1
		c-0.1,0.1-0.3,0.2-0.3,0.3c-0.1,0.1-0.2,0.2-0.2,0.4c-0.1,0.1-0.1,0.3-0.1,0.4H357.2z"/>
	<path d="M361.9,91.4c0.5,0,0.8,0.1,1.2,0.2c0.3,0.1,0.6,0.3,0.7,0.5c0.2,0.2,0.3,0.4,0.4,0.7c0.1,0.3,0.1,0.6,0.1,1V97
		c-0.2,0-0.5,0.1-1,0.2c-0.4,0.1-0.9,0.1-1.4,0.1c-0.4,0-0.7,0-1-0.1c-0.3-0.1-0.5-0.2-0.8-0.3c-0.2-0.1-0.4-0.3-0.5-0.6
		c-0.1-0.2-0.2-0.5-0.2-0.9c0-0.3,0.1-0.6,0.2-0.8c0.1-0.2,0.3-0.4,0.5-0.5c0.2-0.1,0.5-0.2,0.7-0.3c0.3-0.1,0.6-0.1,0.9-0.1
		c0.4,0,0.7,0,1,0.1v-0.2c0-0.3-0.1-0.5-0.3-0.7c-0.2-0.2-0.5-0.3-0.9-0.3c-0.3,0-0.6,0-0.8,0.1s-0.5,0.1-0.6,0.1l-0.2-1.2
		c0.2-0.1,0.4-0.1,0.8-0.2S361.5,91.4,361.9,91.4z M362,96.1c0.2,0,0.3,0,0.5,0c0.2,0,0.3,0,0.4,0v-1.3c-0.1,0-0.2,0-0.3,0
		c-0.1,0-0.3,0-0.4,0c-0.2,0-0.3,0-0.4,0c-0.1,0-0.3,0.1-0.4,0.1c-0.1,0-0.2,0.1-0.3,0.2c-0.1,0.1-0.1,0.2-0.1,0.3
		c0,0.3,0.1,0.4,0.3,0.5C361.5,96.1,361.7,96.1,362,96.1z"/>
	<path d="M370.3,93c-0.1,0-0.2,0-0.3-0.1c-0.1,0-0.3,0-0.4-0.1c-0.1,0-0.3,0-0.4,0c-0.1,0-0.2,0-0.3,0c-0.2,0-0.4,0-0.6,0
		c-0.2,0-0.4,0.1-0.6,0.1v4.2h-1.5v-5.3c0.4-0.1,0.8-0.3,1.2-0.3c0.4-0.1,0.9-0.1,1.4-0.1c0.1,0,0.2,0,0.3,0c0.1,0,0.3,0,0.5,0
		c0.2,0,0.3,0,0.5,0.1s0.3,0.1,0.5,0.1L370.3,93z"/>
	<path d="M371.5,94.3c0-0.4,0.1-0.8,0.2-1.2c0.1-0.4,0.3-0.7,0.6-0.9c0.3-0.3,0.6-0.5,1-0.6c0.4-0.2,0.9-0.2,1.4-0.2
		c0.3,0,0.6,0,0.9,0.1c0.3,0,0.5,0.1,0.8,0.2l-0.3,1.2c-0.2-0.1-0.3-0.1-0.5-0.1s-0.4-0.1-0.8-0.1c-0.4,0-0.6,0-0.9,0.1
		s-0.4,0.2-0.6,0.3c-0.1,0.1-0.2,0.3-0.3,0.5c-0.1,0.2-0.1,0.4-0.1,0.7c0,0.5,0.1,0.9,0.4,1.2s0.8,0.4,1.5,0.4c0.2,0,0.5,0,0.7,0
		c0.3,0,0.5-0.1,0.7-0.2l0.2,1.2c-0.2,0.1-0.5,0.1-0.8,0.2s-0.6,0.1-1,0.1c-0.6,0-1.1-0.1-1.5-0.2c-0.4-0.2-0.8-0.4-1-0.6
		c-0.3-0.3-0.5-0.6-0.6-0.9C371.6,95.2,371.5,94.8,371.5,94.3z"/>
	<path d="M377.8,97.2v-8.1l1.5-0.3v2.7c0.1,0,0.3-0.1,0.4-0.1s0.3-0.1,0.4-0.1c0.4,0,0.8,0.1,1,0.2c0.3,0.1,0.5,0.3,0.7,0.5
		c0.2,0.2,0.3,0.5,0.4,0.8c0.1,0.3,0.1,0.7,0.1,1.1v3.2h-1.5v-3c0-0.5-0.1-0.9-0.2-1.1s-0.3-0.3-0.7-0.3c-0.1,0-0.3,0-0.4,0
		s-0.2,0.1-0.3,0.1v4.3H377.8z"/>
</g>
<g>
	<g>
		<g>
			<path class="st5" d="M370.3,79.2h-23.1c-2.6,0-4.7-2.1-4.7-4.7V30.8c0-2.6,2.1-4.7,4.7-4.7h20.6c0.5,0,1,0.2,1.3,0.5l5.4,5.4
				c0.4,0.4,0.6,0.8,0.6,1.3v41.1C375,77.1,372.9,79.2,370.3,79.2z"/>
			<path class="st5" d="M368.5,26.1v5.6c0,0.5,0.4,0.9,0.9,0.9h5.6"/>
		</g>
		<line class="st6" x1="348" y1="37.7" x2="362.4" y2="37.7"/>
		<line class="st6" x1="348" y1="42.4" x2="369.9" y2="42.4"/>
		<line class="st6" x1="348" y1="47.1" x2="369.9" y2="47.1"/>
		<line class="st6" x1="348" y1="52.6" x2="369.9" y2="52.6"/>
		<line class="st6" x1="348" y1="57.3" x2="369.9" y2="57.3"/>
		<line class="st6" x1="348.5" y1="62" x2="369.9" y2="62"/>
	</g>
	<g>
		<path class="st7" d="M338.7,79.7c-2.3,0-4.2-1.5-4.8-3.7l-6.5-26.7c-0.6-2.6,1-5.3,3.6-5.9l14.9-3.6c0.4-0.1,0.8-0.1,1.2-0.1
			c2.3,0,4.2,1.5,4.8,3.7l6.5,26.7c0.6,2.6-1,5.3-3.6,5.9l-14.9,3.6C339.5,79.7,339.1,79.7,338.7,79.7z"/>
		<path class="st8" d="M354.3,74.1c1.6-0.4,2.6-2.1,2.2-3.7L350,43.8c-0.4-1.6-2.1-2.6-3.7-2.2l-14.9,3.6c-1.6,0.4-2.6,2.1-2.2,3.7
			l6.5,26.7c0.4,1.6,2.1,2.6,3.7,2.2L354.3,74.1z"/>
		<path class="st9" d="M347.2,48.4l0.6,2.3c0.1,0.4-0.2,0.9-0.6,1l-11.4,2.8c-0.4,0.1-0.9-0.2-1-0.6l-0.6-2.3
			c-0.1-0.4,0.2-0.9,0.6-1l11.4-2.8C346.7,47.7,347.1,48,347.2,48.4z"/>
		<path d="M338.7,60.9l-1.8,0.4c-0.4,0.1-0.7-0.1-0.8-0.5l-0.4-1.8c-0.1-0.4,0.1-0.7,0.5-0.8l1.8-0.4c0.4-0.1,0.7,0.1,0.8,0.5
			l0.4,1.8C339.3,60.4,339.1,60.8,338.7,60.9z"/>
		<path d="M344,59.6l-1.8,0.4c-0.4,0.1-0.7-0.1-0.8-0.5l-0.4-1.8c-0.1-0.4,0.1-0.7,0.5-0.8l1.8-0.4c0.4-0.1,0.7,0.1,0.8,0.5l0.4,1.8
			C344.6,59.1,344.4,59.5,344,59.6z"/>
		<path d="M349.4,58.3l-1.8,0.4c-0.4,0.1-0.7-0.1-0.8-0.5l-0.4-1.8c-0.1-0.4,0.1-0.7,0.5-0.8l1.8-0.4c0.4-0.1,0.7,0.1,0.8,0.5
			l0.4,1.8C349.9,57.8,349.7,58.2,349.4,58.3z"/>
		<path d="M340.3,67.1l-1.8,0.4c-0.4,0.1-0.7-0.1-0.8-0.5l-0.4-1.8c-0.1-0.4,0.1-0.7,0.5-0.8l1.8-0.4c0.4-0.1,0.7,0.1,0.8,0.5
			l0.4,1.8C340.8,66.6,340.6,67,340.3,67.1z"/>
		<path d="M345.6,65.8l-1.8,0.4c-0.4,0.1-0.7-0.1-0.8-0.5l-0.4-1.8c-0.1-0.4,0.1-0.7,0.5-0.8l1.8-0.4c0.4-0.1,0.7,0.1,0.8,0.5
			l0.4,1.8C346.1,65.4,345.9,65.7,345.6,65.8z"/>
		<path d="M341.8,73.3l-1.8,0.4c-0.4,0.1-0.7-0.1-0.8-0.5l-0.4-1.8c-0.1-0.4,0.1-0.7,0.5-0.8l1.8-0.4c0.4-0.1,0.7,0.1,0.8,0.5
			l0.4,1.8C342.3,72.9,342.1,73.2,341.8,73.3z"/>
		<path d="M347.1,72l-1.8,0.4c-0.4,0.1-0.7-0.1-0.8-0.5l-0.4-1.8c-0.1-0.4,0.1-0.7,0.5-0.8l1.8-0.4c0.4-0.1,0.7,0.1,0.8,0.5l0.4,1.8
			C347.7,71.6,347.4,71.9,347.1,72z"/>
		<path d="M352.4,70.7l-1.9,0.5c-0.3,0.1-0.7-0.1-0.8-0.5l-2-8.1c-0.1-0.3,0.1-0.7,0.5-0.8l1.9-0.5c0.3-0.1,0.7,0.1,0.8,0.5l2,8.1
			C353,70.3,352.8,70.6,352.4,70.7z"/>
	</g>
</g>
<g>
	<path d="M336.7,235.7v1.2h-2v6.2h-1.5V237h-2v-1.2H336.7z"/>
	<path d="M337.4,240.4c0-0.5,0.1-0.9,0.2-1.3c0.2-0.4,0.4-0.7,0.6-0.9c0.2-0.3,0.5-0.4,0.9-0.6c0.3-0.1,0.6-0.2,1-0.2
		c0.8,0,1.5,0.2,1.9,0.7c0.4,0.5,0.6,1.2,0.6,2.2c0,0.1,0,0.2,0,0.3c0,0.1,0,0.2,0,0.3h-3.7c0,0.4,0.2,0.7,0.5,0.9
		c0.3,0.2,0.7,0.3,1.2,0.3c0.3,0,0.6,0,0.8-0.1c0.3-0.1,0.5-0.1,0.7-0.2l0.2,1.3c-0.3,0.1-0.5,0.2-0.8,0.2c-0.3,0.1-0.6,0.1-1,0.1
		c-0.5,0-0.9-0.1-1.3-0.2s-0.7-0.3-1-0.6c-0.3-0.2-0.5-0.5-0.6-0.9C337.5,241.3,337.4,240.9,337.4,240.4z M341.2,239.8
		c0-0.2,0-0.3-0.1-0.4s-0.1-0.3-0.2-0.4c-0.1-0.1-0.2-0.2-0.3-0.3c-0.1-0.1-0.3-0.1-0.5-0.1c-0.2,0-0.4,0-0.5,0.1
		c-0.1,0.1-0.3,0.2-0.3,0.3c-0.1,0.1-0.2,0.2-0.2,0.4c-0.1,0.1-0.1,0.3-0.1,0.4H341.2z"/>
	<path d="M343.5,240.3c0-0.4,0.1-0.8,0.2-1.2c0.1-0.4,0.3-0.7,0.6-0.9c0.3-0.3,0.6-0.5,1-0.6c0.4-0.2,0.9-0.2,1.4-0.2
		c0.3,0,0.6,0,0.9,0.1c0.3,0,0.5,0.1,0.8,0.2l-0.3,1.2c-0.2-0.1-0.3-0.1-0.5-0.1s-0.4-0.1-0.8-0.1c-0.4,0-0.6,0-0.9,0.1
		s-0.4,0.2-0.6,0.3c-0.1,0.1-0.2,0.3-0.3,0.5c-0.1,0.2-0.1,0.4-0.1,0.7c0,0.5,0.1,0.9,0.4,1.2s0.8,0.4,1.5,0.4c0.2,0,0.5,0,0.7,0
		c0.3,0,0.5-0.1,0.7-0.2l0.2,1.2c-0.2,0.1-0.5,0.1-0.8,0.2s-0.6,0.1-1,0.1c-0.6,0-1.1-0.1-1.5-0.2c-0.4-0.2-0.8-0.4-1-0.6
		c-0.3-0.3-0.5-0.6-0.6-0.9C343.6,241.2,343.5,240.8,343.5,240.3z"/>
	<path d="M349.8,243.2v-8.1l1.5-0.3v2.7c0.1,0,0.3-0.1,0.4-0.1s0.3-0.1,0.4-0.1c0.4,0,0.8,0.1,1,0.2c0.3,0.1,0.5,0.3,0.7,0.5
		c0.2,0.2,0.3,0.5,0.4,0.8c0.1,0.3,0.1,0.7,0.1,1.1v3.2h-1.5v-3c0-0.5-0.1-0.9-0.2-1.1s-0.3-0.3-0.7-0.3c-0.1,0-0.3,0-0.4,0
		s-0.2,0.1-0.3,0.1v4.3H349.8z"/>
	<path d="M355.8,237.7c0.3-0.1,0.6-0.1,1-0.2c0.4-0.1,0.8-0.1,1.3-0.1c0.4,0,0.8,0.1,1.1,0.2s0.5,0.3,0.7,0.5
		c0.2,0.2,0.3,0.5,0.4,0.8c0.1,0.3,0.1,0.7,0.1,1.1v3.2h-1.5v-3c0-0.5-0.1-0.9-0.2-1.1s-0.4-0.3-0.7-0.3c-0.1,0-0.2,0-0.3,0
		c-0.1,0-0.2,0-0.3,0v4.4h-1.5V237.7z"/>
	<path d="M366.6,242.9c-0.3,0.1-0.6,0.2-0.9,0.3c-0.3,0.1-0.5,0.1-0.7,0.1c-0.4,0-0.7-0.1-1-0.2c-0.3-0.1-0.5-0.3-0.6-0.5
		c-0.2-0.2-0.3-0.5-0.3-0.8s-0.1-0.7-0.1-1v-2.1h-1.6v-1.2h3v3.5c0,0.3,0.1,0.6,0.2,0.8c0.1,0.2,0.3,0.2,0.6,0.2
		c0.1,0,0.3,0,0.5-0.1c0.2,0,0.4-0.1,0.6-0.2L366.6,242.9z M364.4,235.9c0,0.3-0.1,0.5-0.3,0.7c-0.2,0.2-0.4,0.3-0.7,0.3
		s-0.5-0.1-0.7-0.3c-0.2-0.2-0.3-0.4-0.3-0.7c0-0.3,0.1-0.5,0.3-0.7c0.2-0.2,0.4-0.3,0.7-0.3s0.5,0.1,0.7,0.3
		C364.3,235.4,364.4,235.6,364.4,235.9z"/>
	<path d="M367.5,240.3c0-0.4,0.1-0.8,0.2-1.2c0.1-0.4,0.3-0.7,0.6-0.9c0.3-0.3,0.6-0.5,1-0.6c0.4-0.2,0.9-0.2,1.4-0.2
		c0.3,0,0.6,0,0.9,0.1c0.3,0,0.5,0.1,0.8,0.2l-0.3,1.2c-0.2-0.1-0.3-0.1-0.5-0.1s-0.4-0.1-0.8-0.1c-0.4,0-0.6,0-0.9,0.1
		s-0.4,0.2-0.6,0.3c-0.1,0.1-0.2,0.3-0.3,0.5c-0.1,0.2-0.1,0.4-0.1,0.7c0,0.5,0.1,0.9,0.4,1.2s0.8,0.4,1.5,0.4c0.2,0,0.5,0,0.7,0
		c0.3,0,0.5-0.1,0.7-0.2l0.2,1.2c-0.2,0.1-0.5,0.1-0.8,0.2s-0.6,0.1-1,0.1c-0.6,0-1.1-0.1-1.5-0.2c-0.4-0.2-0.8-0.4-1-0.6
		c-0.3-0.3-0.5-0.6-0.6-0.9C367.6,241.2,367.5,240.8,367.5,240.3z"/>
	<path d="M375.9,237.4c0.5,0,0.8,0.1,1.2,0.2c0.3,0.1,0.6,0.3,0.7,0.5c0.2,0.2,0.3,0.4,0.4,0.7c0.1,0.3,0.1,0.6,0.1,1v3.4
		c-0.2,0-0.5,0.1-1,0.2c-0.4,0.1-0.9,0.1-1.4,0.1c-0.4,0-0.7,0-1-0.1c-0.3-0.1-0.5-0.2-0.8-0.3c-0.2-0.1-0.4-0.3-0.5-0.6
		c-0.1-0.2-0.2-0.5-0.2-0.9c0-0.3,0.1-0.6,0.2-0.8c0.1-0.2,0.3-0.4,0.5-0.5c0.2-0.1,0.5-0.2,0.7-0.3c0.3-0.1,0.6-0.1,0.9-0.1
		c0.4,0,0.7,0,1,0.1v-0.2c0-0.3-0.1-0.5-0.3-0.7c-0.2-0.2-0.5-0.3-0.9-0.3c-0.3,0-0.6,0-0.8,0.1s-0.5,0.1-0.6,0.1l-0.2-1.2
		c0.2-0.1,0.4-0.1,0.8-0.2S375.5,237.4,375.9,237.4z M376,242.1c0.2,0,0.3,0,0.5,0c0.2,0,0.3,0,0.4,0v-1.3c-0.1,0-0.2,0-0.3,0
		c-0.1,0-0.3,0-0.4,0c-0.2,0-0.3,0-0.4,0c-0.1,0-0.3,0.1-0.4,0.1c-0.1,0-0.2,0.1-0.3,0.2c-0.1,0.1-0.1,0.2-0.1,0.3
		c0,0.3,0.1,0.4,0.3,0.5C375.5,242.1,375.7,242.1,376,242.1z"/>
	<path d="M384.6,242.9c0,0-0.1,0-0.2,0.1s-0.2,0.1-0.3,0.1c-0.1,0-0.3,0.1-0.5,0.1c-0.2,0-0.4,0-0.7,0c-0.7,0-1.2-0.2-1.5-0.6
		c-0.3-0.4-0.5-1-0.5-1.8v-4.8h-1.6v-1.2h3v6.1c0,0.4,0.1,0.6,0.2,0.8c0.2,0.1,0.3,0.2,0.6,0.2c0.3,0,0.5,0,0.7-0.1
		c0.2-0.1,0.3-0.1,0.4-0.2L384.6,242.9z"/>
	<path d="M348.2,257.4c-0.3,0.1-0.6,0.2-1,0.2c-0.4,0.1-0.8,0.1-1.2,0.1c-0.9,0-1.5-0.3-2-0.8c-0.5-0.5-0.7-1.2-0.7-2.1
		c0-0.9,0.2-1.6,0.6-2.2s0.9-0.8,1.7-0.8c0.2,0,0.4,0,0.6,0.1c0.2,0,0.4,0.1,0.5,0.2v-2.6l1.5-0.3V257.4z M344.9,254.7
		c0,0.5,0.1,0.9,0.3,1.2c0.2,0.3,0.5,0.5,0.9,0.5c0.1,0,0.2,0,0.3,0c0.1,0,0.2,0,0.3,0v-3.1c-0.1-0.1-0.2-0.1-0.4-0.2
		c-0.1,0-0.3-0.1-0.5-0.1c-0.4,0-0.6,0.1-0.8,0.4C344.9,253.8,344.9,254.2,344.9,254.7z"/>
	<path d="M349.4,254.8c0-0.5,0.1-0.9,0.2-1.3c0.2-0.4,0.4-0.7,0.6-0.9c0.2-0.3,0.5-0.4,0.9-0.6c0.3-0.1,0.6-0.2,1-0.2
		c0.8,0,1.5,0.2,1.9,0.7c0.4,0.5,0.6,1.2,0.6,2.2c0,0.1,0,0.2,0,0.3c0,0.1,0,0.2,0,0.3h-3.7c0,0.4,0.2,0.7,0.5,0.9
		c0.3,0.2,0.7,0.3,1.2,0.3c0.3,0,0.6,0,0.8-0.1c0.3-0.1,0.5-0.1,0.7-0.2l0.2,1.3c-0.3,0.1-0.5,0.2-0.8,0.2c-0.3,0.1-0.6,0.1-1,0.1
		c-0.5,0-0.9-0.1-1.3-0.2s-0.7-0.3-1-0.6c-0.3-0.2-0.5-0.5-0.6-0.9C349.5,255.7,349.4,255.3,349.4,254.8z M353.2,254.2
		c0-0.2,0-0.3-0.1-0.4s-0.1-0.3-0.2-0.4c-0.1-0.1-0.2-0.2-0.3-0.3c-0.1-0.1-0.3-0.1-0.5-0.1c-0.2,0-0.4,0-0.5,0.1
		c-0.1,0.1-0.3,0.2-0.3,0.3c-0.1,0.1-0.2,0.2-0.2,0.4c-0.1,0.1-0.1,0.3-0.1,0.4H353.2z"/>
	<path d="M357.8,256.5c0.4,0,0.6,0,0.8-0.1c0.2-0.1,0.3-0.2,0.3-0.3c0-0.1,0-0.2-0.1-0.3c-0.1-0.1-0.1-0.1-0.3-0.2
		c-0.1-0.1-0.2-0.1-0.4-0.2c-0.1,0-0.3-0.1-0.4-0.1c-0.2-0.1-0.4-0.1-0.7-0.2s-0.4-0.2-0.6-0.3c-0.2-0.1-0.3-0.3-0.5-0.5
		c-0.1-0.2-0.2-0.4-0.2-0.7c0-0.2,0-0.5,0.1-0.7s0.2-0.4,0.4-0.6c0.2-0.2,0.4-0.3,0.8-0.4c0.3-0.1,0.7-0.1,1.1-0.1
		c0.4,0,0.7,0,1,0.1c0.3,0.1,0.6,0.1,0.8,0.2l-0.2,1.2c-0.1,0-0.3-0.1-0.6-0.2c-0.3-0.1-0.6-0.1-1-0.1c-0.4,0-0.6,0-0.8,0.1
		s-0.2,0.2-0.2,0.3c0,0.1,0,0.2,0.1,0.2c0.1,0.1,0.1,0.1,0.2,0.2c0.1,0.1,0.2,0.1,0.3,0.2c0.1,0.1,0.3,0.1,0.4,0.2
		c0.2,0.1,0.4,0.2,0.7,0.2c0.2,0.1,0.4,0.2,0.6,0.3c0.2,0.1,0.3,0.3,0.5,0.5c0.1,0.2,0.2,0.5,0.2,0.7c0,0.2,0,0.5-0.1,0.7
		c-0.1,0.2-0.2,0.4-0.4,0.5c-0.2,0.2-0.5,0.3-0.8,0.4s-0.7,0.1-1.2,0.1c-0.5,0-0.9-0.1-1.2-0.2c-0.3-0.1-0.6-0.2-0.8-0.3l0.2-1.2
		c0.3,0.1,0.6,0.2,0.9,0.3C357.1,256.4,357.4,256.5,357.8,256.5z"/>
	<path d="M366.6,257.3c-0.3,0.1-0.6,0.2-0.9,0.3c-0.3,0.1-0.5,0.1-0.7,0.1c-0.4,0-0.7-0.1-1-0.2c-0.3-0.1-0.5-0.3-0.6-0.5
		c-0.2-0.2-0.3-0.5-0.3-0.8c-0.1-0.3-0.1-0.7-0.1-1v-2.1h-1.6v-1.2h3v3.5c0,0.3,0.1,0.6,0.2,0.7c0.1,0.2,0.3,0.2,0.6,0.2
		c0.1,0,0.3,0,0.5-0.1c0.2,0,0.4-0.1,0.6-0.2L366.6,257.3z M364.4,250.3c0,0.3-0.1,0.5-0.3,0.7c-0.2,0.2-0.4,0.3-0.7,0.3
		s-0.5-0.1-0.7-0.3c-0.2-0.2-0.3-0.4-0.3-0.7c0-0.3,0.1-0.5,0.3-0.7c0.2-0.2,0.4-0.3,0.7-0.3s0.5,0.1,0.7,0.3
		C364.3,249.8,364.4,250,364.4,250.3z"/>
	<path d="M372.3,256.9c0,0.9-0.2,1.6-0.7,2c-0.4,0.4-1.2,0.7-2.1,0.7c-0.4,0-0.7,0-1-0.1c-0.3-0.1-0.6-0.2-0.9-0.3l0.3-1.2
		c0.2,0.1,0.5,0.2,0.7,0.2c0.3,0.1,0.6,0.1,1,0.1c0.3,0,0.5,0,0.6-0.1c0.2-0.1,0.3-0.1,0.4-0.2c0.1-0.1,0.2-0.2,0.2-0.4
		c0-0.1,0.1-0.3,0.1-0.5V257c-0.2,0.1-0.4,0.1-0.6,0.2c-0.2,0-0.4,0.1-0.6,0.1c-0.7,0-1.3-0.2-1.7-0.7c-0.4-0.5-0.6-1.1-0.6-1.9
		c0-0.9,0.3-1.6,0.8-2.1s1.2-0.7,2.1-0.7c0.6,0,1.3,0.1,2,0.3V256.9z M368.9,254.6c0,0.5,0.1,0.8,0.3,1.1c0.2,0.2,0.4,0.4,0.8,0.4
		c0.2,0,0.3,0,0.4-0.1c0.1,0,0.3-0.1,0.4-0.2v-2.7c-0.1,0-0.2,0-0.3,0s-0.2,0-0.3,0C369.3,253,368.9,253.5,368.9,254.6z"/>
	<path d="M373.8,252.1c0.3-0.1,0.6-0.1,1-0.2c0.4-0.1,0.8-0.1,1.3-0.1c0.4,0,0.8,0.1,1.1,0.2s0.5,0.3,0.7,0.5
		c0.2,0.2,0.3,0.5,0.4,0.8c0.1,0.3,0.1,0.7,0.1,1.1v3.2h-1.5v-3c0-0.5-0.1-0.9-0.2-1.1s-0.4-0.3-0.7-0.3c-0.1,0-0.2,0-0.3,0
		c-0.1,0-0.2,0-0.3,0v4.4h-1.5V252.1z"/>
</g>
<g>
	<g>
		<g>
			<path class="st10" d="M375.2,227.3c-0.1,0-0.2,0-0.4,0l-31.2-6.4c-1-0.2-1.6-1.2-1.4-2.1l8.4-41.2c0.2-0.8,0.9-1.5,1.8-1.5
				c0.1,0,0.2,0,0.4,0l31.1,6.4c0.5,0.1,0.9,0.4,1.2,0.8c0.3,0.4,0.4,0.9,0.3,1.4l-8.4,41.2C376.8,226.7,376,227.3,375.2,227.3z"/>
			<path d="M352.5,177.6C352.5,177.6,352.5,177.6,352.5,177.6l31.2,6.4c0.1,0,0.2,0.1,0.2,0.1c0,0.1,0.1,0.2,0,0.2l-8.4,41.2
				c0,0.2-0.2,0.3-0.3,0.3c0,0,0,0-0.1,0l-31.2-6.4c-0.2,0-0.3-0.2-0.2-0.4l8.4-41.2C352.2,177.7,352.3,177.6,352.5,177.6
				 M352.5,174.6c-1.5,0-2.9,1.1-3.2,2.6l-8.4,41.2c-0.4,1.8,0.8,3.5,2.6,3.9l31.2,6.4c0.2,0,0.4,0.1,0.7,0.1c1.5,0,2.9-1.1,3.2-2.6
				l8.4-41.2c0.4-1.8-0.8-3.5-2.6-3.9l-31.2-6.4C352.9,174.6,352.7,174.6,352.5,174.6L352.5,174.6z"/>
		</g>
		<g>
			<g>
				<path class="st10" d="M375.3,189.2c-0.1,0-0.3,0-0.4,0c-1-0.2-1.6-1.1-1.4-2c0.2-0.8,0.9-1.3,1.7-1.3c0.1,0,0.3,0,0.4,0
					c1,0.2,1.6,1.1,1.4,2C376.8,188.7,376.1,189.2,375.3,189.2z"/>
				<path d="M375.2,186.9L375.2,186.9c0.1,0,0.1,0,0.2,0c0.4,0.1,0.7,0.5,0.6,0.8c-0.1,0.3-0.4,0.5-0.7,0.5c-0.1,0-0.1,0-0.2,0
					c-0.3-0.1-0.4-0.2-0.5-0.3c-0.1-0.1-0.1-0.3-0.1-0.5C374.5,187.1,374.8,186.9,375.2,186.9 M375.2,184.9c-1.3,0-2.4,0.9-2.7,2.1
					c-0.3,1.4,0.7,2.9,2.2,3.2c0.2,0,0.4,0.1,0.6,0.1c1.3,0,2.4-0.9,2.7-2.1c0.3-1.4-0.7-2.9-2.2-3.2
					C375.6,184.9,375.4,184.9,375.2,184.9L375.2,184.9z"/>
			</g>
			<path class="st11" d="M369.6,194.1c0.6-2.8,2.9-4.6,5.2-4.1s3.7,3.1,3.1,5.9"/>
		</g>
		<line class="st11" x1="362.9" y1="198.2" x2="377.5" y2="201.2"/>
		<line class="st11" x1="361.6" y1="201.9" x2="376.2" y2="204.9"/>
		<line class="st11" x1="359.7" y1="208.9" x2="374.2" y2="211.9"/>
		<line class="st11" x1="359.7" y1="204.9" x2="374.2" y2="207.8"/>
		<line class="st11" x1="360.1" y1="212.8" x2="374.6" y2="215.7"/>
	</g>
	<g>
		<polygon class="st12" points="337.1,173.8 334.9,176 337.1,176 		"/>
		<path class="st10" d="M339.9,176c0,0.7-0.3,1.5-0.8,2c-0.5,0.5-1.2,0.8-2,0.8h-2.5V221h32v-47.6h-26.7V176z"/>
		<path class="st10" d="M369.3,221.2L369.3,221.2c0,0.2,0,0.3-0.1,0.5C369.3,221.6,369.3,221.4,369.3,221.2z"/>
		<path class="st10" d="M334.3,225.6c-2.4,0-4.4-2-4.4-4.4v-45.3l-0.1-0.7l0.1-0.1v-1.1h1l4.4-4.8v-0.6l1.9,0h29.7
			c2.4,0,4.4,2,4.4,4.4v48.1c0,0.3,0,0.6-0.1,0.9c-0.1,0.3-0.1,0.6-0.3,0.8c-0.2,0.5-0.5,1-1,1.4c-0.2,0.2-0.4,0.4-0.7,0.5
			c-0.7,0.5-1.6,0.8-2.5,0.8H334.3z M364.6,219.1v-43.8h-22.9v0.7c0,1.3-0.5,2.4-1.4,3.3c-0.9,0.9-2.1,1.4-3.3,1.4h-0.6v38.4H364.6z
			"/>
		<path d="M366.8,170.5h-29.7v0c-0.2,0-0.3,0-0.5,0l-4.8,5.3c0,0,0,0.1,0,0.1h0v45.2c0,1.4,1.1,2.6,2.6,2.6h32.5
			c0.5,0,1-0.2,1.4-0.4c0.1-0.1,0.3-0.2,0.4-0.3c0.2-0.2,0.4-0.5,0.5-0.8c0.1-0.2,0.1-0.3,0.1-0.5c0-0.2,0.1-0.3,0.1-0.5v-48.1
			C369.3,171.7,368.2,170.5,366.8,170.5z M337.1,173.8v2.2h-2.2L337.1,173.8z M366.5,221h-32v-42.2h2.5c0.7,0,1.5-0.3,2-0.8
			c0.5-0.5,0.8-1.2,0.8-2v-2.6h26.7V221z"/>
	</g>
	<g>
		<g>
			<path d="M354.4,178.7v1.1h-6.2v-1.1H354.4 M355.1,176.7h-7.7c-0.7,0-1.3,0.6-1.3,1.3v2.6c0,0.7,0.6,1.3,1.3,1.3h7.7
				c0.7,0,1.3-0.6,1.3-1.3V178C356.4,177.3,355.8,176.7,355.1,176.7L355.1,176.7z"/>
		</g>
		<g>
			<path d="M344.1,187.2v1.1h-2.8v-1.1H344.1 M345.1,185.2h-4.7c-0.6,0-1,0.5-1,1v3c0,0.6,0.5,1,1,1h4.7c0.6,0,1-0.5,1-1v-3
				C346.1,185.7,345.7,185.2,345.1,185.2L345.1,185.2z"/>
		</g>
		<g>
			<path d="M344.1,195.8v1.1h-2.8v-1.1H344.1 M345.1,193.8h-4.7c-0.6,0-1,0.5-1,1v3c0,0.6,0.5,1,1,1h4.7c0.6,0,1-0.5,1-1v-3
				C346.1,194.2,345.7,193.8,345.1,193.8L345.1,193.8z"/>
		</g>
		<g>
			<path d="M342.4,204.3v2h-2.8v-2H342.4 M343.3,202.3h-4.6c-0.6,0-1.1,0.5-1.1,1.1v3.7c0,0.6,0.5,1.1,1.1,1.1h4.6
				c0.6,0,1.1-0.5,1.1-1.1v-3.7C344.4,202.8,343.9,202.3,343.3,202.3L343.3,202.3z"/>
		</g>
		<g>
			<path d="M351.8,204.3v2H349v-2H351.8 M352.7,202.3h-4.6c-0.6,0-1.1,0.5-1.1,1.1v3.7c0,0.6,0.5,1.1,1.1,1.1h4.6
				c0.6,0,1.1-0.5,1.1-1.1v-3.7C353.8,202.8,353.3,202.3,352.7,202.3L352.7,202.3z"/>
		</g>
		<g>
			<path d="M361.2,204.3v2h-2.8v-2H361.2 M362.1,202.3h-4.6c-0.6,0-1.1,0.5-1.1,1.1v3.7c0,0.6,0.5,1.1,1.1,1.1h4.6
				c0.6,0,1.1-0.5,1.1-1.1v-3.7C363.2,202.8,362.7,202.3,362.1,202.3L362.1,202.3z"/>
		</g>
		<g>
			<path d="M360.4,195.8v1.1H355v-1.1H360.4 M361.1,193.8h-6.9c-0.7,0-1.2,0.6-1.2,1.2v2.7c0,0.7,0.6,1.2,1.2,1.2h6.9
				c0.7,0,1.2-0.6,1.2-1.2V195C362.4,194.3,361.8,193.8,361.1,193.8L361.1,193.8z"/>
		</g>
		<g>
			<path d="M360.4,187.2v1.1h-2.8v-1.1H360.4 M361.3,185.2h-4.7c-0.6,0-1,0.5-1,1v3c0,0.6,0.5,1,1,1h4.7c0.6,0,1-0.5,1-1v-3
				C362.4,185.7,361.9,185.2,361.3,185.2L361.3,185.2z"/>
		</g>
		<polyline class="st1" points="355.5,179.2 358.9,179.2 358.9,186.1 		"/>
		<polyline class="st1" points="347,179.2 342.7,179.2 342.7,186.1 		"/>
		<polyline class="st1" points="345.4,187.8 350.4,187.8 350.4,196.3 353,196.3 		"/>
		<line class="st1" x1="342.7" y1="190.3" x2="342.7" y2="194.6"/>
		<line class="st11" x1="350.4" y1="196.3" x2="350.4" y2="203.1"/>
		<line class="st11" x1="353.4" y1="205.3" x2="356.8" y2="205.3"/>
		<line class="st11" x1="347.4" y1="205.3" x2="344" y2="205.3"/>
		<g>
			<path d="M342.4,214.5v1.1h-2.8v-1.1H342.4 M343.4,212.5h-4.7c-0.6,0-1,0.5-1,1v3c0,0.6,0.5,1,1,1h4.7c0.6,0,1-0.5,1-1v-3
				C344.4,213,344,212.5,343.4,212.5L343.4,212.5z"/>
		</g>
		<line class="st9" x1="341" y1="207.4" x2="341" y2="213.4"/>
	</g>
</g>
<g>
	<g>
		<path d="M254.9,94.6c0,0.6-0.1,1.1-0.2,1.5s-0.3,0.7-0.6,1c-0.3,0.3-0.6,0.4-0.9,0.6c-0.3,0.1-0.7,0.2-1.2,0.2c-0.2,0-0.4,0-0.6,0
			s-0.4-0.1-0.7-0.1v-6c0.3-0.1,0.5-0.1,0.8-0.1c0.2,0,0.5,0,0.7,0c0.4,0,0.8,0.1,1.1,0.2s0.6,0.3,0.9,0.6s0.4,0.6,0.5,1
			S254.9,94,254.9,94.6z M252,96.7c0,0,0.1,0,0.1,0s0.1,0,0.1,0c0.3,0,0.5-0.1,0.7-0.2c0.2-0.1,0.3-0.3,0.5-0.4
			c0.1-0.2,0.2-0.4,0.3-0.7s0.1-0.5,0.1-0.8c0-0.3,0-0.5-0.1-0.8s-0.1-0.5-0.2-0.7s-0.2-0.3-0.4-0.5c-0.2-0.1-0.4-0.2-0.7-0.2
			c-0.1,0-0.1,0-0.2,0c-0.1,0-0.1,0-0.2,0V96.7z"/>
		<path d="M259.9,97.5c-0.3,0.1-0.5,0.2-0.7,0.2s-0.4,0.1-0.6,0.1c-0.3,0-0.6,0-0.8-0.1c-0.2-0.1-0.4-0.2-0.5-0.4s-0.2-0.4-0.3-0.6
			c-0.1-0.3-0.1-0.5-0.1-0.9V94h-1.3v-1h2.5v2.9c0,0.3,0.1,0.5,0.2,0.6s0.3,0.2,0.5,0.2c0.1,0,0.3,0,0.4,0s0.3-0.1,0.5-0.2
			L259.9,97.5z M258,91.6c0,0.2-0.1,0.4-0.2,0.6c-0.2,0.1-0.3,0.2-0.6,0.2c-0.2,0-0.4-0.1-0.5-0.2c-0.1-0.1-0.2-0.3-0.2-0.6
			c0-0.2,0.1-0.4,0.2-0.6c0.2-0.1,0.3-0.2,0.5-0.2c0.2,0,0.4,0.1,0.6,0.2S258,91.4,258,91.6z"/>
		<path d="M262.5,96.7c0.3,0,0.5,0,0.7-0.1c0.2,0,0.2-0.1,0.2-0.3c0-0.1,0-0.2-0.1-0.2c0-0.1-0.1-0.1-0.2-0.2
			c-0.1,0-0.2-0.1-0.3-0.1c-0.1,0-0.2-0.1-0.4-0.1c-0.2-0.1-0.4-0.1-0.5-0.2c-0.2-0.1-0.4-0.2-0.5-0.3c-0.2-0.1-0.3-0.2-0.4-0.4
			c-0.1-0.2-0.1-0.4-0.1-0.6c0-0.2,0-0.4,0.1-0.6c0.1-0.2,0.2-0.3,0.4-0.5s0.4-0.2,0.6-0.3c0.3-0.1,0.6-0.1,0.9-0.1
			c0.3,0,0.6,0,0.9,0.1c0.3,0,0.5,0.1,0.7,0.2l-0.2,1c-0.1,0-0.3-0.1-0.5-0.2c-0.2-0.1-0.5-0.1-0.8-0.1c-0.3,0-0.5,0-0.6,0.1
			c-0.1,0.1-0.2,0.2-0.2,0.2c0,0.1,0,0.1,0.1,0.2s0.1,0.1,0.2,0.2c0.1,0,0.2,0.1,0.3,0.1c0.1,0,0.2,0.1,0.4,0.1
			c0.2,0.1,0.4,0.1,0.6,0.2s0.4,0.2,0.5,0.3c0.2,0.1,0.3,0.3,0.4,0.4c0.1,0.2,0.2,0.4,0.2,0.6c0,0.2,0,0.4-0.1,0.5
			c-0.1,0.2-0.2,0.3-0.4,0.5s-0.4,0.2-0.7,0.3s-0.6,0.1-1,0.1c-0.4,0-0.8,0-1-0.1c-0.3-0.1-0.5-0.2-0.7-0.3l0.2-1
			c0.2,0.1,0.5,0.2,0.7,0.3C261.9,96.7,262.2,96.7,262.5,96.7z"/>
		<path d="M265.6,95.3c0-0.3,0.1-0.7,0.2-1c0.1-0.3,0.3-0.6,0.5-0.8s0.5-0.4,0.8-0.5s0.7-0.2,1.2-0.2c0.3,0,0.5,0,0.8,0.1
			s0.5,0.1,0.7,0.2l-0.3,1c-0.1,0-0.3-0.1-0.4-0.1c-0.2,0-0.4-0.1-0.6-0.1c-0.3,0-0.5,0-0.7,0.1c-0.2,0.1-0.4,0.2-0.5,0.3
			c-0.1,0.1-0.2,0.3-0.3,0.4c-0.1,0.2-0.1,0.4-0.1,0.6c0,0.4,0.1,0.8,0.4,1c0.2,0.2,0.7,0.4,1.2,0.4c0.2,0,0.4,0,0.6,0
			s0.4-0.1,0.6-0.1l0.2,1c-0.2,0.1-0.4,0.1-0.6,0.2c-0.2,0-0.5,0.1-0.9,0.1c-0.5,0-0.9-0.1-1.2-0.2c-0.3-0.1-0.6-0.3-0.8-0.5
			c-0.2-0.2-0.4-0.5-0.5-0.8S265.6,95.7,265.6,95.3z"/>
		<path d="M274.6,97.5c-0.2,0.1-0.5,0.1-0.8,0.2c-0.3,0.1-0.7,0.1-1.1,0.1c-0.4,0-0.7-0.1-1-0.2c-0.2-0.1-0.4-0.3-0.6-0.5
			s-0.2-0.4-0.3-0.7s-0.1-0.6-0.1-0.9V93h1.2v2.5c0,0.4,0.1,0.8,0.2,1s0.3,0.3,0.6,0.3c0.2,0,0.4,0,0.6,0V93h1.2V97.5z"/>
		<path d="M277.5,96.7c0.3,0,0.5,0,0.7-0.1c0.2,0,0.2-0.1,0.2-0.3c0-0.1,0-0.2-0.1-0.2c0-0.1-0.1-0.1-0.2-0.2
			c-0.1,0-0.2-0.1-0.3-0.1c-0.1,0-0.2-0.1-0.4-0.1c-0.2-0.1-0.4-0.1-0.5-0.2c-0.2-0.1-0.4-0.2-0.5-0.3c-0.2-0.1-0.3-0.2-0.4-0.4
			c-0.1-0.2-0.1-0.4-0.1-0.6c0-0.2,0-0.4,0.1-0.6c0.1-0.2,0.2-0.3,0.4-0.5s0.4-0.2,0.6-0.3c0.3-0.1,0.6-0.1,0.9-0.1
			c0.3,0,0.6,0,0.9,0.1c0.3,0,0.5,0.1,0.7,0.2l-0.2,1c-0.1,0-0.3-0.1-0.5-0.2c-0.2-0.1-0.5-0.1-0.8-0.1c-0.3,0-0.5,0-0.6,0.1
			c-0.1,0.1-0.2,0.2-0.2,0.2c0,0.1,0,0.1,0.1,0.2s0.1,0.1,0.2,0.2c0.1,0,0.2,0.1,0.3,0.1c0.1,0,0.2,0.1,0.4,0.1
			c0.2,0.1,0.4,0.1,0.6,0.2s0.4,0.2,0.5,0.3c0.2,0.1,0.3,0.3,0.4,0.4c0.1,0.2,0.2,0.4,0.2,0.6c0,0.2,0,0.4-0.1,0.5
			c-0.1,0.2-0.2,0.3-0.4,0.5s-0.4,0.2-0.7,0.3s-0.6,0.1-1,0.1c-0.4,0-0.8,0-1-0.1c-0.3-0.1-0.5-0.2-0.7-0.3l0.2-1
			c0.2,0.1,0.5,0.2,0.7,0.3C276.9,96.7,277.2,96.7,277.5,96.7z"/>
		<path d="M282.5,96.7c0.3,0,0.5,0,0.7-0.1c0.2,0,0.2-0.1,0.2-0.3c0-0.1,0-0.2-0.1-0.2c0-0.1-0.1-0.1-0.2-0.2
			c-0.1,0-0.2-0.1-0.3-0.1c-0.1,0-0.2-0.1-0.4-0.1c-0.2-0.1-0.4-0.1-0.5-0.2c-0.2-0.1-0.4-0.2-0.5-0.3c-0.2-0.1-0.3-0.2-0.4-0.4
			c-0.1-0.2-0.1-0.4-0.1-0.6c0-0.2,0-0.4,0.1-0.6c0.1-0.2,0.2-0.3,0.4-0.5s0.4-0.2,0.6-0.3c0.3-0.1,0.6-0.1,0.9-0.1
			c0.3,0,0.6,0,0.9,0.1c0.3,0,0.5,0.1,0.7,0.2l-0.2,1c-0.1,0-0.3-0.1-0.5-0.2c-0.2-0.1-0.5-0.1-0.8-0.1c-0.3,0-0.5,0-0.6,0.1
			c-0.1,0.1-0.2,0.2-0.2,0.2c0,0.1,0,0.1,0.1,0.2s0.1,0.1,0.2,0.2c0.1,0,0.2,0.1,0.3,0.1c0.1,0,0.2,0.1,0.4,0.1
			c0.2,0.1,0.4,0.1,0.6,0.2s0.4,0.2,0.5,0.3c0.2,0.1,0.3,0.3,0.4,0.4c0.1,0.2,0.2,0.4,0.2,0.6c0,0.2,0,0.4-0.1,0.5
			c-0.1,0.2-0.2,0.3-0.4,0.5s-0.4,0.2-0.7,0.3s-0.6,0.1-1,0.1c-0.4,0-0.8,0-1-0.1c-0.3-0.1-0.5-0.2-0.7-0.3l0.2-1
			c0.2,0.1,0.5,0.2,0.7,0.3C281.9,96.7,282.2,96.7,282.5,96.7z"/>
		<path d="M289.9,97.5c-0.3,0.1-0.5,0.2-0.7,0.2s-0.4,0.1-0.6,0.1c-0.3,0-0.6,0-0.8-0.1c-0.2-0.1-0.4-0.2-0.5-0.4s-0.2-0.4-0.3-0.6
			c-0.1-0.3-0.1-0.5-0.1-0.9V94h-1.3v-1h2.5v2.9c0,0.3,0.1,0.5,0.2,0.6s0.3,0.2,0.5,0.2c0.1,0,0.3,0,0.4,0s0.3-0.1,0.5-0.2
			L289.9,97.5z M288,91.6c0,0.2-0.1,0.4-0.2,0.6c-0.2,0.1-0.3,0.2-0.6,0.2c-0.2,0-0.4-0.1-0.5-0.2c-0.1-0.1-0.2-0.3-0.2-0.6
			c0-0.2,0.1-0.4,0.2-0.6c0.2-0.1,0.3-0.2,0.5-0.2c0.2,0,0.4,0.1,0.6,0.2S288,91.4,288,91.6z"/>
		<path d="M294.9,95.3c0,0.4-0.1,0.7-0.2,1c-0.1,0.3-0.3,0.6-0.4,0.8c-0.2,0.2-0.4,0.4-0.7,0.5c-0.3,0.1-0.6,0.2-0.9,0.2
			c-0.3,0-0.6-0.1-0.9-0.2c-0.3-0.1-0.5-0.3-0.7-0.5c-0.2-0.2-0.3-0.5-0.5-0.8c-0.1-0.3-0.2-0.6-0.2-1c0-0.4,0.1-0.7,0.2-1
			c0.1-0.3,0.3-0.6,0.5-0.8c0.2-0.2,0.4-0.4,0.7-0.5c0.3-0.1,0.6-0.2,0.9-0.2c0.3,0,0.6,0.1,0.9,0.2c0.3,0.1,0.5,0.3,0.7,0.5
			c0.2,0.2,0.3,0.5,0.5,0.8C294.9,94.6,294.9,94.9,294.9,95.3z M291.7,95.3c0,0.4,0.1,0.8,0.2,1c0.2,0.3,0.4,0.4,0.7,0.4
			c0.3,0,0.6-0.1,0.7-0.4s0.2-0.6,0.2-1s-0.1-0.8-0.2-1c-0.2-0.3-0.4-0.4-0.7-0.4c-0.3,0-0.6,0.1-0.7,0.4
			C291.8,94.6,291.7,94.9,291.7,95.3z"/>
		<path d="M295.8,93.1c0.2-0.1,0.5-0.1,0.8-0.2c0.3-0.1,0.7-0.1,1.1-0.1c0.4,0,0.7,0.1,0.9,0.2c0.2,0.1,0.4,0.3,0.6,0.4
			c0.1,0.2,0.2,0.4,0.3,0.7c0.1,0.3,0.1,0.6,0.1,0.9v2.7h-1.2v-2.5c0-0.4,0-0.8-0.1-1c-0.1-0.2-0.3-0.3-0.6-0.3c-0.1,0-0.2,0-0.3,0
			c-0.1,0-0.2,0-0.3,0v3.7h-1.2V93.1z"/>
	</g>
</g>
<g>
	<ellipse transform="matrix(0.9624 -0.2717 0.2717 0.9624 -13.5902 10.3299)" class="st5" cx="30.5" cy="54.2" rx="5.1" ry="5.1"/>
	<path class="st2" d="M40.3,37.4c-1.2-0.7-2.5-1.3-3.8-1.7l-4,5.5c-1.2-0.2-2.5-0.2-3.8,0l-4-5.5c-1.4,0.4-2.6,1-3.8,1.7l1.8,6.4
		c-1.2,0.9-2.2,2-3.1,3.3l-6.9-0.3c-0.5,1.2-0.9,2.4-1.1,3.7l6,2.5c-0.2,1.6,0,3.3,0.4,4.9c0.1,0.4,0.2,0.7,0.4,1.1l-4.5,5.1
		c0.6,1,1.2,1.9,1.9,2.8l5.7-3.1c1.8,1.7,4,2.9,6.4,3.4l1.2,6.5c1,0.1,2.1,0.1,3.2,0l1.2-6.5c0.3-0.1,0.6-0.1,0.8-0.2
		c2.2-0.6,4.1-1.8,5.6-3.2"/>
	<path class="st2" d="M38.5,43.7"/>
	<path class="st2" d="M43.7,52.9"/>
</g>
<path class="st10" d="M49.2,78.5c-8.2,0-12.4-9.4-13.9-13.5c-1.1-0.5-1.9-1.4-2.5-2.5c-0.5-0.9-1.8-3.7-0.4-6
	c0.2-0.4,0.5-0.7,0.8-0.9v-5.9c0-0.5,0.1-1,0.4-1.4c0.5-0.9,5-9,11.6-11.4c1.9-0.7,3.4-1,4.8-1c1.5,0,2.7,0.4,3.6,1.3
	c0.4,0.4,0.7,0.8,1,1.3c4.4,1,7.8,4.4,9.4,7.1c2.3,3.8,2.1,8.9,1.9,10.7c0.1,0.1,0.2,0.2,0.2,0.3c1.4,2.3,0,5.1-0.4,6
	c-0.6,1.1-1.4,2-2.5,2.5c-1.5,4.1-5.7,13.5-13.9,13.5H49.2z M40.3,61c0.1,0.2,0.2,0.5,0.3,0.7c0.8,3,4.1,10.7,8.6,10.7h0.3
	c4.6,0,7.8-7.8,8.6-10.7c0.1-0.3,0.2-0.5,0.3-0.7c-0.4-0.2-0.7-0.4-1-0.7c-0.6-0.6-0.9-1.3-0.9-2.2l0-0.2v-3.5
	c-1.6-0.5-3.4-1.2-5-2.4c-3.1,1.7-6.9,2.6-9.5,3v3.1C42.1,59.4,41.4,60.5,40.3,61C40.3,61,40.3,61,40.3,61z M49.2,41.8
	c-0.4,0.1-1,0.3-1.8,0.6c-3.2,1.2-6,4.9-7.4,7c2.9-0.4,7.8-1.5,10.2-3.5l0.2-0.2l0.1-0.1c0.1-0.1,0.2-0.1,0.3-0.2l0.3-0.1l0.2,0
	c0.1,0,0.3-0.1,0.4-0.1c0.2,0,0.3,0,0.5,0c0,0,0,0,0,0c0.2,0,0.5,0,0.6,0.1c0.2,0,0.3,0.1,0.5,0.2c0.2,0.1,0.3,0.2,0.5,0.3
	c0.1,0.1,0.2,0.1,0.3,0.2l0.1,0.1l0.2,0.2c0.1,0.1,0.2,0.2,0.2,0.3c0.1,0.1,0.1,0.2,0.2,0.3c0.3,0.7,2.4,1.7,4.5,2.2
	c-0.1-0.2-0.2-0.3-0.3-0.5c-1.4-2.3-4.2-4.5-6.9-4.5c-0.9,0-1.8-0.4-2.4-1.2C49.4,42.5,49.3,42.1,49.2,41.8z"/>
<path d="M64.5,57.5c-0.1-0.2-0.4-0.5-0.7-0.7c0.1-0.1,0.1-0.2,0.1-0.4c0-0.2,0.7-6.1-1.6-10c-1.8-3-5.3-6-9.3-6.4
	c-0.1-0.6-0.3-1.1-0.8-1.6c-1.2-1.1-3.2-1-6.4,0.2c-6,2.3-10.4,10.2-10.6,10.5c-0.1,0.1-0.1,0.3-0.1,0.5v7.1
	c-0.6,0.2-0.9,0.5-1.1,0.9c-0.6,0.9-0.4,2.2,0.5,4c0.6,1.1,1.5,1.7,2.3,1.9c0.9,2.7,4.7,13,12.3,13h0.3c7.6,0,11.4-10.4,12.3-13.1
	c0.8-0.2,1.7-0.7,2.3-1.9C64.9,59.7,65.1,58.4,64.5,57.5z M46.7,40.5c3.3-1.2,4.2-0.7,4.3-0.6c0.3,0.2,0.1,0.8,0.1,0.8
	c-0.1,0.3,0,0.6,0.2,0.9c0.2,0.2,0.5,0.4,0.8,0.4c3.6,0,7,2.9,8.6,5.5c1.9,3.2,1.3,8.7,1.3,8.7c0,0.1,0,0.2,0,0.3
	c-0.6,0-1,0.1-1.4,0.2v-4.6c0-0.5-0.3-0.9-0.8-1c-1.4-0.3-5.8-1.4-6.8-3.4c0,0,0-0.1-0.1-0.1c0,0,0-0.1-0.1-0.1c0,0,0,0-0.1-0.1
	c0,0-0.1-0.1-0.2-0.1c-0.1,0-0.1-0.1-0.2-0.1c-0.1,0-0.1,0-0.2-0.1c-0.1,0-0.1,0-0.2,0c-0.1,0-0.1,0-0.2,0c-0.1,0-0.1,0-0.2,0.1
	c0,0-0.1,0-0.1,0c0,0-0.1,0-0.1,0.1c0,0-0.1,0-0.1,0.1c-4,3.3-12.3,4.1-12.4,4.1c-0.5,0-0.9,0.5-0.9,1v4.2c-0.3-0.1-0.5-0.1-0.9-0.1
	v-6.7C38,48.6,41.8,42.3,46.7,40.5z M62.2,60.6c-0.4,0.8-1.2,0.9-1.3,0.9c-0.4,0-0.8,0.3-1,0.7c0,0.1-3.5,12.2-10.5,12.2h-0.3
	c-7.1,0-10.5-12.1-10.5-12.2c-0.1-0.4-0.5-0.7-0.9-0.7c-0.1,0-0.9-0.1-1.3-0.9c-0.7-1.4-0.6-2-0.6-2.1c0,0,0.1-0.1,0.4-0.1
	c1.6,0,2.2,0.4,2.2,0.4c0,0,0,0,0,0c0.3,0.3,0.7,0.4,1.1,0.2c0.4-0.2,0.6-0.5,0.6-0.9v-4.9c2.2-0.3,7.9-1.2,11.7-3.8
	c1.7,2,5.1,3,6.7,3.4V58c0,0,0,0.1,0,0.1c0,0.3,0,0.6,0.3,0.9c0.4,0.4,1,0.4,1.4,0c0,0,0.6-0.5,2.2-0.5c0.3,0,0.4,0.1,0.4,0.1
	C62.9,58.7,62.9,59.3,62.2,60.6z"/>
<g>
	<path d="M21.8,92.1c0.2,0,0.5,0,0.6-0.1c0.2-0.1,0.3-0.1,0.4-0.2s0.2-0.2,0.2-0.3c0-0.1,0.1-0.2,0.1-0.4c0-0.2,0-0.3-0.1-0.4
		s-0.2-0.2-0.3-0.3c-0.1-0.1-0.3-0.2-0.5-0.3s-0.3-0.1-0.5-0.2c-0.2-0.1-0.5-0.2-0.7-0.3s-0.5-0.2-0.7-0.4c-0.2-0.2-0.4-0.4-0.5-0.6
		c-0.1-0.2-0.2-0.5-0.2-0.9c0-0.7,0.2-1.2,0.7-1.6s1.1-0.6,1.9-0.6c0.5,0,0.9,0.1,1.2,0.2c0.3,0.1,0.6,0.2,0.9,0.3l-0.4,1.1
		c-0.2-0.1-0.4-0.2-0.7-0.3s-0.5-0.1-0.8-0.1c-0.8,0-1.2,0.3-1.2,0.9c0,0.1,0,0.3,0.1,0.4c0.1,0.1,0.2,0.2,0.3,0.3s0.3,0.2,0.4,0.2
		c0.2,0.1,0.3,0.1,0.5,0.2c0.2,0.1,0.5,0.2,0.7,0.3c0.3,0.1,0.5,0.3,0.7,0.4s0.4,0.4,0.5,0.7c0.1,0.3,0.2,0.6,0.2,1
		c0,0.7-0.2,1.2-0.7,1.6s-1.1,0.6-2.1,0.6c-0.6,0-1.1-0.1-1.5-0.2s-0.6-0.3-0.8-0.4l0.4-1.2c0.2,0.1,0.5,0.2,0.8,0.4
		C21,92,21.4,92.1,21.8,92.1z"/>
	<path d="M30.3,93c-0.3,0.1-0.6,0.1-1,0.2c-0.4,0.1-0.8,0.1-1.3,0.1c-0.5,0-0.8-0.1-1.1-0.2c-0.3-0.1-0.5-0.3-0.7-0.5
		c-0.2-0.2-0.3-0.5-0.4-0.8c-0.1-0.3-0.1-0.7-0.1-1.1v-3.1h1.5v3c0,0.5,0.1,0.9,0.2,1.2s0.4,0.4,0.7,0.4c0.2,0,0.4,0,0.7-0.1v-4.4
		h1.5V93z"/>
	<path d="M36.6,90.3c0,0.4,0,0.8-0.1,1.2c-0.1,0.4-0.2,0.7-0.4,0.9c-0.2,0.3-0.4,0.5-0.7,0.6c-0.3,0.1-0.6,0.2-1,0.2
		c-0.4,0-0.8-0.1-1.2-0.3v2.1h-1.5v-7.4c0.3-0.1,0.6-0.2,1-0.2c0.4-0.1,0.8-0.1,1.2-0.1c0.9,0,1.5,0.3,2,0.8
		C36.4,88.7,36.6,89.4,36.6,90.3z M35.1,90.4c0-0.5-0.1-0.9-0.3-1.2c-0.2-0.3-0.5-0.5-0.9-0.5c-0.1,0-0.2,0-0.4,0
		c-0.1,0-0.2,0-0.3,0v3.1c0.1,0.1,0.2,0.1,0.4,0.2s0.3,0.1,0.5,0.1c0.4,0,0.6-0.1,0.8-0.4C35.1,91.3,35.1,90.9,35.1,90.4z"/>
	<path d="M42.6,90.3c0,0.4,0,0.8-0.1,1.2c-0.1,0.4-0.2,0.7-0.4,0.9c-0.2,0.3-0.4,0.5-0.7,0.6c-0.3,0.1-0.6,0.2-1,0.2
		c-0.4,0-0.8-0.1-1.2-0.3v2.1h-1.5v-7.4c0.3-0.1,0.6-0.2,1-0.2c0.4-0.1,0.8-0.1,1.2-0.1c0.9,0,1.5,0.3,2,0.8
		C42.4,88.7,42.6,89.4,42.6,90.3z M41.1,90.4c0-0.5-0.1-0.9-0.3-1.2c-0.2-0.3-0.5-0.5-0.9-0.5c-0.1,0-0.2,0-0.4,0
		c-0.1,0-0.2,0-0.3,0v3.1c0.1,0.1,0.2,0.1,0.4,0.2s0.3,0.1,0.5,0.1c0.4,0,0.6-0.1,0.8-0.4C41.1,91.3,41.1,90.9,41.1,90.4z"/>
	<path d="M48.7,90.3c0,0.4-0.1,0.9-0.2,1.2c-0.1,0.4-0.3,0.7-0.5,0.9c-0.2,0.3-0.5,0.5-0.8,0.6c-0.3,0.1-0.7,0.2-1.1,0.2
		c-0.4,0-0.8-0.1-1.1-0.2c-0.3-0.1-0.6-0.3-0.8-0.6s-0.4-0.6-0.5-0.9c-0.1-0.4-0.2-0.8-0.2-1.2c0-0.4,0.1-0.8,0.2-1.2
		s0.3-0.7,0.6-0.9c0.2-0.3,0.5-0.5,0.8-0.6c0.3-0.1,0.7-0.2,1.1-0.2c0.4,0,0.8,0.1,1.1,0.2c0.3,0.1,0.6,0.3,0.8,0.6s0.4,0.6,0.5,0.9
		S48.7,89.9,48.7,90.3z M44.9,90.3c0,0.5,0.1,0.9,0.3,1.2c0.2,0.3,0.5,0.5,0.9,0.5c0.4,0,0.7-0.2,0.9-0.5c0.2-0.3,0.3-0.7,0.3-1.2
		s-0.1-0.9-0.3-1.2c-0.2-0.3-0.5-0.5-0.9-0.5c-0.4,0-0.7,0.2-0.9,0.5C45,89.4,44.9,89.8,44.9,90.3z"/>
	<path d="M54.3,89c-0.1,0-0.2,0-0.3-0.1c-0.1,0-0.3,0-0.4-0.1c-0.1,0-0.3,0-0.4,0c-0.1,0-0.2,0-0.3,0c-0.2,0-0.4,0-0.6,0
		c-0.2,0-0.4,0.1-0.6,0.1v4.2h-1.5v-5.3c0.4-0.1,0.8-0.3,1.2-0.3c0.4-0.1,0.9-0.1,1.4-0.1c0.1,0,0.2,0,0.3,0c0.1,0,0.3,0,0.5,0
		c0.2,0,0.3,0,0.5,0.1s0.3,0.1,0.5,0.1L54.3,89z"/>
	<path d="M56.7,88.8h-1.3v-1.2h1.3v-1.4l1.5-0.2v1.7h2.4v1.2h-2.4V91c0,0.2,0,0.4,0.1,0.5s0.1,0.2,0.2,0.3s0.2,0.1,0.3,0.1
		c0.1,0,0.2,0,0.3,0c0.1,0,0.3,0,0.4,0c0.1,0,0.2,0,0.3,0c0.1,0,0.2,0,0.3-0.1s0.2-0.1,0.4-0.2l0.2,1.3c-0.3,0.1-0.6,0.2-0.9,0.2
		c-0.3,0-0.6,0.1-0.9,0.1c-0.3,0-0.6,0-0.9-0.1s-0.5-0.2-0.7-0.3c-0.2-0.2-0.3-0.4-0.4-0.7c-0.1-0.3-0.1-0.7-0.1-1.1V88.8z"/>
</g>
<g>
	<g>
		<path d="M54.1,138.1v-1h1.3v-4.2h-1.3v-1H58v1h-1.3v4.2H58v1H54.1z"/>
		<path d="M61.9,133.4c0.3,0,0.5,0,0.6,0.1c0.2,0.1,0.3,0.2,0.4,0.4c0.1,0.2,0.2,0.4,0.2,0.6s0,0.5,0,0.9v2.8h-1v-2.9
			c0-0.2,0-0.3,0-0.5s-0.1-0.2-0.1-0.3c0-0.1-0.1-0.1-0.1-0.1c0,0-0.1,0-0.2,0c-0.1,0-0.1,0-0.2,0c-0.1,0-0.1,0-0.2,0.1
			c0,0.1,0,0.3,0.1,0.4c0,0.2,0,0.3,0,0.5v0.9h-1v-1.1c0-0.3,0-0.5-0.1-0.7s-0.2-0.2-0.3-0.2c0,0-0.1,0-0.1,0s-0.1,0-0.2,0v3.7h-1
			v-4.5c0.3-0.1,0.5-0.1,0.8-0.2c0.3,0,0.5-0.1,0.7-0.1c0.2,0,0.3,0,0.5,0.1c0.1,0,0.3,0.1,0.4,0.2c0.1-0.1,0.2-0.1,0.4-0.2
			S61.8,133.4,61.9,133.4z"/>
		<path d="M68.2,135.8c0,0.4,0,0.7-0.1,1c-0.1,0.3-0.2,0.6-0.4,0.8s-0.3,0.4-0.6,0.5s-0.5,0.2-0.8,0.2c-0.3,0-0.6-0.1-1-0.2v1.8
			h-1.2v-6.2c0.2-0.1,0.5-0.1,0.8-0.2c0.3,0,0.7-0.1,1-0.1c0.7,0,1.3,0.2,1.7,0.7C68,134.4,68.2,135,68.2,135.8z M67,135.8
			c0-0.4-0.1-0.8-0.3-1c-0.2-0.3-0.4-0.4-0.8-0.4c-0.1,0-0.2,0-0.3,0c-0.1,0-0.2,0-0.3,0v2.6c0.1,0.1,0.2,0.1,0.3,0.1
			c0.1,0,0.3,0,0.4,0c0.3,0,0.5-0.1,0.7-0.4C66.9,136.6,67,136.2,67,135.8z"/>
		<path d="M72.9,134.7c-0.1,0-0.2,0-0.3-0.1c-0.1,0-0.2,0-0.3-0.1c-0.1,0-0.2,0-0.3,0c-0.1,0-0.2,0-0.3,0c-0.2,0-0.3,0-0.5,0
			c-0.2,0-0.3,0-0.5,0.1v3.5h-1.2v-4.4c0.3-0.1,0.7-0.2,1-0.3c0.3-0.1,0.7-0.1,1.2-0.1c0.1,0,0.2,0,0.3,0c0.1,0,0.3,0,0.4,0
			c0.1,0,0.3,0,0.4,0.1s0.3,0.1,0.4,0.1L72.9,134.7z"/>
		<path d="M78.2,135.7c0,0.4-0.1,0.7-0.2,1c-0.1,0.3-0.3,0.6-0.4,0.8c-0.2,0.2-0.4,0.4-0.7,0.5c-0.3,0.1-0.6,0.2-0.9,0.2
			c-0.3,0-0.6-0.1-0.9-0.2c-0.3-0.1-0.5-0.3-0.7-0.5c-0.2-0.2-0.3-0.5-0.5-0.8c-0.1-0.3-0.2-0.6-0.2-1c0-0.4,0.1-0.7,0.2-1
			c0.1-0.3,0.3-0.6,0.5-0.8c0.2-0.2,0.4-0.4,0.7-0.5c0.3-0.1,0.6-0.2,0.9-0.2c0.3,0,0.6,0.1,0.9,0.2c0.3,0.1,0.5,0.3,0.7,0.5
			c0.2,0.2,0.3,0.5,0.5,0.8C78.2,135,78.2,135.4,78.2,135.7z M75.1,135.8c0,0.4,0.1,0.8,0.2,1c0.2,0.3,0.4,0.4,0.7,0.4
			c0.3,0,0.6-0.1,0.7-0.4s0.2-0.6,0.2-1s-0.1-0.8-0.2-1c-0.2-0.3-0.4-0.4-0.7-0.4c-0.3,0-0.6,0.1-0.7,0.4
			C75.1,135,75.1,135.3,75.1,135.8z"/>
		<path d="M80.5,138.1c-0.3-0.6-0.6-1.3-0.9-2.1c-0.3-0.8-0.6-1.7-0.9-2.6h1.3c0.1,0.3,0.1,0.5,0.2,0.8c0.1,0.3,0.2,0.6,0.3,0.9
			c0.1,0.3,0.2,0.6,0.3,0.8s0.2,0.5,0.3,0.8c0.1-0.2,0.2-0.5,0.3-0.8s0.2-0.6,0.3-0.8s0.2-0.6,0.3-0.9c0.1-0.3,0.2-0.6,0.2-0.8h1.3
			c-0.3,0.9-0.6,1.8-0.9,2.6s-0.7,1.5-1,2.1H80.5z"/>
		<path d="M83.8,135.8c0-0.4,0.1-0.8,0.2-1.1c0.1-0.3,0.3-0.6,0.5-0.8s0.4-0.4,0.7-0.5s0.5-0.2,0.8-0.2c0.7,0,1.2,0.2,1.6,0.6
			c0.4,0.4,0.5,1,0.5,1.8c0,0.1,0,0.2,0,0.3c0,0.1,0,0.2,0,0.2h-3c0,0.3,0.1,0.5,0.4,0.7s0.6,0.3,1,0.3c0.2,0,0.5,0,0.7-0.1
			c0.2-0.1,0.4-0.1,0.6-0.2l0.2,1c-0.2,0.1-0.4,0.1-0.7,0.2s-0.5,0.1-0.8,0.1c-0.4,0-0.8-0.1-1.1-0.2c-0.3-0.1-0.6-0.3-0.8-0.5
			s-0.4-0.5-0.5-0.8S83.8,136.2,83.8,135.8z M87,135.3c0-0.1,0-0.2,0-0.4c0-0.1-0.1-0.2-0.2-0.3c-0.1-0.1-0.2-0.2-0.3-0.2
			s-0.3-0.1-0.4-0.1c-0.2,0-0.3,0-0.4,0.1c-0.1,0.1-0.2,0.1-0.3,0.2c-0.1,0.1-0.1,0.2-0.2,0.3c0,0.1-0.1,0.2-0.1,0.4H87z"/>
		<path d="M91.9,133.4c0.3,0,0.5,0,0.6,0.1c0.2,0.1,0.3,0.2,0.4,0.4c0.1,0.2,0.2,0.4,0.2,0.6s0,0.5,0,0.9v2.8h-1v-2.9
			c0-0.2,0-0.3,0-0.5s-0.1-0.2-0.1-0.3c0-0.1-0.1-0.1-0.1-0.1c0,0-0.1,0-0.2,0c-0.1,0-0.1,0-0.2,0c-0.1,0-0.1,0-0.2,0.1
			c0,0.1,0,0.3,0.1,0.4c0,0.2,0,0.3,0,0.5v0.9h-1v-1.1c0-0.3,0-0.5-0.1-0.7s-0.2-0.2-0.3-0.2c0,0-0.1,0-0.1,0s-0.1,0-0.2,0v3.7h-1
			v-4.5c0.3-0.1,0.5-0.1,0.8-0.2c0.3,0,0.5-0.1,0.7-0.1c0.2,0,0.3,0,0.5,0.1c0.1,0,0.3,0.1,0.4,0.2c0.1-0.1,0.2-0.1,0.4-0.2
			S91.8,133.4,91.9,133.4z"/>
		<path d="M93.8,135.8c0-0.4,0.1-0.8,0.2-1.1c0.1-0.3,0.3-0.6,0.5-0.8s0.4-0.4,0.7-0.5s0.5-0.2,0.8-0.2c0.7,0,1.2,0.2,1.6,0.6
			c0.4,0.4,0.5,1,0.5,1.8c0,0.1,0,0.2,0,0.3c0,0.1,0,0.2,0,0.2h-3c0,0.3,0.1,0.5,0.4,0.7s0.6,0.3,1,0.3c0.2,0,0.5,0,0.7-0.1
			c0.2-0.1,0.4-0.1,0.6-0.2l0.2,1c-0.2,0.1-0.4,0.1-0.7,0.2s-0.5,0.1-0.8,0.1c-0.4,0-0.8-0.1-1.1-0.2c-0.3-0.1-0.6-0.3-0.8-0.5
			s-0.4-0.5-0.5-0.8S93.8,136.2,93.8,135.8z M97,135.3c0-0.1,0-0.2,0-0.4c0-0.1-0.1-0.2-0.2-0.3c-0.1-0.1-0.2-0.2-0.3-0.2
			s-0.3-0.1-0.4-0.1c-0.2,0-0.3,0-0.4,0.1c-0.1,0.1-0.2,0.1-0.3,0.2c-0.1,0.1-0.1,0.2-0.2,0.3c0,0.1-0.1,0.2-0.1,0.4H97z"/>
		<path d="M99.1,133.6c0.2-0.1,0.5-0.1,0.8-0.2c0.3-0.1,0.7-0.1,1.1-0.1c0.4,0,0.7,0.1,0.9,0.2c0.2,0.1,0.4,0.3,0.6,0.4
			c0.1,0.2,0.2,0.4,0.3,0.7c0.1,0.3,0.1,0.6,0.1,0.9v2.7h-1.2v-2.5c0-0.4,0-0.8-0.1-1c-0.1-0.2-0.3-0.3-0.6-0.3c-0.1,0-0.2,0-0.3,0
			c-0.1,0-0.2,0-0.3,0v3.7h-1.2V133.6z"/>
		<path d="M104.9,134.4h-1.1v-1h1.1v-1.2l1.2-0.2v1.4h2v1h-2v1.9c0,0.2,0,0.3,0,0.4c0,0.1,0.1,0.2,0.1,0.3c0.1,0.1,0.1,0.1,0.2,0.1
			c0.1,0,0.2,0,0.3,0c0.1,0,0.2,0,0.3,0s0.2,0,0.3,0s0.2,0,0.3-0.1s0.2-0.1,0.3-0.1l0.2,1.1c-0.2,0.1-0.5,0.2-0.7,0.2
			c-0.3,0-0.5,0.1-0.8,0.1c-0.3,0-0.5,0-0.8-0.1s-0.4-0.1-0.6-0.3c-0.2-0.1-0.3-0.3-0.4-0.6s-0.1-0.6-0.1-1V134.4z"/>
		<path d="M110.8,137.2c0.3,0,0.5,0,0.7-0.1c0.2,0,0.2-0.1,0.2-0.3c0-0.1,0-0.2-0.1-0.2c0-0.1-0.1-0.1-0.2-0.2
			c-0.1,0-0.2-0.1-0.3-0.1c-0.1,0-0.2-0.1-0.4-0.1c-0.2-0.1-0.4-0.1-0.5-0.2c-0.2-0.1-0.4-0.2-0.5-0.3c-0.2-0.1-0.3-0.2-0.4-0.4
			c-0.1-0.2-0.1-0.4-0.1-0.6c0-0.2,0-0.4,0.1-0.6c0.1-0.2,0.2-0.3,0.4-0.5s0.4-0.2,0.6-0.3c0.3-0.1,0.6-0.1,0.9-0.1
			c0.3,0,0.6,0,0.9,0.1c0.3,0,0.5,0.1,0.7,0.2l-0.2,1c-0.1,0-0.3-0.1-0.5-0.2c-0.2-0.1-0.5-0.1-0.8-0.1c-0.3,0-0.5,0-0.6,0.1
			c-0.1,0.1-0.2,0.2-0.2,0.2c0,0.1,0,0.1,0.1,0.2s0.1,0.1,0.2,0.2c0.1,0,0.2,0.1,0.3,0.1c0.1,0,0.2,0.1,0.4,0.1
			c0.2,0.1,0.4,0.1,0.6,0.2s0.4,0.2,0.5,0.3c0.2,0.1,0.3,0.3,0.4,0.4c0.1,0.2,0.2,0.4,0.2,0.6c0,0.2,0,0.4-0.1,0.5
			c-0.1,0.2-0.2,0.3-0.4,0.5s-0.4,0.2-0.7,0.3s-0.6,0.1-1,0.1c-0.4,0-0.8,0-1-0.1c-0.3-0.1-0.5-0.2-0.7-0.3l0.2-1
			c0.2,0.1,0.5,0.2,0.7,0.3C110.3,137.1,110.5,137.2,110.8,137.2z"/>
	</g>
</g>
</svg>
