<?xml version="1.0" encoding="utf-8"?>
<!-- Generator: Adobe Illustrator 21.0.0, SVG Export Plug-In . SVG Version: 6.00 Build 0)  -->
<svg version="1.1" id="Layer_1" xmlns="http://www.w3.org/2000/svg" xmlns:xlink="http://www.w3.org/1999/xlink" x="0px" y="0px"
	 viewBox="0 0 227 391" style="enable-background:new 0 0 227 391;" xml:space="preserve">
<style type="text/css">
	.st0{fill:none;stroke:#000000;stroke-width:2;stroke-linecap:round;stroke-linejoin:round;stroke-miterlimit:10;}
	.st1{fill:none;stroke:#000000;stroke-width:3;stroke-linecap:round;stroke-linejoin:round;stroke-miterlimit:10;}
	.st2{enable-background:new    ;}
	.st3{fill:none;stroke:#000000;stroke-width:2;stroke-linecap:round;stroke-linejoin:round;}
	.st4{fill:none;stroke:#000000;stroke-width:2;stroke-linecap:round;stroke-linejoin:round;stroke-dasharray:8,8;}
	.st5{fill:none;stroke:#000000;stroke-width:3;stroke-miterlimit:10;}
	.st6{fill:none;stroke:#000000;stroke-width:2;stroke-linecap:round;stroke-miterlimit:10;}
	.st7{fill:none;stroke:#FFFFFF;stroke-width:3;stroke-miterlimit:10;}
	.st8{fill:#FFFFFF;stroke:#000000;stroke-width:3;stroke-miterlimit:10;}
	.st9{fill:none;stroke:#000000;stroke-width:2;stroke-miterlimit:10;}
	.st10{fill:#FFFFFF;}
	.st11{fill:#FFFFFF;stroke:#000000;stroke-width:2;stroke-linecap:round;stroke-linejoin:round;stroke-miterlimit:10;}
	.st12{fill:none;}
</style>
<g>
	<line class="st0" x1="36.8" y1="17" x2="36.8" y2="10"/>
	<line class="st0" x1="17.9" y1="17.8" x2="22.9" y2="22.8"/>
	<line class="st0" x1="10.1" y1="36.7" x2="17.1" y2="36.7"/>
	<line class="st0" x1="17.9" y1="55.5" x2="22.9" y2="50.5"/>
	<line class="st0" x1="55.6" y1="55.5" x2="50.7" y2="50.5"/>
	<line class="st0" x1="63.4" y1="36.7" x2="56.4" y2="36.7"/>
	<line class="st0" x1="55.6" y1="17.8" x2="50.7" y2="22.8"/>
	<path class="st1" d="M42.4,67.6H30.7l11.7-6H30.7l12.6-7.2l0,0c0.3-2.9,0.8-7,2.9-9.4c1.4-1.5,2.4-3.2,2.9-5.2
		c0.4-1.6,0.5-3.2,0.3-5c-0.7-5.1-4.5-9.4-9.5-10.6c-1.1-0.3-2.2-0.4-3.2-0.4s-2.1,0.1-3.2,0.4c-5,1.3-8.8,5.6-9.5,10.7
		c-0.2,1.7-0.1,3.4,0.3,5c0.5,1.9,1.6,3.7,3,5.2c2.2,2.3,2.7,6,3,8.9"/>
</g>
<g class="st2">
	<path d="M26.6,84.5v-1.2h1.6v-5h-1.6v-1.2h4.7v1.2h-1.6v5h1.6v1.2H26.6z"/>
	<path d="M37.2,84.3c-0.3,0.1-0.6,0.2-1,0.2c-0.4,0.1-0.8,0.1-1.2,0.1c-0.9,0-1.5-0.3-2-0.8c-0.5-0.5-0.7-1.2-0.7-2.1
		c0-0.9,0.2-1.6,0.6-2.2s0.9-0.8,1.7-0.8c0.2,0,0.4,0,0.6,0.1c0.2,0,0.4,0.1,0.5,0.2v-2.6l1.5-0.3V84.3z M33.8,81.6
		c0,0.5,0.1,0.9,0.3,1.2c0.2,0.3,0.5,0.5,0.9,0.5c0.1,0,0.2,0,0.3,0c0.1,0,0.2,0,0.3,0v-3.1c-0.1-0.1-0.2-0.1-0.4-0.2S35,80,34.8,80
		c-0.4,0-0.6,0.1-0.8,0.4C33.9,80.7,33.8,81.1,33.8,81.6z"/>
	<path d="M38.4,81.7c0-0.5,0.1-0.9,0.2-1.3c0.2-0.4,0.4-0.7,0.6-0.9c0.2-0.3,0.5-0.4,0.9-0.6c0.3-0.1,0.6-0.2,1-0.2
		c0.8,0,1.5,0.2,1.9,0.7c0.4,0.5,0.6,1.2,0.6,2.2c0,0.1,0,0.2,0,0.3c0,0.1,0,0.2,0,0.3h-3.7c0,0.4,0.2,0.7,0.5,0.9
		c0.3,0.2,0.7,0.3,1.2,0.3c0.3,0,0.6,0,0.8-0.1c0.3-0.1,0.5-0.1,0.7-0.2l0.2,1.3c-0.3,0.1-0.5,0.2-0.8,0.2s-0.6,0.1-1,0.1
		c-0.5,0-0.9-0.1-1.3-0.2c-0.4-0.1-0.7-0.3-1-0.6c-0.3-0.2-0.5-0.5-0.6-0.9C38.4,82.6,38.4,82.2,38.4,81.7z M42.2,81.1
		c0-0.2,0-0.3-0.1-0.4s-0.1-0.3-0.2-0.4s-0.2-0.2-0.3-0.3C41.4,80,41.3,80,41.1,80c-0.2,0-0.4,0-0.5,0.1c-0.1,0.1-0.3,0.2-0.3,0.3
		c-0.1,0.1-0.2,0.2-0.2,0.4c-0.1,0.1-0.1,0.3-0.1,0.4H42.2z"/>
	<path d="M46.9,78.7c0.5,0,0.9,0.1,1.2,0.2c0.3,0.1,0.6,0.3,0.7,0.5s0.3,0.4,0.4,0.7c0.1,0.3,0.1,0.6,0.1,1v3.4
		c-0.2,0-0.5,0.1-1,0.2c-0.4,0.1-0.9,0.1-1.4,0.1c-0.4,0-0.7,0-1-0.1c-0.3-0.1-0.5-0.2-0.8-0.3c-0.2-0.1-0.4-0.3-0.5-0.6
		c-0.1-0.2-0.2-0.5-0.2-0.9c0-0.3,0.1-0.6,0.2-0.8c0.1-0.2,0.3-0.4,0.5-0.5c0.2-0.1,0.5-0.2,0.7-0.3c0.3-0.1,0.6-0.1,0.9-0.1
		c0.4,0,0.7,0,1,0.1v-0.2c0-0.3-0.1-0.5-0.3-0.7C47.4,80,47.1,80,46.7,80c-0.3,0-0.6,0-0.8,0.1c-0.3,0-0.5,0.1-0.6,0.1L45.1,79
		c0.2-0.1,0.4-0.1,0.8-0.2S46.5,78.7,46.9,78.7z M47,83.4c0.2,0,0.3,0,0.5,0c0.2,0,0.3,0,0.4,0v-1.3c-0.1,0-0.2,0-0.3,0
		c-0.1,0-0.3,0-0.4,0c-0.2,0-0.3,0-0.4,0c-0.1,0-0.3,0.1-0.4,0.1c-0.1,0-0.2,0.1-0.3,0.2C46,82.5,46,82.6,46,82.7
		c0,0.3,0.1,0.4,0.3,0.5C46.5,83.4,46.7,83.4,47,83.4z"/>
</g>
<g>
	<g class="st2">
		<path d="M142.6,127.9l-0.3-1.4h-1.6l-0.3,1.4h-1.3c0.3-1.2,0.6-2.3,0.9-3.3c0.3-1,0.6-2,0.9-2.9h1.3c0.3,0.9,0.6,1.9,0.9,2.9
			c0.3,1,0.6,2.1,0.8,3.3H142.6z M141.5,123c-0.1,0.2-0.1,0.5-0.2,0.7s-0.1,0.4-0.2,0.6c0,0.2-0.1,0.4-0.1,0.6s-0.1,0.4-0.1,0.6h1.2
			c0-0.2-0.1-0.4-0.1-0.6c0-0.2-0.1-0.4-0.1-0.6s-0.1-0.4-0.2-0.6S141.6,123.2,141.5,123z"/>
		<path d="M144.6,123.4c0.2-0.1,0.5-0.1,0.8-0.2c0.3-0.1,0.7-0.1,1.1-0.1c0.4,0,0.7,0.1,0.9,0.2c0.2,0.1,0.4,0.3,0.6,0.4
			c0.1,0.2,0.2,0.4,0.3,0.7c0.1,0.3,0.1,0.6,0.1,0.9v2.7h-1.2v-2.5c0-0.4,0-0.8-0.2-1c-0.1-0.2-0.3-0.3-0.6-0.3c-0.1,0-0.2,0-0.3,0
			s-0.2,0-0.3,0v3.7h-1.2V123.4z"/>
		<path d="M151.4,123.1c0.4,0,0.7,0,1,0.1c0.3,0.1,0.5,0.2,0.6,0.4c0.2,0.2,0.3,0.4,0.3,0.6c0.1,0.2,0.1,0.5,0.1,0.8v2.8
			c-0.2,0-0.4,0.1-0.8,0.1c-0.4,0.1-0.8,0.1-1.2,0.1c-0.3,0-0.6,0-0.8-0.1c-0.2-0.1-0.5-0.1-0.6-0.3c-0.2-0.1-0.3-0.3-0.4-0.5
			s-0.1-0.4-0.1-0.7c0-0.3,0.1-0.5,0.2-0.7c0.1-0.2,0.3-0.3,0.4-0.5c0.2-0.1,0.4-0.2,0.6-0.2c0.2,0,0.5-0.1,0.7-0.1
			c0.3,0,0.6,0,0.9,0.1V125c0-0.2-0.1-0.4-0.2-0.6c-0.1-0.2-0.4-0.2-0.8-0.2c-0.2,0-0.5,0-0.7,0c-0.2,0-0.4,0.1-0.5,0.1l-0.2-1
			c0.2-0.1,0.4-0.1,0.6-0.1C150.8,123.1,151.1,123.1,151.4,123.1z M151.5,127.1c0.1,0,0.3,0,0.4,0c0.1,0,0.2,0,0.3,0V126
			c-0.1,0-0.2,0-0.3,0c-0.1,0-0.2,0-0.3,0c-0.1,0-0.3,0-0.4,0c-0.1,0-0.2,0-0.3,0.1s-0.2,0.1-0.2,0.2c-0.1,0.1-0.1,0.2-0.1,0.3
			c0,0.2,0.1,0.4,0.2,0.5C151,127,151.3,127.1,151.5,127.1z"/>
		<path d="M158.7,127.7c0,0-0.1,0-0.1,0.1s-0.2,0.1-0.3,0.1c-0.1,0-0.3,0.1-0.4,0.1c-0.2,0-0.3,0-0.6,0c-0.6,0-1-0.2-1.2-0.5
			c-0.3-0.3-0.4-0.8-0.4-1.5v-4h-1.3v-1h2.5v5.1c0,0.3,0.1,0.5,0.2,0.7s0.3,0.2,0.5,0.2c0.2,0,0.5,0,0.6-0.1
			c0.2-0.1,0.3-0.1,0.3-0.1L158.7,127.7z"/>
		<path d="M163.7,123.2c-0.1,0.4-0.2,0.9-0.4,1.3c-0.1,0.4-0.2,0.8-0.4,1.2s-0.3,0.8-0.4,1.2c-0.1,0.4-0.3,0.8-0.5,1.1
			c-0.1,0.3-0.3,0.5-0.4,0.7c-0.1,0.2-0.3,0.4-0.4,0.5c-0.1,0.1-0.3,0.2-0.5,0.3c-0.2,0.1-0.4,0.1-0.6,0.1c-0.2,0-0.4,0-0.6,0
			s-0.3-0.1-0.4-0.1l0.2-1c0.1,0.1,0.3,0.1,0.4,0.1s0.2,0,0.3,0c0.2,0,0.4-0.1,0.6-0.2c0.1-0.2,0.3-0.3,0.3-0.6
			c-0.3-0.6-0.6-1.3-0.9-2c-0.3-0.8-0.6-1.6-0.8-2.5h1.3c0.1,0.2,0.1,0.5,0.2,0.8c0.1,0.3,0.2,0.6,0.2,0.8c0.1,0.3,0.2,0.6,0.3,0.8
			c0.1,0.3,0.2,0.5,0.3,0.8c0.1-0.2,0.1-0.5,0.2-0.8c0.1-0.3,0.1-0.5,0.2-0.8c0.1-0.3,0.1-0.6,0.2-0.8c0.1-0.3,0.1-0.5,0.2-0.8
			H163.7z"/>
		<path d="M166.3,127c0.3,0,0.5,0,0.7-0.1c0.2,0,0.2-0.1,0.2-0.3c0-0.1,0-0.2-0.1-0.2c0-0.1-0.1-0.1-0.2-0.2c-0.1,0-0.2-0.1-0.3-0.1
			c-0.1,0-0.2-0.1-0.4-0.1c-0.2-0.1-0.4-0.1-0.5-0.2c-0.2-0.1-0.4-0.2-0.5-0.3c-0.2-0.1-0.3-0.2-0.4-0.4c-0.1-0.2-0.2-0.4-0.2-0.6
			c0-0.2,0-0.4,0.1-0.6c0.1-0.2,0.2-0.3,0.4-0.5c0.2-0.1,0.4-0.2,0.6-0.3c0.3-0.1,0.6-0.1,0.9-0.1c0.3,0,0.6,0,0.9,0.1
			c0.3,0,0.5,0.1,0.7,0.2l-0.2,1c-0.1,0-0.3-0.1-0.5-0.2c-0.2-0.1-0.5-0.1-0.8-0.1c-0.3,0-0.5,0-0.6,0.1c-0.1,0.1-0.2,0.2-0.2,0.2
			c0,0.1,0,0.1,0.1,0.2c0,0.1,0.1,0.1,0.2,0.2c0.1,0,0.2,0.1,0.3,0.1c0.1,0,0.2,0.1,0.4,0.1c0.2,0.1,0.4,0.1,0.6,0.2
			s0.4,0.2,0.5,0.3c0.2,0.1,0.3,0.3,0.4,0.4c0.1,0.2,0.2,0.4,0.2,0.6c0,0.2,0,0.4-0.1,0.5c-0.1,0.2-0.2,0.3-0.4,0.5
			s-0.4,0.2-0.7,0.3s-0.6,0.1-1,0.1c-0.4,0-0.8,0-1-0.1c-0.3-0.1-0.5-0.2-0.7-0.3l0.2-1c0.2,0.1,0.5,0.2,0.7,0.3S166,127,166.3,127z
			"/>
		<path d="M173.7,127.7c-0.3,0.1-0.5,0.2-0.7,0.2c-0.2,0-0.4,0.1-0.6,0.1c-0.3,0-0.6,0-0.8-0.1c-0.2-0.1-0.4-0.2-0.5-0.4
			c-0.1-0.2-0.2-0.4-0.3-0.6c-0.1-0.3-0.1-0.5-0.1-0.9v-1.7h-1.3v-1h2.5v2.9c0,0.3,0.1,0.5,0.2,0.6s0.3,0.2,0.5,0.2
			c0.1,0,0.3,0,0.4,0c0.2,0,0.3-0.1,0.5-0.2L173.7,127.7z M171.8,121.9c0,0.2-0.1,0.4-0.2,0.6c-0.2,0.1-0.3,0.2-0.5,0.2
			c-0.2,0-0.4-0.1-0.5-0.2c-0.2-0.1-0.2-0.3-0.2-0.6c0-0.2,0.1-0.4,0.2-0.6c0.1-0.1,0.3-0.2,0.5-0.2c0.2,0,0.4,0.1,0.5,0.2
			C171.8,121.5,171.8,121.6,171.8,121.9z"/>
		<path d="M176.3,127c0.3,0,0.5,0,0.7-0.1c0.2,0,0.2-0.1,0.2-0.3c0-0.1,0-0.2-0.1-0.2c0-0.1-0.1-0.1-0.2-0.2c-0.1,0-0.2-0.1-0.3-0.1
			c-0.1,0-0.2-0.1-0.4-0.1c-0.2-0.1-0.4-0.1-0.5-0.2c-0.2-0.1-0.4-0.2-0.5-0.3c-0.2-0.1-0.3-0.2-0.4-0.4c-0.1-0.2-0.2-0.4-0.2-0.6
			c0-0.2,0-0.4,0.1-0.6c0.1-0.2,0.2-0.3,0.4-0.5c0.2-0.1,0.4-0.2,0.6-0.3c0.3-0.1,0.6-0.1,0.9-0.1c0.3,0,0.6,0,0.9,0.1
			c0.3,0,0.5,0.1,0.7,0.2l-0.2,1c-0.1,0-0.3-0.1-0.5-0.2c-0.2-0.1-0.5-0.1-0.8-0.1c-0.3,0-0.5,0-0.6,0.1c-0.1,0.1-0.2,0.2-0.2,0.2
			c0,0.1,0,0.1,0.1,0.2c0,0.1,0.1,0.1,0.2,0.2c0.1,0,0.2,0.1,0.3,0.1c0.1,0,0.2,0.1,0.4,0.1c0.2,0.1,0.4,0.1,0.6,0.2
			s0.4,0.2,0.5,0.3c0.2,0.1,0.3,0.3,0.4,0.4c0.1,0.2,0.2,0.4,0.2,0.6c0,0.2,0,0.4-0.1,0.5c-0.1,0.2-0.2,0.3-0.4,0.5
			s-0.4,0.2-0.7,0.3s-0.6,0.1-1,0.1c-0.4,0-0.8,0-1-0.1c-0.3-0.1-0.5-0.2-0.7-0.3l0.2-1c0.2,0.1,0.5,0.2,0.7,0.3S176,127,176.3,127z
			"/>
	</g>
</g>
<g>
	<g class="st2">
		<path d="M95.8,21.7c0.4,0,0.7,0,1,0.1s0.5,0.2,0.7,0.4c0.2,0.2,0.4,0.4,0.5,0.6s0.2,0.6,0.2,0.9c0,0.4-0.1,0.7-0.2,1
			c-0.1,0.3-0.4,0.5-0.7,0.7c0.1,0.2,0.2,0.4,0.4,0.6c0.1,0.2,0.3,0.4,0.4,0.7c0.1,0.2,0.2,0.5,0.3,0.7c0.1,0.2,0.2,0.4,0.3,0.7
			h-1.3c-0.2-0.4-0.3-0.8-0.5-1.2c-0.2-0.4-0.4-0.7-0.7-1.1h-0.6V28h-1.2v-6.1c0.1,0,0.3-0.1,0.4-0.1c0.1,0,0.3,0,0.4,0
			c0.1,0,0.3,0,0.4,0S95.7,21.7,95.8,21.7z M96.9,23.8c0-0.3-0.1-0.6-0.3-0.7c-0.2-0.2-0.5-0.2-0.8-0.2c0,0-0.1,0-0.2,0
			c-0.1,0-0.1,0-0.2,0v1.9h0.3c0.4,0,0.7-0.1,0.9-0.2C96.8,24.3,96.9,24.1,96.9,23.8z"/>
		<path d="M99,25.7c0-0.4,0.1-0.8,0.2-1.1c0.1-0.3,0.3-0.6,0.5-0.8s0.4-0.4,0.7-0.5s0.5-0.2,0.8-0.2c0.7,0,1.2,0.2,1.6,0.6
			c0.4,0.4,0.5,1,0.5,1.8c0,0.1,0,0.2,0,0.3c0,0.1,0,0.2,0,0.2h-3c0,0.3,0.1,0.5,0.4,0.7s0.6,0.3,1,0.3c0.2,0,0.5,0,0.7-0.1
			c0.2-0.1,0.4-0.1,0.6-0.2l0.2,1c-0.2,0.1-0.4,0.1-0.7,0.2c-0.2,0-0.5,0.1-0.8,0.1c-0.4,0-0.8-0.1-1.1-0.2
			c-0.3-0.1-0.6-0.3-0.8-0.5c-0.2-0.2-0.4-0.5-0.5-0.8C99.1,26.4,99,26.1,99,25.7z M102.1,25.2c0-0.1,0-0.2,0-0.4
			c0-0.1-0.1-0.2-0.2-0.3c-0.1-0.1-0.2-0.2-0.3-0.2c-0.1-0.1-0.3-0.1-0.4-0.1c-0.2,0-0.3,0-0.4,0.1s-0.2,0.1-0.3,0.2
			c-0.1,0.1-0.1,0.2-0.2,0.3s-0.1,0.2-0.1,0.4H102.1z"/>
		<path d="M104,25.7c0-0.4,0-0.7,0.1-1c0.1-0.3,0.2-0.6,0.4-0.8c0.2-0.2,0.4-0.4,0.7-0.5s0.6-0.2,1-0.2c0.2,0,0.3,0,0.5,0
			c0.2,0,0.3,0,0.5,0.1c0.2,0,0.3,0,0.5,0.1c0.1,0,0.3,0.1,0.4,0.1v6.2h-1.2v-1.8c-0.2,0.1-0.3,0.1-0.5,0.2s-0.3,0.1-0.5,0.1
			c-0.3,0-0.6-0.1-0.8-0.2c-0.2-0.1-0.4-0.3-0.6-0.5c-0.2-0.2-0.3-0.5-0.4-0.8C104,26.4,104,26,104,25.7z M105.2,25.7
			c0,0.4,0.1,0.8,0.2,1c0.1,0.2,0.4,0.4,0.7,0.4c0.1,0,0.3,0,0.4,0c0.1,0,0.2-0.1,0.3-0.1v-2.6c-0.1,0-0.1,0-0.2,0
			c-0.1,0-0.2,0-0.3,0c-0.3,0-0.6,0.1-0.8,0.4C105.3,24.9,105.2,25.3,105.2,25.7z"/>
		<path d="M113.1,27.8c-0.2,0.1-0.5,0.1-0.8,0.2c-0.3,0.1-0.7,0.1-1.1,0.1c-0.4,0-0.7-0.1-1-0.2s-0.4-0.3-0.6-0.5
			c-0.1-0.2-0.2-0.4-0.3-0.7s-0.1-0.6-0.1-0.9v-2.6h1.2v2.5c0,0.4,0.1,0.8,0.2,1c0.1,0.2,0.3,0.3,0.6,0.3c0.2,0,0.4,0,0.6,0v-3.7
			h1.2V27.8z"/>
		<path d="M114,25.7c0-0.4,0.1-0.8,0.2-1.1c0.1-0.3,0.3-0.6,0.5-0.8s0.4-0.4,0.7-0.5s0.5-0.2,0.8-0.2c0.7,0,1.2,0.2,1.6,0.6
			c0.4,0.4,0.5,1,0.5,1.8c0,0.1,0,0.2,0,0.3c0,0.1,0,0.2,0,0.2h-3c0,0.3,0.1,0.5,0.4,0.7s0.6,0.3,1,0.3c0.2,0,0.5,0,0.7-0.1
			c0.2-0.1,0.4-0.1,0.6-0.2l0.2,1c-0.2,0.1-0.4,0.1-0.7,0.2c-0.2,0-0.5,0.1-0.8,0.1c-0.4,0-0.8-0.1-1.1-0.2s-0.6-0.3-0.8-0.5
			s-0.4-0.5-0.5-0.8C114.1,26.4,114,26.1,114,25.7z M117.1,25.2c0-0.1,0-0.2,0-0.4c0-0.1-0.1-0.2-0.2-0.3c-0.1-0.1-0.2-0.2-0.3-0.2
			c-0.1-0.1-0.3-0.1-0.4-0.1c-0.2,0-0.3,0-0.4,0.1s-0.2,0.1-0.3,0.2c-0.1,0.1-0.1,0.2-0.2,0.3s-0.1,0.2-0.1,0.4H117.1z"/>
		<path d="M121,27.1c0.3,0,0.5,0,0.7-0.1c0.2,0,0.2-0.1,0.2-0.3c0-0.1,0-0.2-0.1-0.2c0-0.1-0.1-0.1-0.2-0.2c-0.1,0-0.2-0.1-0.3-0.1
			c-0.1,0-0.2-0.1-0.4-0.1c-0.2-0.1-0.4-0.1-0.5-0.2c-0.2-0.1-0.4-0.2-0.5-0.3c-0.2-0.1-0.3-0.2-0.4-0.4c-0.1-0.2-0.2-0.4-0.2-0.6
			c0-0.2,0-0.4,0.1-0.6c0.1-0.2,0.2-0.3,0.4-0.5c0.2-0.1,0.4-0.2,0.6-0.3c0.3-0.1,0.6-0.1,0.9-0.1c0.3,0,0.6,0,0.9,0.1
			c0.3,0,0.5,0.1,0.7,0.2l-0.2,1c-0.1,0-0.3-0.1-0.5-0.2c-0.2-0.1-0.5-0.1-0.8-0.1c-0.3,0-0.5,0-0.6,0.1c-0.1,0.1-0.2,0.2-0.2,0.2
			c0,0.1,0,0.1,0.1,0.2c0,0.1,0.1,0.1,0.2,0.2c0.1,0,0.2,0.1,0.3,0.1c0.1,0,0.2,0.1,0.4,0.1c0.2,0.1,0.4,0.1,0.6,0.2
			s0.4,0.2,0.5,0.3c0.2,0.1,0.3,0.3,0.4,0.4c0.1,0.2,0.2,0.4,0.2,0.6c0,0.2,0,0.4-0.1,0.5c-0.1,0.2-0.2,0.3-0.4,0.5
			s-0.4,0.2-0.7,0.3s-0.6,0.1-1,0.1c-0.4,0-0.8,0-1-0.1c-0.3-0.1-0.5-0.2-0.7-0.3l0.2-1c0.2,0.1,0.5,0.2,0.7,0.3
			S120.7,27.1,121,27.1z"/>
		<path d="M125.1,24.3H124v-1h1.1v-1.2l1.2-0.2v1.4h2v1h-2v1.9c0,0.2,0,0.3,0,0.4c0,0.1,0.1,0.2,0.1,0.3c0.1,0.1,0.1,0.1,0.2,0.1
			c0.1,0,0.2,0,0.3,0c0.1,0,0.2,0,0.3,0s0.2,0,0.3,0s0.2,0,0.3-0.1c0.1,0,0.2-0.1,0.3-0.1l0.2,1.1c-0.2,0.1-0.5,0.2-0.7,0.2
			c-0.3,0-0.5,0.1-0.8,0.1c-0.3,0-0.5,0-0.8-0.1s-0.4-0.1-0.6-0.3c-0.2-0.1-0.3-0.3-0.4-0.6c-0.1-0.2-0.1-0.6-0.1-1V24.3z"/>
	</g>
</g>
<g>
	<line class="st0" x1="143.2" y1="42" x2="79.2" y2="42"/>
	<polyline class="st0" points="138.2,37 143.2,42 138.2,47 	"/>
</g>
<g>
	<line class="st0" x1="194.5" y1="149.1" x2="194.5" y2="104.1"/>
	<polyline class="st0" points="199.5,144.1 194.5,149.1 189.5,144.1 	"/>
</g>
<g>
	<g class="st2">
		<path d="M103.2,219.5l-0.3-1.4h-1.6l-0.3,1.4h-1.3c0.3-1.2,0.6-2.3,0.9-3.3s0.6-2,0.9-2.9h1.3c0.3,0.9,0.6,1.9,0.9,2.9
			s0.6,2.1,0.8,3.3H103.2z M102.1,214.5c-0.1,0.2-0.1,0.5-0.2,0.7c-0.1,0.2-0.1,0.4-0.2,0.6s-0.1,0.4-0.1,0.6s-0.1,0.4-0.1,0.6h1.2
			c0-0.2-0.1-0.4-0.1-0.6c0-0.2-0.1-0.4-0.1-0.6s-0.1-0.4-0.2-0.6S102.2,214.7,102.1,214.5z"/>
		<path d="M109.3,217.2c0,0.4,0,0.7-0.1,1c-0.1,0.3-0.2,0.6-0.3,0.8c-0.2,0.2-0.3,0.4-0.6,0.5c-0.2,0.1-0.5,0.2-0.8,0.2
			c-0.3,0-0.6-0.1-1-0.2v1.8h-1.2V215c0.2-0.1,0.5-0.1,0.8-0.2c0.3,0,0.7-0.1,1-0.1c0.7,0,1.3,0.2,1.7,0.7
			C109.1,215.8,109.3,216.4,109.3,217.2z M108.1,217.2c0-0.4-0.1-0.8-0.3-1c-0.2-0.3-0.4-0.4-0.8-0.4c-0.1,0-0.2,0-0.3,0
			c-0.1,0-0.2,0-0.3,0v2.6c0.1,0.1,0.2,0.1,0.3,0.1c0.1,0,0.3,0,0.4,0c0.3,0,0.5-0.1,0.6-0.4C108,218,108.1,217.6,108.1,217.2z"/>
		<path d="M114.3,217.2c0,0.4,0,0.7-0.1,1c-0.1,0.3-0.2,0.6-0.4,0.8c-0.2,0.2-0.3,0.4-0.6,0.5c-0.2,0.1-0.5,0.2-0.8,0.2
			c-0.3,0-0.6-0.1-1-0.2v1.8h-1.2V215c0.2-0.1,0.5-0.1,0.8-0.2c0.3,0,0.7-0.1,1-0.1c0.7,0,1.3,0.2,1.7,0.7
			C114.1,215.8,114.3,216.4,114.3,217.2z M113.1,217.2c0-0.4-0.1-0.8-0.3-1c-0.2-0.3-0.4-0.4-0.8-0.4c-0.1,0-0.2,0-0.3,0
			c-0.1,0-0.2,0-0.3,0v2.6c0.1,0.1,0.2,0.1,0.3,0.1c0.1,0,0.3,0,0.4,0c0.3,0,0.5-0.1,0.6-0.4C113,218,113.1,217.6,113.1,217.2z"/>
		<path d="M119,216c-0.1,0-0.2,0-0.3-0.1c-0.1,0-0.2,0-0.3-0.1c-0.1,0-0.2,0-0.3,0c-0.1,0-0.2,0-0.3,0c-0.2,0-0.3,0-0.5,0
			c-0.2,0-0.3,0-0.5,0.1v3.5h-1.2v-4.4c0.3-0.1,0.7-0.2,1-0.3c0.3-0.1,0.7-0.1,1.2-0.1c0.1,0,0.2,0,0.3,0c0.1,0,0.3,0,0.4,0
			c0.1,0,0.3,0,0.4,0.1c0.1,0,0.3,0.1,0.4,0.1L119,216z"/>
		<path d="M124.3,217.1c0,0.4-0.1,0.7-0.2,1c-0.1,0.3-0.3,0.6-0.5,0.8c-0.2,0.2-0.4,0.4-0.7,0.5s-0.6,0.2-0.9,0.2
			c-0.3,0-0.6-0.1-0.9-0.2c-0.3-0.1-0.5-0.3-0.7-0.5c-0.2-0.2-0.3-0.5-0.5-0.8c-0.1-0.3-0.2-0.6-0.2-1c0-0.4,0.1-0.7,0.2-1
			c0.1-0.3,0.3-0.6,0.5-0.8c0.2-0.2,0.4-0.4,0.7-0.5c0.3-0.1,0.6-0.2,0.9-0.2c0.3,0,0.6,0.1,0.9,0.2c0.3,0.1,0.5,0.3,0.7,0.5
			c0.2,0.2,0.3,0.5,0.5,0.8C124.3,216.4,124.3,216.8,124.3,217.1z M121.2,217.2c0,0.4,0.1,0.8,0.2,1c0.1,0.3,0.4,0.4,0.7,0.4
			c0.3,0,0.6-0.1,0.7-0.4c0.2-0.3,0.2-0.6,0.2-1s-0.1-0.8-0.2-1c-0.1-0.3-0.4-0.4-0.7-0.4c-0.3,0-0.6,0.1-0.7,0.4
			C121.2,216.4,121.2,216.7,121.2,217.2z"/>
		<path d="M126.6,219.5c-0.3-0.6-0.6-1.3-0.9-2.1c-0.3-0.8-0.6-1.7-0.9-2.6h1.3c0.1,0.3,0.1,0.5,0.2,0.8c0.1,0.3,0.2,0.6,0.3,0.9
			s0.2,0.6,0.3,0.8c0.1,0.3,0.2,0.5,0.3,0.8c0.1-0.2,0.2-0.5,0.3-0.8c0.1-0.3,0.2-0.6,0.3-0.8c0.1-0.3,0.2-0.6,0.3-0.9
			c0.1-0.3,0.2-0.6,0.2-0.8h1.3c-0.3,0.9-0.6,1.8-0.9,2.6s-0.7,1.5-1,2.1H126.6z"/>
		<path d="M132,214.7c0.4,0,0.7,0,1,0.1c0.3,0.1,0.5,0.2,0.6,0.4c0.2,0.2,0.3,0.4,0.3,0.6c0.1,0.2,0.1,0.5,0.1,0.8v2.8
			c-0.2,0-0.4,0.1-0.8,0.1c-0.4,0.1-0.8,0.1-1.2,0.1c-0.3,0-0.6,0-0.8-0.1c-0.2-0.1-0.5-0.1-0.6-0.3c-0.2-0.1-0.3-0.3-0.4-0.5
			s-0.1-0.4-0.1-0.7c0-0.3,0.1-0.5,0.2-0.7c0.1-0.2,0.3-0.3,0.4-0.5c0.2-0.1,0.4-0.2,0.6-0.2c0.2,0,0.5-0.1,0.7-0.1
			c0.3,0,0.6,0,0.9,0.1v-0.1c0-0.2-0.1-0.4-0.2-0.6c-0.1-0.2-0.4-0.2-0.8-0.2c-0.2,0-0.5,0-0.7,0c-0.2,0-0.4,0.1-0.5,0.1l-0.2-1
			c0.2-0.1,0.4-0.1,0.6-0.1C131.4,214.7,131.7,214.7,132,214.7z M132.1,218.6c0.1,0,0.3,0,0.4,0c0.1,0,0.2,0,0.3,0v-1.1
			c-0.1,0-0.2,0-0.3,0c-0.1,0-0.2,0-0.3,0c-0.1,0-0.3,0-0.4,0c-0.1,0-0.2,0-0.3,0.1s-0.2,0.1-0.2,0.2c-0.1,0.1-0.1,0.2-0.1,0.3
			c0,0.2,0.1,0.4,0.2,0.5C131.7,218.6,131.9,218.6,132.1,218.6z"/>
		<path d="M139.3,219.3c0,0-0.1,0-0.1,0.1s-0.2,0.1-0.3,0.1c-0.1,0-0.3,0.1-0.4,0.1c-0.2,0-0.3,0-0.6,0c-0.6,0-1-0.2-1.2-0.5
			c-0.3-0.3-0.4-0.8-0.4-1.5v-4H135v-1h2.5v5.1c0,0.3,0.1,0.5,0.2,0.7s0.3,0.2,0.5,0.2c0.2,0,0.5,0,0.6-0.1c0.2-0.1,0.3-0.1,0.3-0.1
			L139.3,219.3z"/>
	</g>
</g>
<line class="st0" x1="88.9" y1="192.5" x2="150.4" y2="192.5"/>
<polyline class="st0" points="92.5,187.5 87.5,192.5 92.5,197.5 "/>
<g>
	<line class="st0" x1="37.1" y1="308.3" x2="37.1" y2="246.8"/>
	<polyline class="st0" points="32.1,303.3 37.1,308.3 42.1,303.3 	"/>
</g>
<g class="st2">
	<path d="M53.4,270.8v1h-1.6v5.2h-1.2v-5.2h-1.6v-1H53.4z"/>
	<path d="M53.9,274.7c0-0.4,0.1-0.8,0.2-1.1c0.1-0.3,0.3-0.6,0.5-0.8s0.4-0.4,0.7-0.5s0.5-0.2,0.8-0.2c0.7,0,1.2,0.2,1.6,0.6
		c0.4,0.4,0.5,1,0.5,1.8c0,0.1,0,0.2,0,0.3c0,0.1,0,0.2,0,0.2h-3c0,0.3,0.1,0.5,0.4,0.7s0.6,0.3,1,0.3c0.2,0,0.5,0,0.7-0.1
		c0.2-0.1,0.4-0.1,0.6-0.2l0.2,1c-0.2,0.1-0.4,0.1-0.7,0.2c-0.2,0-0.5,0.1-0.8,0.1c-0.4,0-0.8-0.1-1.1-0.2c-0.3-0.1-0.6-0.3-0.8-0.5
		c-0.2-0.2-0.4-0.5-0.5-0.8C54,275.4,53.9,275.1,53.9,274.7z M57.1,274.2c0-0.1,0-0.2,0-0.4c0-0.1-0.1-0.2-0.2-0.3
		c-0.1-0.1-0.2-0.2-0.3-0.2c-0.1-0.1-0.3-0.1-0.4-0.1c-0.2,0-0.3,0-0.4,0.1s-0.2,0.1-0.3,0.2c-0.1,0.1-0.1,0.2-0.2,0.3
		s-0.1,0.2-0.1,0.4H57.1z"/>
	<path d="M60.9,276.1c0.3,0,0.5,0,0.7-0.1c0.2,0,0.2-0.1,0.2-0.3c0-0.1,0-0.2-0.1-0.2c0-0.1-0.1-0.1-0.2-0.2c-0.1,0-0.2-0.1-0.3-0.1
		c-0.1,0-0.2-0.1-0.4-0.1c-0.2-0.1-0.4-0.1-0.5-0.2c-0.2-0.1-0.4-0.2-0.5-0.3s-0.3-0.2-0.4-0.4c-0.1-0.2-0.1-0.4-0.1-0.6
		c0-0.2,0-0.4,0.1-0.6s0.2-0.3,0.4-0.5c0.2-0.1,0.4-0.2,0.6-0.3c0.3-0.1,0.6-0.1,0.9-0.1c0.3,0,0.6,0,0.9,0.1s0.5,0.1,0.7,0.2
		l-0.2,1c-0.1,0-0.3-0.1-0.5-0.2c-0.2-0.1-0.5-0.1-0.8-0.1c-0.3,0-0.5,0-0.6,0.1c-0.1,0.1-0.2,0.2-0.2,0.2c0,0.1,0,0.1,0.1,0.2
		c0,0.1,0.1,0.1,0.2,0.2c0.1,0,0.2,0.1,0.3,0.1c0.1,0,0.2,0.1,0.4,0.1c0.2,0.1,0.4,0.1,0.6,0.2s0.4,0.2,0.5,0.3
		c0.2,0.1,0.3,0.3,0.4,0.4s0.1,0.4,0.1,0.6c0,0.2,0,0.4-0.1,0.5c-0.1,0.2-0.2,0.3-0.4,0.5c-0.2,0.1-0.4,0.2-0.7,0.3s-0.6,0.1-1,0.1
		c-0.4,0-0.8,0-1-0.1c-0.3-0.1-0.5-0.2-0.7-0.3l0.2-1c0.2,0.1,0.5,0.2,0.7,0.3C60.4,276,60.6,276.1,60.9,276.1z"/>
	<path d="M65.1,273.3H64v-1h1.1v-1.2l1.2-0.2v1.4h2v1h-2v1.9c0,0.2,0,0.3,0,0.4c0,0.1,0.1,0.2,0.1,0.3c0.1,0.1,0.1,0.1,0.2,0.1
		c0.1,0,0.2,0,0.3,0c0.1,0,0.2,0,0.3,0s0.2,0,0.3,0s0.2,0,0.3-0.1s0.2-0.1,0.3-0.1l0.2,1.1c-0.2,0.1-0.5,0.2-0.7,0.2
		s-0.5,0.1-0.8,0.1c-0.3,0-0.5,0-0.8-0.1c-0.2,0-0.4-0.1-0.6-0.3c-0.2-0.1-0.3-0.3-0.4-0.6c-0.1-0.2-0.1-0.6-0.1-1V273.3z"/>
	<path d="M73.3,276.8c-0.3,0.1-0.5,0.2-0.7,0.2c-0.2,0-0.4,0.1-0.6,0.1c-0.3,0-0.6,0-0.8-0.1c-0.2-0.1-0.4-0.2-0.5-0.4
		c-0.1-0.2-0.2-0.4-0.3-0.6c-0.1-0.3-0.1-0.5-0.1-0.9v-1.7H69v-1h2.5v2.9c0,0.3,0.1,0.5,0.2,0.6s0.3,0.2,0.5,0.2c0.1,0,0.3,0,0.4,0
		c0.2,0,0.3-0.1,0.5-0.2L73.3,276.8z M71.5,271c0,0.2-0.1,0.4-0.2,0.6c-0.2,0.1-0.3,0.2-0.5,0.2s-0.4-0.1-0.5-0.2
		c-0.1-0.1-0.2-0.3-0.2-0.6c0-0.2,0.1-0.4,0.2-0.6s0.3-0.2,0.5-0.2s0.4,0.1,0.5,0.2S71.5,270.7,71.5,271z"/>
	<path d="M74.3,272.5c0.2-0.1,0.5-0.1,0.8-0.2c0.3-0.1,0.7-0.1,1.1-0.1c0.4,0,0.7,0.1,0.9,0.2c0.2,0.1,0.4,0.3,0.6,0.4
		c0.1,0.2,0.2,0.4,0.3,0.7c0.1,0.3,0.1,0.6,0.1,0.9v2.7h-1.2v-2.5c0-0.4-0.1-0.8-0.2-1c-0.1-0.2-0.3-0.3-0.6-0.3c-0.1,0-0.2,0-0.3,0
		s-0.2,0-0.3,0v3.7h-1.2V272.5z"/>
	<path d="M83,276.4c0,0.8-0.2,1.3-0.6,1.7c-0.4,0.4-1,0.5-1.8,0.5c-0.3,0-0.6,0-0.8-0.1c-0.3-0.1-0.5-0.1-0.8-0.2l0.2-1
		c0.2,0.1,0.4,0.1,0.6,0.2s0.5,0.1,0.8,0.1c0.2,0,0.4,0,0.5-0.1c0.1-0.1,0.3-0.1,0.3-0.2c0.1-0.1,0.1-0.2,0.2-0.3
		c0-0.1,0.1-0.2,0.1-0.4v-0.2c-0.2,0.1-0.3,0.1-0.5,0.1c-0.1,0-0.3,0.1-0.5,0.1c-0.6,0-1.1-0.2-1.4-0.6c-0.3-0.4-0.5-0.9-0.5-1.6
		c0-0.8,0.2-1.3,0.6-1.7c0.4-0.4,1-0.6,1.7-0.6c0.5,0,1.1,0.1,1.7,0.3V276.4z M80.2,274.5c0,0.4,0.1,0.7,0.2,0.9
		c0.1,0.2,0.4,0.3,0.7,0.3c0.1,0,0.3,0,0.4-0.1c0.1,0,0.2-0.1,0.3-0.1v-2.3c-0.1,0-0.2,0-0.3,0c-0.1,0-0.1,0-0.2,0
		C80.6,273.2,80.2,273.6,80.2,274.5z"/>
</g>
<g>
	<polyline class="st0" points="82.9,59 77.9,64 82.9,69 	"/>
	<g>
		<g>
			<g>
				<line class="st3" x1="78.9" y1="64" x2="82.9" y2="64"/>
				<line class="st4" x1="90.9" y1="64" x2="134.9" y2="64"/>
				<line class="st3" x1="138.9" y1="64" x2="142.9" y2="64"/>
			</g>
		</g>
		<polyline class="st0" points="139.4,58.5 144.4,63.5 139.4,68.5 		"/>
	</g>
</g>
<g>
	<line class="st0" x1="144" y1="339" x2="91" y2="339"/>
	<polyline class="st0" points="139,344 144,339 139,334 	"/>
</g>
<g class="st2">
	<path d="M20.8,382l-0.3-1.7h-2l-0.3,1.7h-1.5c0.4-1.5,0.7-2.8,1.1-4c0.4-1.2,0.7-2.3,1-3.4h1.6c0.4,1.1,0.7,2.2,1,3.5s0.7,2.5,1,4
		H20.8z M19.5,376c-0.1,0.3-0.2,0.5-0.2,0.8c-0.1,0.3-0.1,0.5-0.2,0.7c-0.1,0.2-0.1,0.5-0.2,0.7c-0.1,0.2-0.1,0.5-0.1,0.8h1.5
		c0-0.3-0.1-0.5-0.1-0.8s-0.1-0.5-0.2-0.7c-0.1-0.2-0.1-0.5-0.2-0.7S19.6,376.3,19.5,376z"/>
	<path d="M28.1,381.8c0,0-0.1,0-0.2,0.1s-0.2,0.1-0.3,0.1c-0.1,0-0.3,0.1-0.5,0.1c-0.2,0-0.4,0-0.7,0c-0.7,0-1.2-0.2-1.5-0.6
		c-0.3-0.4-0.5-1-0.5-1.8V375h-1.6v-1.2h3v6.1c0,0.4,0.1,0.6,0.2,0.8c0.2,0.1,0.3,0.2,0.6,0.2c0.3,0,0.5,0,0.7-0.1
		c0.2-0.1,0.3-0.1,0.4-0.2L28.1,381.8z"/>
	<path d="M34.1,381.8c0,0-0.1,0-0.2,0.1s-0.2,0.1-0.3,0.1c-0.1,0-0.3,0.1-0.5,0.1c-0.2,0-0.4,0-0.7,0c-0.7,0-1.2-0.2-1.5-0.6
		c-0.3-0.4-0.5-1-0.5-1.8V375h-1.6v-1.2h3v6.1c0,0.4,0.1,0.6,0.2,0.8c0.2,0.1,0.3,0.2,0.6,0.2c0.3,0,0.5,0,0.7-0.1
		c0.2-0.1,0.3-0.1,0.4-0.2L34.1,381.8z"/>
	<path d="M45.7,381.8c-0.3,0.1-0.6,0.2-1,0.2c-0.4,0.1-0.8,0.1-1.2,0.1c-0.9,0-1.5-0.3-2-0.8c-0.5-0.5-0.7-1.2-0.7-2.1
		c0-0.9,0.2-1.6,0.6-2.2s0.9-0.8,1.7-0.8c0.2,0,0.4,0,0.6,0.1c0.2,0,0.4,0.1,0.5,0.2v-2.6l1.5-0.3V381.8z M42.3,379.1
		c0,0.5,0.1,0.9,0.3,1.2c0.2,0.3,0.5,0.5,0.9,0.5c0.1,0,0.2,0,0.3,0c0.1,0,0.2,0,0.3,0v-3.1c-0.1-0.1-0.2-0.1-0.4-0.2
		s-0.3-0.1-0.5-0.1c-0.4,0-0.6,0.1-0.8,0.4C42.4,378.2,42.3,378.6,42.3,379.1z"/>
	<path d="M52.2,379.2c0,0.4-0.1,0.9-0.2,1.2c-0.1,0.4-0.3,0.7-0.5,0.9c-0.2,0.3-0.5,0.5-0.8,0.6c-0.3,0.1-0.7,0.2-1.1,0.2
		c-0.4,0-0.8-0.1-1.1-0.2c-0.3-0.1-0.6-0.3-0.8-0.6s-0.4-0.6-0.5-0.9c-0.1-0.4-0.2-0.8-0.2-1.2c0-0.4,0.1-0.8,0.2-1.2
		c0.1-0.4,0.3-0.7,0.6-0.9c0.2-0.3,0.5-0.5,0.8-0.6c0.3-0.1,0.7-0.2,1.1-0.2c0.4,0,0.8,0.1,1.1,0.2c0.3,0.1,0.6,0.3,0.8,0.6
		c0.2,0.3,0.4,0.6,0.5,0.9C52.1,378.3,52.2,378.7,52.2,379.2z M48.3,379.2c0,0.5,0.1,0.9,0.3,1.2c0.2,0.3,0.5,0.5,0.9,0.5
		c0.4,0,0.7-0.2,0.9-0.5c0.2-0.3,0.3-0.7,0.3-1.2s-0.1-0.9-0.3-1.2c-0.2-0.3-0.5-0.5-0.9-0.5c-0.4,0-0.7,0.2-0.9,0.5
		C48.4,378.3,48.3,378.7,48.3,379.2z"/>
	<path d="M53.3,376.5c0.3-0.1,0.6-0.1,1-0.2c0.4-0.1,0.8-0.1,1.3-0.1c0.4,0,0.8,0.1,1.1,0.2c0.3,0.1,0.5,0.3,0.7,0.5
		c0.2,0.2,0.3,0.5,0.4,0.8c0.1,0.3,0.1,0.7,0.1,1.1v3.2h-1.5v-3c0-0.5-0.1-0.9-0.2-1.1c-0.1-0.2-0.4-0.3-0.7-0.3c-0.1,0-0.2,0-0.3,0
		c-0.1,0-0.2,0-0.3,0v4.4h-1.5V376.5z"/>
	<path d="M58.9,379.2c0-0.5,0.1-0.9,0.2-1.3c0.2-0.4,0.4-0.7,0.6-0.9c0.2-0.3,0.5-0.4,0.9-0.6c0.3-0.1,0.6-0.2,1-0.2
		c0.8,0,1.5,0.2,1.9,0.7c0.4,0.5,0.6,1.2,0.6,2.2c0,0.1,0,0.2,0,0.3c0,0.1,0,0.2,0,0.3h-3.7c0,0.4,0.2,0.7,0.5,0.9
		c0.3,0.2,0.7,0.3,1.2,0.3c0.3,0,0.6,0,0.8-0.1c0.3-0.1,0.5-0.1,0.7-0.2l0.2,1.3c-0.3,0.1-0.5,0.2-0.8,0.2s-0.6,0.1-1,0.1
		c-0.5,0-0.9-0.1-1.3-0.2c-0.4-0.1-0.7-0.3-1-0.6c-0.3-0.2-0.5-0.5-0.6-0.9C58.9,380.1,58.9,379.7,58.9,379.2z M62.7,378.6
		c0-0.2,0-0.3-0.1-0.4s-0.1-0.3-0.2-0.4s-0.2-0.2-0.3-0.3c-0.1-0.1-0.3-0.1-0.5-0.1c-0.2,0-0.4,0-0.5,0.1c-0.1,0.1-0.3,0.2-0.3,0.3
		c-0.1,0.1-0.2,0.2-0.2,0.4c-0.1,0.1-0.1,0.3-0.1,0.4H62.7z"/>
</g>
<g>
	<g>
		<path d="M67.9,323.4v10.3c0,2.3,1.1,3.4,3.4,3.4c0.5,0,0.9,0.2,1.2,0.5c0.3,0.3,0.5,0.7,0.5,1.2s-0.2,0.9-0.5,1.2
			c-0.3,0.3-0.7,0.5-1.2,0.5c-2.3,0-3.4,1.1-3.4,3.4v10.3c0,4.6-2.3,6.8-6.8,6.8c-0.5,0-0.9-0.2-1.2-0.5s-0.5-0.7-0.5-1.2
			s0.2-0.9,0.5-1.2c0.3-0.3,0.7-0.5,1.2-0.5c2.3,0,3.4-1.1,3.4-3.4V344c0-2.3,0.6-4,1.7-5.1c-1.1-1.1-1.7-2.9-1.7-5.1v-10.3
			c0-2.3-1.1-3.4-3.4-3.4c-0.5,0-0.9-0.2-1.2-0.5s-0.5-0.7-0.5-1.2s0.2-0.9,0.5-1.2c0.3-0.3,0.7-0.5,1.2-0.5
			C65.6,316.6,67.9,318.9,67.9,323.4z"/>
	</g>
	<g>
		<path d="M19,316.6c0.5,0,0.9,0.2,1.2,0.5c0.3,0.3,0.5,0.7,0.5,1.2s-0.2,0.9-0.5,1.2c-0.3,0.3-0.7,0.5-1.2,0.5
			c-2.3,0-3.4,1.1-3.4,3.4v10.3c0,2.3-0.6,4-1.7,5.1c1.1,1.1,1.7,2.9,1.7,5.1v10.3c0,2.3,1.1,3.4,3.4,3.4c0.5,0,0.9,0.2,1.2,0.5
			c0.3,0.3,0.5,0.7,0.5,1.2s-0.2,0.9-0.5,1.2c-0.3,0.3-0.7,0.5-1.2,0.5c-4.6,0-6.8-2.3-6.8-6.8V344c0-2.3-1.1-3.4-3.4-3.4
			c-0.5,0-0.9-0.2-1.2-0.5c-0.3-0.3-0.5-0.7-0.5-1.2s0.2-0.9,0.5-1.2c0.3-0.3,0.7-0.5,1.2-0.5c2.3,0,3.4-1.1,3.4-3.4v-10.3
			C12.1,318.9,14.4,316.6,19,316.6z"/>
	</g>
</g>
<polyline class="st1" points="28.1,336.8 38.9,354 53.7,325 "/>
<g>
	<path class="st1" d="M46,209l7.4,4.7c1.9-1.4,3.6-3.1,5-5l-4.7-7.4c0.6-1.2,1.2-2.4,1.6-3.8l8.5-1.9c0.2-1.2,0.2-2.3,0.2-3.5
		s-0.1-2.4-0.2-3.5l-8.5-1.9c-0.4-1.3-0.9-2.6-1.6-3.8l4.7-7.4c-1.4-1.9-3.1-3.6-5-5L46,175c-1.2-0.6-2.4-1.2-3.8-1.6l-1.9-8.5
		c-1.2-0.2-2.3-0.2-3.5-0.2s-2.4,0.1-3.5,0.2l-1.9,8.5c-1.3,0.4-2.6,0.9-3.8,1.6l-7.4-4.7c-1.9,1.4-3.6,3.1-5,5l4.7,7.4
		c-0.6,1.2-1.2,2.4-1.6,3.8l-8.5,1.9c-0.2,1.2-0.2,2.3-0.2,3.5s0.1,2.4,0.2,3.5l8.5,1.9c0.4,1.3,0.9,2.6,1.6,3.8l-4.7,7.4
		c1.4,1.9,3.1,3.6,5,5l7.4-4.7"/>
	<g>
		<path class="st1" d="M41.4,217.6h-9.5l9.5-4.9h-9.5l10.2-5.8l0,0c0.3-2.4,0.6-5.7,2.4-7.6c1.1-1.2,2-2.6,2.4-4.2
			c0.3-1.3,0.4-2.6,0.2-4c-0.6-4.2-3.7-7.6-7.7-8.6c-0.9-0.2-1.7-0.3-2.6-0.3c-0.8,0-1.7,0.1-2.6,0.3c-4.1,1-7.1,4.5-7.7,8.7
			c-0.2,1.4-0.1,2.8,0.3,4c0.4,1.6,1.3,3,2.4,4.2c1.8,1.9,2.2,4.8,2.4,7.2"/>
	</g>
</g>
<g class="st2">
	<path d="M9.2,231.3c0,0.7-0.1,1.3-0.3,1.8s-0.4,0.9-0.7,1.2c-0.3,0.3-0.7,0.5-1.1,0.7s-0.9,0.2-1.4,0.2c-0.3,0-0.5,0-0.8,0
		s-0.5-0.1-0.8-0.1v-7.2c0.3-0.1,0.7-0.1,0.9-0.1c0.3,0,0.6,0,0.8,0c0.5,0,0.9,0.1,1.3,0.2c0.4,0.1,0.7,0.4,1,0.7
		c0.3,0.3,0.5,0.7,0.7,1.2C9.1,230,9.2,230.6,9.2,231.3z M5.6,233.8c0,0,0.1,0,0.1,0c0,0,0.1,0,0.1,0c0.3,0,0.6-0.1,0.8-0.2
		s0.4-0.3,0.6-0.5c0.1-0.2,0.2-0.5,0.3-0.8c0.1-0.3,0.1-0.6,0.1-1c0-0.3,0-0.6-0.1-0.9c0-0.3-0.1-0.6-0.3-0.8s-0.3-0.4-0.5-0.6
		c-0.2-0.1-0.5-0.2-0.8-0.2c-0.1,0-0.1,0-0.2,0s-0.2,0-0.2,0V233.8z"/>
	<path d="M9.9,232.2c0-0.5,0.1-0.9,0.2-1.3c0.2-0.4,0.4-0.7,0.6-0.9c0.2-0.3,0.5-0.4,0.9-0.6c0.3-0.1,0.6-0.2,1-0.2
		c0.8,0,1.5,0.2,1.9,0.7c0.4,0.5,0.6,1.2,0.6,2.2c0,0.1,0,0.2,0,0.3c0,0.1,0,0.2,0,0.3h-3.7c0,0.4,0.2,0.7,0.5,0.9
		c0.3,0.2,0.7,0.3,1.2,0.3c0.3,0,0.6,0,0.8-0.1c0.3-0.1,0.5-0.1,0.7-0.2l0.2,1.3c-0.3,0.1-0.5,0.2-0.8,0.2s-0.6,0.1-1,0.1
		c-0.5,0-0.9-0.1-1.3-0.2c-0.4-0.1-0.7-0.3-1-0.6c-0.3-0.2-0.5-0.5-0.6-0.9C9.9,233.1,9.9,232.7,9.9,232.2z M13.7,231.6
		c0-0.2,0-0.3-0.1-0.4s-0.1-0.3-0.2-0.4s-0.2-0.2-0.3-0.3c-0.1-0.1-0.3-0.1-0.5-0.1c-0.2,0-0.4,0-0.5,0.1c-0.1,0.1-0.3,0.2-0.3,0.3
		c-0.1,0.1-0.2,0.2-0.2,0.4c-0.1,0.1-0.1,0.3-0.1,0.4H13.7z"/>
	<path d="M17.8,235c-0.4-0.7-0.7-1.5-1.1-2.5s-0.7-2-1.1-3.1h1.5c0.1,0.3,0.2,0.6,0.3,1c0.1,0.3,0.2,0.7,0.3,1
		c0.1,0.3,0.2,0.7,0.3,1c0.1,0.3,0.2,0.6,0.3,0.9c0.1-0.3,0.2-0.6,0.3-0.9s0.3-0.7,0.4-1s0.2-0.7,0.4-1c0.1-0.3,0.2-0.7,0.3-1h1.5
		c-0.3,1.1-0.7,2.2-1.1,3.1c-0.4,1-0.8,1.8-1.2,2.5H17.8z"/>
	<path d="M21.9,232.2c0-0.5,0.1-0.9,0.2-1.3c0.2-0.4,0.4-0.7,0.6-0.9c0.2-0.3,0.5-0.4,0.9-0.6c0.3-0.1,0.6-0.2,1-0.2
		c0.8,0,1.5,0.2,1.9,0.7c0.4,0.5,0.6,1.2,0.6,2.2c0,0.1,0,0.2,0,0.3c0,0.1,0,0.2,0,0.3h-3.7c0,0.4,0.2,0.7,0.5,0.9
		c0.3,0.2,0.7,0.3,1.2,0.3c0.3,0,0.6,0,0.8-0.1c0.3-0.1,0.5-0.1,0.7-0.2l0.2,1.3c-0.3,0.1-0.5,0.2-0.8,0.2s-0.6,0.1-1,0.1
		c-0.5,0-0.9-0.1-1.3-0.2c-0.4-0.1-0.7-0.3-1-0.6c-0.3-0.2-0.5-0.5-0.6-0.9C21.9,233.1,21.9,232.7,21.9,232.2z M25.7,231.6
		c0-0.2,0-0.3-0.1-0.4s-0.1-0.3-0.2-0.4s-0.2-0.2-0.3-0.3c-0.1-0.1-0.3-0.1-0.5-0.1c-0.2,0-0.4,0-0.5,0.1c-0.1,0.1-0.3,0.2-0.3,0.3
		c-0.1,0.1-0.2,0.2-0.2,0.4c-0.1,0.1-0.1,0.3-0.1,0.4H25.7z"/>
	<path d="M33.1,234.8c0,0-0.1,0-0.2,0.1s-0.2,0.1-0.3,0.1c-0.1,0-0.3,0.1-0.5,0.1c-0.2,0-0.4,0-0.7,0c-0.7,0-1.2-0.2-1.5-0.6
		c-0.3-0.4-0.5-1-0.5-1.8V228h-1.6v-1.2h3v6.1c0,0.4,0.1,0.6,0.2,0.8c0.2,0.1,0.3,0.2,0.6,0.2c0.3,0,0.5,0,0.7-0.1
		c0.2-0.1,0.3-0.1,0.4-0.2L33.1,234.8z"/>
	<path d="M39.2,232.2c0,0.4-0.1,0.9-0.2,1.2c-0.1,0.4-0.3,0.7-0.5,0.9c-0.2,0.3-0.5,0.5-0.8,0.6c-0.3,0.1-0.7,0.2-1.1,0.2
		c-0.4,0-0.8-0.1-1.1-0.2c-0.3-0.1-0.6-0.3-0.8-0.6s-0.4-0.6-0.5-0.9c-0.1-0.4-0.2-0.8-0.2-1.2c0-0.4,0.1-0.8,0.2-1.2
		c0.1-0.4,0.3-0.7,0.6-0.9c0.2-0.3,0.5-0.5,0.8-0.6c0.3-0.1,0.7-0.2,1.1-0.2c0.4,0,0.8,0.1,1.1,0.2c0.3,0.1,0.6,0.3,0.8,0.6
		c0.2,0.3,0.4,0.6,0.5,0.9C39.1,231.3,39.2,231.7,39.2,232.2z M35.3,232.2c0,0.5,0.1,0.9,0.3,1.2c0.2,0.3,0.5,0.5,0.9,0.5
		c0.4,0,0.7-0.2,0.9-0.5c0.2-0.3,0.3-0.7,0.3-1.2s-0.1-0.9-0.3-1.2c-0.2-0.3-0.5-0.5-0.9-0.5c-0.4,0-0.7,0.2-0.9,0.5
		C35.4,231.3,35.3,231.7,35.3,232.2z"/>
	<path d="M45.1,232.2c0,0.4,0,0.8-0.1,1.2c-0.1,0.4-0.2,0.7-0.4,0.9c-0.2,0.3-0.4,0.5-0.7,0.6c-0.3,0.1-0.6,0.2-1,0.2
		c-0.4,0-0.8-0.1-1.2-0.3v2.1h-1.5v-7.4c0.3-0.1,0.6-0.2,1-0.2s0.8-0.1,1.2-0.1c0.9,0,1.5,0.3,2,0.8
		C44.9,230.6,45.1,231.3,45.1,232.2z M43.6,232.2c0-0.5-0.1-0.9-0.3-1.2c-0.2-0.3-0.5-0.5-0.9-0.5c-0.1,0-0.2,0-0.4,0
		c-0.1,0-0.2,0-0.3,0v3.1c0.1,0.1,0.2,0.1,0.4,0.2c0.2,0,0.3,0.1,0.5,0.1c0.4,0,0.6-0.1,0.8-0.4C43.5,233.2,43.6,232.7,43.6,232.2z"
		/>
	<path d="M49.6,229.3c0.3,0,0.6,0,0.8,0.1c0.2,0.1,0.4,0.2,0.5,0.4c0.1,0.2,0.2,0.4,0.2,0.7c0,0.3,0.1,0.6,0.1,1v3.4H50v-3.4
		c0-0.2,0-0.4,0-0.5c0-0.1-0.1-0.2-0.1-0.3s-0.1-0.1-0.2-0.1c-0.1,0-0.1,0-0.2,0c-0.1,0-0.1,0-0.2,0s-0.2,0-0.2,0.1
		c0,0.2,0,0.3,0.1,0.5c0,0.2,0,0.4,0,0.6v1.1h-1.2v-1.3c0-0.4,0-0.7-0.1-0.8c-0.1-0.2-0.2-0.2-0.4-0.2c0,0-0.1,0-0.2,0
		c-0.1,0-0.1,0-0.2,0v4.4h-1.2v-5.4c0.3-0.1,0.6-0.2,0.9-0.2s0.6-0.1,0.8-0.1c0.2,0,0.4,0,0.6,0.1s0.3,0.1,0.4,0.3
		c0.1-0.1,0.3-0.2,0.5-0.2C49.2,229.3,49.4,229.3,49.6,229.3z"/>
	<path d="M51.9,232.2c0-0.5,0.1-0.9,0.2-1.3c0.2-0.4,0.4-0.7,0.6-0.9c0.2-0.3,0.5-0.4,0.9-0.6c0.3-0.1,0.6-0.2,1-0.2
		c0.8,0,1.5,0.2,1.9,0.7c0.4,0.5,0.6,1.2,0.6,2.2c0,0.1,0,0.2,0,0.3c0,0.1,0,0.2,0,0.3h-3.7c0,0.4,0.2,0.7,0.5,0.9
		c0.3,0.2,0.7,0.3,1.2,0.3c0.3,0,0.6,0,0.8-0.1c0.3-0.1,0.5-0.1,0.7-0.2l0.2,1.3c-0.3,0.1-0.5,0.2-0.8,0.2s-0.6,0.1-1,0.1
		c-0.5,0-0.9-0.1-1.3-0.2c-0.4-0.1-0.7-0.3-1-0.6c-0.3-0.2-0.5-0.5-0.6-0.9C51.9,233.1,51.9,232.7,51.9,232.2z M55.7,231.6
		c0-0.2,0-0.3-0.1-0.4s-0.1-0.3-0.2-0.4s-0.2-0.2-0.3-0.3c-0.1-0.1-0.3-0.1-0.5-0.1c-0.2,0-0.4,0-0.5,0.1c-0.1,0.1-0.3,0.2-0.3,0.3
		c-0.1,0.1-0.2,0.2-0.2,0.4c-0.1,0.1-0.1,0.3-0.1,0.4H55.7z"/>
	<path d="M58.3,229.5c0.3-0.1,0.6-0.1,1-0.2c0.4-0.1,0.8-0.1,1.3-0.1c0.4,0,0.8,0.1,1.1,0.2c0.3,0.1,0.5,0.3,0.7,0.5
		c0.2,0.2,0.3,0.5,0.4,0.8c0.1,0.3,0.1,0.7,0.1,1.1v3.2h-1.5v-3c0-0.5-0.1-0.9-0.2-1.1c-0.1-0.2-0.4-0.3-0.7-0.3c-0.1,0-0.2,0-0.3,0
		c-0.1,0-0.2,0-0.3,0v4.4h-1.5V229.5z"/>
	<path d="M65.2,230.6h-1.3v-1.2h1.3v-1.4l1.5-0.2v1.7h2.4v1.2h-2.4v2.3c0,0.2,0,0.4,0.1,0.5s0.1,0.2,0.2,0.3
		c0.1,0.1,0.2,0.1,0.3,0.1c0.1,0,0.2,0,0.3,0c0.1,0,0.3,0,0.4,0c0.1,0,0.2,0,0.3,0c0.1,0,0.2,0,0.3-0.1c0.1,0,0.2-0.1,0.4-0.2
		l0.2,1.3c-0.3,0.1-0.6,0.2-0.9,0.2c-0.3,0-0.6,0.1-0.9,0.1c-0.3,0-0.6,0-0.9-0.1c-0.3-0.1-0.5-0.2-0.7-0.3
		c-0.2-0.2-0.3-0.4-0.4-0.7c-0.1-0.3-0.1-0.7-0.1-1.1V230.6z"/>
</g>
<g class="st2">
	<path d="M173.6,80c0.4,0,0.8,0,1.2,0.1c0.3,0.1,0.6,0.2,0.9,0.4s0.4,0.5,0.6,0.8c0.1,0.3,0.2,0.7,0.2,1.1c0,0.4-0.1,0.8-0.3,1.2
		c-0.2,0.4-0.5,0.6-0.9,0.8c0.1,0.2,0.3,0.4,0.4,0.7s0.3,0.5,0.4,0.8c0.1,0.3,0.3,0.6,0.4,0.8c0.1,0.3,0.2,0.5,0.3,0.8h-1.5
		c-0.2-0.5-0.4-0.9-0.6-1.4c-0.2-0.4-0.5-0.9-0.8-1.4h-0.8v2.7h-1.5v-7.3c0.1,0,0.3-0.1,0.5-0.1c0.2,0,0.3,0,0.5-0.1
		c0.2,0,0.3,0,0.5,0S173.4,80,173.6,80z M174.9,82.4c0-0.4-0.1-0.7-0.4-0.9c-0.2-0.2-0.6-0.3-0.9-0.3c-0.1,0-0.1,0-0.2,0
		c-0.1,0-0.2,0-0.2,0v2.2h0.3c0.5,0,0.9-0.1,1.1-0.3S174.9,82.8,174.9,82.4z"/>
	<path d="M177.4,84.7c0-0.5,0.1-0.9,0.2-1.3s0.4-0.7,0.6-0.9c0.2-0.3,0.5-0.4,0.9-0.6c0.3-0.1,0.6-0.2,1-0.2c0.8,0,1.5,0.2,1.9,0.7
		s0.6,1.2,0.6,2.2c0,0.1,0,0.2,0,0.3c0,0.1,0,0.2,0,0.3h-3.7c0,0.4,0.2,0.7,0.5,0.9c0.3,0.2,0.7,0.3,1.2,0.3c0.3,0,0.6,0,0.8-0.1
		c0.3-0.1,0.5-0.1,0.7-0.2l0.2,1.3c-0.3,0.1-0.5,0.2-0.8,0.2c-0.3,0.1-0.6,0.1-1,0.1c-0.5,0-0.9-0.1-1.3-0.2c-0.4-0.1-0.7-0.3-1-0.6
		c-0.3-0.2-0.5-0.5-0.6-0.9C177.4,85.6,177.4,85.2,177.4,84.7z M181.2,84.1c0-0.2,0-0.3-0.1-0.4s-0.1-0.3-0.2-0.4s-0.2-0.2-0.3-0.3
		c-0.1-0.1-0.3-0.1-0.5-0.1c-0.2,0-0.4,0-0.5,0.1c-0.1,0.1-0.3,0.2-0.3,0.3c-0.1,0.1-0.2,0.2-0.2,0.4c-0.1,0.1-0.1,0.3-0.1,0.4
		H181.2z"/>
	<path d="M185.7,86.4c0.4,0,0.6,0,0.8-0.1c0.2-0.1,0.3-0.2,0.3-0.3c0-0.1,0-0.2-0.1-0.3c-0.1-0.1-0.1-0.1-0.3-0.2
		c-0.1-0.1-0.2-0.1-0.4-0.2c-0.1,0-0.3-0.1-0.4-0.1c-0.2-0.1-0.4-0.1-0.7-0.2s-0.4-0.2-0.6-0.3s-0.3-0.3-0.5-0.5
		c-0.1-0.2-0.2-0.4-0.2-0.7c0-0.2,0-0.5,0.1-0.7s0.2-0.4,0.4-0.6c0.2-0.2,0.4-0.3,0.8-0.4c0.3-0.1,0.7-0.1,1.1-0.1
		c0.4,0,0.7,0,1,0.1c0.3,0.1,0.6,0.1,0.8,0.2l-0.2,1.2c-0.1,0-0.3-0.1-0.6-0.2c-0.3-0.1-0.6-0.1-1-0.1c-0.4,0-0.6,0-0.8,0.1
		s-0.2,0.2-0.2,0.3c0,0.1,0,0.2,0.1,0.2c0.1,0.1,0.1,0.1,0.2,0.2c0.1,0.1,0.2,0.1,0.3,0.2c0.1,0.1,0.3,0.1,0.4,0.2
		c0.2,0.1,0.4,0.2,0.7,0.2c0.2,0.1,0.4,0.2,0.6,0.3c0.2,0.1,0.3,0.3,0.5,0.5c0.1,0.2,0.2,0.5,0.2,0.8c0,0.2,0,0.5-0.1,0.7
		c-0.1,0.2-0.2,0.4-0.4,0.5c-0.2,0.2-0.5,0.3-0.8,0.4s-0.7,0.1-1.2,0.1c-0.5,0-0.9-0.1-1.2-0.2c-0.3-0.1-0.6-0.2-0.8-0.3l0.2-1.2
		c0.3,0.1,0.6,0.2,0.9,0.3C185.1,86.3,185.4,86.4,185.7,86.4z"/>
	<path d="M189.4,84.7c0-0.5,0.1-0.9,0.2-1.3s0.4-0.7,0.6-0.9c0.2-0.3,0.5-0.4,0.9-0.6c0.3-0.1,0.6-0.2,1-0.2c0.8,0,1.5,0.2,1.9,0.7
		s0.6,1.2,0.6,2.2c0,0.1,0,0.2,0,0.3c0,0.1,0,0.2,0,0.3h-3.7c0,0.4,0.2,0.7,0.5,0.9c0.3,0.2,0.7,0.3,1.2,0.3c0.3,0,0.6,0,0.8-0.1
		c0.3-0.1,0.5-0.1,0.7-0.2l0.2,1.3c-0.3,0.1-0.5,0.2-0.8,0.2c-0.3,0.1-0.6,0.1-1,0.1c-0.5,0-0.9-0.1-1.3-0.2c-0.4-0.1-0.7-0.3-1-0.6
		c-0.3-0.2-0.5-0.5-0.6-0.9C189.4,85.6,189.4,85.2,189.4,84.7z M193.2,84.1c0-0.2,0-0.3-0.1-0.4s-0.1-0.3-0.2-0.4s-0.2-0.2-0.3-0.3
		c-0.1-0.1-0.3-0.1-0.5-0.1c-0.2,0-0.4,0-0.5,0.1c-0.1,0.1-0.3,0.2-0.3,0.3c-0.1,0.1-0.2,0.2-0.2,0.4c-0.1,0.1-0.1,0.3-0.1,0.4
		H193.2z"/>
	<path d="M197.9,81.7c0.5,0,0.9,0.1,1.2,0.2s0.6,0.3,0.7,0.5c0.2,0.2,0.3,0.4,0.4,0.7c0.1,0.3,0.1,0.6,0.1,1v3.4
		c-0.2,0-0.5,0.1-1,0.2c-0.4,0.1-0.9,0.1-1.4,0.1c-0.4,0-0.7,0-1-0.1c-0.3-0.1-0.5-0.2-0.8-0.3c-0.2-0.1-0.4-0.3-0.5-0.6
		c-0.1-0.2-0.2-0.5-0.2-0.9c0-0.3,0.1-0.6,0.2-0.8c0.1-0.2,0.3-0.4,0.5-0.5c0.2-0.1,0.5-0.2,0.7-0.3c0.3-0.1,0.6-0.1,0.9-0.1
		c0.4,0,0.7,0,1,0.1v-0.2c0-0.3-0.1-0.5-0.3-0.7c-0.2-0.2-0.5-0.3-0.9-0.3c-0.3,0-0.5,0-0.8,0.1c-0.3,0-0.5,0.1-0.6,0.1l-0.2-1.2
		c0.2-0.1,0.4-0.1,0.8-0.2S197.5,81.7,197.9,81.7z M198,86.4c0.2,0,0.3,0,0.5,0c0.2,0,0.3,0,0.4,0v-1.3c-0.1,0-0.2,0-0.3,0
		c-0.1,0-0.3,0-0.4,0c-0.2,0-0.3,0-0.4,0c-0.1,0-0.3,0.1-0.4,0.1c-0.1,0-0.2,0.1-0.3,0.2c-0.1,0.1-0.1,0.2-0.1,0.3
		c0,0.3,0.1,0.4,0.3,0.5C197.5,86.4,197.7,86.4,198,86.4z"/>
	<path d="M206.2,83.4c-0.1,0-0.2,0-0.3-0.1c-0.1,0-0.3,0-0.4-0.1c-0.1,0-0.3,0-0.4,0c-0.1,0-0.2,0-0.3,0c-0.2,0-0.4,0-0.6,0
		c-0.2,0-0.4,0.1-0.6,0.1v4.2h-1.5v-5.3c0.4-0.1,0.8-0.3,1.2-0.3s0.9-0.1,1.4-0.1c0.1,0,0.2,0,0.3,0c0.1,0,0.3,0,0.5,0
		c0.2,0,0.3,0,0.5,0.1s0.3,0.1,0.5,0.1L206.2,83.4z"/>
	<path d="M207.5,84.7c0-0.4,0.1-0.8,0.2-1.2c0.1-0.4,0.3-0.7,0.6-0.9c0.3-0.3,0.6-0.5,1-0.6c0.4-0.2,0.9-0.2,1.4-0.2
		c0.3,0,0.6,0,0.9,0.1s0.5,0.1,0.8,0.2l-0.3,1.2c-0.2-0.1-0.3-0.1-0.5-0.1c-0.2,0-0.4-0.1-0.8-0.1c-0.4,0-0.6,0-0.9,0.1
		s-0.4,0.2-0.6,0.3c-0.1,0.1-0.2,0.3-0.3,0.5s-0.1,0.4-0.1,0.7c0,0.5,0.1,0.9,0.4,1.2s0.8,0.4,1.5,0.4c0.2,0,0.5,0,0.7,0
		c0.3,0,0.5-0.1,0.7-0.2l0.2,1.2c-0.2,0.1-0.5,0.1-0.8,0.2s-0.6,0.1-1,0.1c-0.6,0-1.1-0.1-1.5-0.2c-0.4-0.2-0.8-0.4-1-0.6
		c-0.3-0.3-0.5-0.6-0.6-0.9C207.6,85.5,207.5,85.1,207.5,84.7z"/>
	<path d="M213.8,87.5v-8.1l1.5-0.3v2.7c0.1,0,0.3-0.1,0.4-0.1s0.3-0.1,0.4-0.1c0.4,0,0.8,0.1,1,0.2c0.3,0.1,0.5,0.3,0.7,0.5
		c0.2,0.2,0.3,0.5,0.4,0.8c0.1,0.3,0.1,0.7,0.1,1.1v3.2h-1.5v-3c0-0.5-0.1-0.9-0.2-1.1c-0.1-0.2-0.3-0.3-0.7-0.3c-0.1,0-0.3,0-0.4,0
		s-0.2,0.1-0.3,0.1v4.3H213.8z"/>
</g>
<g>
	<g>
		<g>
			<path class="st5" d="M206.3,69.5h-23.1c-2.6,0-4.7-2.1-4.7-4.7V21.2c0-2.6,2.1-4.7,4.7-4.7h20.6c0.5,0,1,0.2,1.3,0.5l5.4,5.4
				c0.4,0.4,0.6,0.8,0.6,1.3v41.1C211,67.4,208.9,69.5,206.3,69.5z"/>
			<path class="st5" d="M204.5,16.4V22c0,0.5,0.4,0.9,0.9,0.9h5.6"/>
		</g>
		<line class="st6" x1="184" y1="28.1" x2="198.4" y2="28.1"/>
		<line class="st6" x1="184" y1="32.7" x2="205.9" y2="32.7"/>
		<line class="st6" x1="184" y1="37.4" x2="205.9" y2="37.4"/>
		<line class="st6" x1="184" y1="43" x2="205.9" y2="43"/>
		<line class="st6" x1="184" y1="47.6" x2="205.9" y2="47.6"/>
		<line class="st6" x1="184.4" y1="52.3" x2="205.9" y2="52.3"/>
	</g>
	<g>
		<path class="st7" d="M174.7,70c-2.3,0-4.2-1.5-4.8-3.7l-6.5-26.7c-0.6-2.6,1-5.3,3.6-5.9l14.9-3.6c0.4-0.1,0.8-0.1,1.2-0.1
			c2.3,0,4.2,1.5,4.8,3.7l6.5,26.7c0.6,2.6-1,5.3-3.6,5.9l-14.9,3.6C175.4,70,175.1,70,174.7,70z"/>
		<path class="st8" d="M190.3,64.4c1.6-0.4,2.6-2.1,2.2-3.7L186,34.1c-0.4-1.6-2.1-2.6-3.7-2.2l-14.9,3.6c-1.6,0.4-2.6,2.1-2.2,3.7
			l6.5,26.7c0.4,1.6,2.1,2.6,3.7,2.2L190.3,64.4z"/>
		<path class="st9" d="M183.2,38.7l0.6,2.3c0.1,0.4-0.2,0.9-0.6,1l-11.4,2.8c-0.4,0.1-0.9-0.2-1-0.6l-0.6-2.3
			c-0.1-0.4,0.2-0.9,0.6-1l11.4-2.8C182.6,38,183.1,38.3,183.2,38.7z"/>
		<path d="M174.7,51.2l-1.8,0.4c-0.4,0.1-0.7-0.1-0.8-0.5l-0.4-1.8c-0.1-0.4,0.1-0.7,0.5-0.8l1.8-0.4c0.4-0.1,0.7,0.1,0.8,0.5
			l0.4,1.8C175.3,50.8,175.1,51.1,174.7,51.2z"/>
		<path d="M180,49.9l-1.8,0.4c-0.4,0.1-0.7-0.1-0.8-0.5L177,48c-0.1-0.4,0.1-0.7,0.5-0.8l1.8-0.4c0.4-0.1,0.7,0.1,0.8,0.5l0.4,1.8
			C180.6,49.5,180.4,49.8,180,49.9z"/>
		<path d="M185.3,48.6l-1.8,0.4c-0.4,0.1-0.7-0.1-0.8-0.5l-0.4-1.8c-0.1-0.4,0.1-0.7,0.5-0.8l1.8-0.4c0.4-0.1,0.7,0.1,0.8,0.5
			l0.4,1.8C185.9,48.2,185.7,48.5,185.3,48.6z"/>
		<path d="M176.2,57.4l-1.8,0.4c-0.4,0.1-0.7-0.1-0.8-0.5l-0.4-1.8c-0.1-0.4,0.1-0.7,0.5-0.8l1.8-0.4c0.4-0.1,0.7,0.1,0.8,0.5
			l0.4,1.8C176.8,57,176.6,57.3,176.2,57.4z"/>
		<path d="M181.6,56.1l-1.8,0.4c-0.4,0.1-0.7-0.1-0.8-0.5l-0.4-1.8c-0.1-0.4,0.1-0.7,0.5-0.8l1.8-0.4c0.4-0.1,0.7,0.1,0.8,0.5
			l0.4,1.8C182.1,55.7,181.9,56,181.6,56.1z"/>
		<path d="M177.8,63.6L176,64c-0.4,0.1-0.7-0.1-0.8-0.5l-0.4-1.8c-0.1-0.4,0.1-0.7,0.5-0.8l1.8-0.4c0.4-0.1,0.7,0.1,0.8,0.5l0.4,1.8
			C178.3,63.2,178.1,63.6,177.8,63.6z"/>
		<path d="M183.1,62.3l-1.8,0.4c-0.4,0.1-0.7-0.1-0.8-0.5l-0.4-1.8c-0.1-0.4,0.1-0.7,0.5-0.8l1.8-0.4c0.4-0.1,0.7,0.1,0.8,0.5
			l0.4,1.8C183.6,61.9,183.4,62.3,183.1,62.3z"/>
		<path d="M188.4,61l-1.9,0.5c-0.3,0.1-0.7-0.1-0.8-0.5l-2-8.1c-0.1-0.3,0.1-0.7,0.5-0.8l1.9-0.5c0.3-0.1,0.7,0.1,0.8,0.5l2,8.1
			C189,60.6,188.7,61,188.4,61z"/>
	</g>
</g>
<g class="st2">
	<path d="M172.7,226.1v1.2h-2v6.2h-1.5v-6.2h-2v-1.2H172.7z"/>
	<path d="M173.4,230.7c0-0.5,0.1-0.9,0.2-1.3s0.4-0.7,0.6-0.9c0.2-0.3,0.5-0.4,0.9-0.6c0.3-0.1,0.6-0.2,1-0.2c0.8,0,1.5,0.2,1.9,0.7
		s0.6,1.2,0.6,2.2c0,0.1,0,0.2,0,0.3c0,0.1,0,0.2,0,0.3h-3.7c0,0.4,0.2,0.7,0.5,0.9c0.3,0.2,0.7,0.3,1.2,0.3c0.3,0,0.6,0,0.8-0.1
		c0.3-0.1,0.5-0.1,0.7-0.2l0.2,1.3c-0.3,0.1-0.5,0.2-0.8,0.2c-0.3,0.1-0.6,0.1-1,0.1c-0.5,0-0.9-0.1-1.3-0.2c-0.4-0.1-0.7-0.3-1-0.6
		c-0.3-0.2-0.5-0.5-0.6-0.9C173.4,231.6,173.4,231.2,173.4,230.7z M177.2,230.1c0-0.2,0-0.3-0.1-0.4s-0.1-0.3-0.2-0.4
		s-0.2-0.2-0.3-0.3c-0.1-0.1-0.3-0.1-0.5-0.1c-0.2,0-0.4,0-0.5,0.1c-0.1,0.1-0.3,0.2-0.3,0.3c-0.1,0.1-0.2,0.2-0.2,0.4
		c-0.1,0.1-0.1,0.3-0.1,0.4H177.2z"/>
	<path d="M179.5,230.7c0-0.4,0.1-0.8,0.2-1.2c0.1-0.4,0.3-0.7,0.6-0.9c0.3-0.3,0.6-0.5,1-0.6c0.4-0.2,0.9-0.2,1.4-0.2
		c0.3,0,0.6,0,0.9,0.1s0.5,0.1,0.8,0.2l-0.3,1.2c-0.2-0.1-0.3-0.1-0.5-0.1c-0.2,0-0.4-0.1-0.8-0.1c-0.4,0-0.6,0-0.9,0.1
		s-0.4,0.2-0.6,0.3c-0.1,0.1-0.2,0.3-0.3,0.5s-0.1,0.4-0.1,0.7c0,0.5,0.1,0.9,0.4,1.2s0.8,0.4,1.5,0.4c0.2,0,0.5,0,0.7,0
		c0.3,0,0.5-0.1,0.7-0.2l0.2,1.2c-0.2,0.1-0.5,0.1-0.8,0.2s-0.6,0.1-1,0.1c-0.6,0-1.1-0.1-1.5-0.2c-0.4-0.2-0.8-0.4-1-0.6
		c-0.3-0.3-0.5-0.6-0.6-0.9C179.6,231.5,179.5,231.1,179.5,230.7z"/>
	<path d="M185.8,233.5v-8.1l1.5-0.3v2.7c0.1,0,0.3-0.1,0.4-0.1s0.3-0.1,0.4-0.1c0.4,0,0.8,0.1,1,0.2c0.3,0.1,0.5,0.3,0.7,0.5
		c0.2,0.2,0.3,0.5,0.4,0.8c0.1,0.3,0.1,0.7,0.1,1.1v3.2h-1.5v-3c0-0.5-0.1-0.9-0.2-1.1c-0.1-0.2-0.3-0.3-0.7-0.3c-0.1,0-0.3,0-0.4,0
		s-0.2,0.1-0.3,0.1v4.3H185.8z"/>
	<path d="M191.8,228c0.3-0.1,0.6-0.1,1-0.2c0.4-0.1,0.8-0.1,1.3-0.1c0.4,0,0.8,0.1,1.1,0.2s0.5,0.3,0.7,0.5c0.2,0.2,0.3,0.5,0.4,0.8
		c0.1,0.3,0.1,0.7,0.1,1.1v3.2h-1.5v-3c0-0.5-0.1-0.9-0.2-1.1c-0.1-0.2-0.4-0.3-0.7-0.3c-0.1,0-0.2,0-0.3,0c-0.1,0-0.2,0-0.3,0v4.4
		h-1.5V228z"/>
	<path d="M202.6,233.3c-0.3,0.1-0.6,0.2-0.9,0.3s-0.5,0.1-0.7,0.1c-0.4,0-0.7-0.1-1-0.2c-0.3-0.1-0.5-0.3-0.6-0.5
		c-0.2-0.2-0.3-0.5-0.3-0.8s-0.1-0.7-0.1-1v-2.1h-1.6v-1.2h3v3.5c0,0.3,0.1,0.6,0.2,0.8c0.1,0.2,0.3,0.2,0.6,0.2
		c0.1,0,0.3,0,0.5-0.1c0.2,0,0.4-0.1,0.6-0.2L202.6,233.3z M200.4,226.2c0,0.3-0.1,0.5-0.3,0.7s-0.4,0.3-0.7,0.3
		c-0.3,0-0.5-0.1-0.7-0.3s-0.3-0.4-0.3-0.7c0-0.3,0.1-0.5,0.3-0.7s0.4-0.3,0.7-0.3c0.3,0,0.5,0.1,0.7,0.3S200.4,225.9,200.4,226.2z"
		/>
	<path d="M203.5,230.7c0-0.4,0.1-0.8,0.2-1.2c0.1-0.4,0.3-0.7,0.6-0.9c0.3-0.3,0.6-0.5,1-0.6c0.4-0.2,0.9-0.2,1.4-0.2
		c0.3,0,0.6,0,0.9,0.1s0.5,0.1,0.8,0.2l-0.3,1.2c-0.2-0.1-0.3-0.1-0.5-0.1c-0.2,0-0.4-0.1-0.8-0.1c-0.4,0-0.6,0-0.9,0.1
		s-0.4,0.2-0.6,0.3c-0.1,0.1-0.2,0.3-0.3,0.5s-0.1,0.4-0.1,0.7c0,0.5,0.1,0.9,0.4,1.2s0.8,0.4,1.5,0.4c0.2,0,0.5,0,0.7,0
		c0.3,0,0.5-0.1,0.7-0.2l0.2,1.2c-0.2,0.1-0.5,0.1-0.8,0.2s-0.6,0.1-1,0.1c-0.6,0-1.1-0.1-1.5-0.2c-0.4-0.2-0.8-0.4-1-0.6
		c-0.3-0.3-0.5-0.6-0.6-0.9C203.6,231.5,203.5,231.1,203.5,230.7z"/>
	<path d="M211.9,227.7c0.5,0,0.9,0.1,1.2,0.2s0.6,0.3,0.7,0.5c0.2,0.2,0.3,0.4,0.4,0.7c0.1,0.3,0.1,0.6,0.1,1v3.4
		c-0.2,0-0.5,0.1-1,0.2c-0.4,0.1-0.9,0.1-1.4,0.1c-0.4,0-0.7,0-1-0.1c-0.3-0.1-0.5-0.2-0.8-0.3c-0.2-0.1-0.4-0.3-0.5-0.6
		c-0.1-0.2-0.2-0.5-0.2-0.9c0-0.3,0.1-0.6,0.2-0.8c0.1-0.2,0.3-0.4,0.5-0.5c0.2-0.1,0.5-0.2,0.7-0.3c0.3-0.1,0.6-0.1,0.9-0.1
		c0.4,0,0.7,0,1,0.1v-0.2c0-0.3-0.1-0.5-0.3-0.7c-0.2-0.2-0.5-0.3-0.9-0.3c-0.3,0-0.5,0-0.8,0.1c-0.3,0-0.5,0.1-0.6,0.1l-0.2-1.2
		c0.2-0.1,0.4-0.1,0.8-0.2S211.5,227.7,211.9,227.7z M212,232.4c0.2,0,0.3,0,0.5,0c0.2,0,0.3,0,0.4,0v-1.3c-0.1,0-0.2,0-0.3,0
		c-0.1,0-0.3,0-0.4,0c-0.2,0-0.3,0-0.4,0c-0.1,0-0.3,0.1-0.4,0.1c-0.1,0-0.2,0.1-0.3,0.2c-0.1,0.1-0.1,0.2-0.1,0.3
		c0,0.3,0.1,0.4,0.3,0.5C211.5,232.4,211.7,232.4,212,232.4z"/>
	<path d="M220.6,233.3c0,0-0.1,0-0.2,0.1s-0.2,0.1-0.3,0.1c-0.1,0-0.3,0.1-0.5,0.1c-0.2,0-0.4,0-0.7,0c-0.7,0-1.2-0.2-1.5-0.6
		c-0.3-0.4-0.5-1-0.5-1.8v-4.8h-1.6v-1.2h3v6.1c0,0.4,0.1,0.6,0.2,0.8c0.2,0.1,0.3,0.2,0.6,0.2c0.3,0,0.5,0,0.7-0.1
		c0.2-0.1,0.3-0.1,0.4-0.2L220.6,233.3z"/>
</g>
<g class="st2">
	<path d="M184.2,247.7c-0.3,0.1-0.6,0.2-1,0.2c-0.4,0.1-0.8,0.1-1.2,0.1c-0.9,0-1.5-0.3-2-0.8c-0.5-0.5-0.7-1.2-0.7-2.1
		c0-0.9,0.2-1.6,0.6-2.2c0.4-0.5,0.9-0.8,1.7-0.8c0.2,0,0.4,0,0.6,0.1c0.2,0,0.4,0.1,0.5,0.2v-2.6l1.5-0.3V247.7z M180.8,245
		c0,0.5,0.1,0.9,0.3,1.2c0.2,0.3,0.5,0.5,0.9,0.5c0.1,0,0.2,0,0.3,0c0.1,0,0.2,0,0.3,0v-3.1c-0.1-0.1-0.2-0.1-0.4-0.2
		s-0.3-0.1-0.5-0.1c-0.4,0-0.6,0.1-0.8,0.4C180.9,244.1,180.8,244.5,180.8,245z"/>
	<path d="M185.4,245.1c0-0.5,0.1-0.9,0.2-1.3s0.4-0.7,0.6-0.9c0.2-0.3,0.5-0.4,0.9-0.6c0.3-0.1,0.6-0.2,1-0.2c0.8,0,1.5,0.2,1.9,0.7
		s0.6,1.2,0.6,2.2c0,0.1,0,0.2,0,0.3c0,0.1,0,0.2,0,0.3h-3.7c0,0.4,0.2,0.7,0.5,0.9c0.3,0.2,0.7,0.3,1.2,0.3c0.3,0,0.6,0,0.8-0.1
		c0.3-0.1,0.5-0.1,0.7-0.2l0.2,1.3c-0.3,0.1-0.5,0.2-0.8,0.2c-0.3,0.1-0.6,0.1-1,0.1c-0.5,0-0.9-0.1-1.3-0.2c-0.4-0.1-0.7-0.3-1-0.6
		c-0.3-0.2-0.5-0.5-0.6-0.9C185.4,246,185.4,245.6,185.4,245.1z M189.2,244.5c0-0.2,0-0.3-0.1-0.4s-0.1-0.3-0.2-0.4
		s-0.2-0.2-0.3-0.3c-0.1-0.1-0.3-0.1-0.5-0.1c-0.2,0-0.4,0-0.5,0.1c-0.1,0.1-0.3,0.2-0.3,0.3c-0.1,0.1-0.2,0.2-0.2,0.4
		c-0.1,0.1-0.1,0.3-0.1,0.4H189.2z"/>
	<path d="M193.7,246.8c0.4,0,0.6,0,0.8-0.1c0.2-0.1,0.3-0.2,0.3-0.3c0-0.1,0-0.2-0.1-0.3c-0.1-0.1-0.1-0.1-0.3-0.2
		c-0.1-0.1-0.2-0.1-0.4-0.2c-0.1,0-0.3-0.1-0.4-0.1c-0.2-0.1-0.4-0.1-0.7-0.2s-0.4-0.2-0.6-0.3s-0.3-0.3-0.5-0.5
		c-0.1-0.2-0.2-0.4-0.2-0.7c0-0.2,0-0.5,0.1-0.7s0.2-0.4,0.4-0.6c0.2-0.2,0.4-0.3,0.8-0.4c0.3-0.1,0.7-0.1,1.1-0.1
		c0.4,0,0.7,0,1,0.1c0.3,0.1,0.6,0.1,0.8,0.2l-0.2,1.2c-0.1,0-0.3-0.1-0.6-0.2c-0.3-0.1-0.6-0.1-1-0.1c-0.4,0-0.6,0-0.8,0.1
		s-0.2,0.2-0.2,0.3c0,0.1,0,0.2,0.1,0.2c0.1,0.1,0.1,0.1,0.2,0.2c0.1,0.1,0.2,0.1,0.3,0.2c0.1,0.1,0.3,0.1,0.4,0.2
		c0.2,0.1,0.4,0.2,0.7,0.2c0.2,0.1,0.4,0.2,0.6,0.3c0.2,0.1,0.3,0.3,0.5,0.5c0.1,0.2,0.2,0.5,0.2,0.8c0,0.2,0,0.5-0.1,0.7
		c-0.1,0.2-0.2,0.4-0.4,0.5c-0.2,0.2-0.5,0.3-0.8,0.4s-0.7,0.1-1.2,0.1c-0.5,0-0.9-0.1-1.2-0.2c-0.3-0.1-0.6-0.2-0.8-0.3l0.2-1.2
		c0.3,0.1,0.6,0.2,0.9,0.3C193.1,246.7,193.4,246.8,193.7,246.8z"/>
	<path d="M202.6,247.7c-0.3,0.1-0.6,0.2-0.9,0.3s-0.5,0.1-0.7,0.1c-0.4,0-0.7-0.1-1-0.2c-0.3-0.1-0.5-0.3-0.6-0.5
		c-0.2-0.2-0.3-0.5-0.3-0.8s-0.1-0.7-0.1-1v-2.1h-1.6v-1.2h3v3.5c0,0.3,0.1,0.6,0.2,0.8c0.1,0.2,0.3,0.2,0.6,0.2
		c0.1,0,0.3,0,0.5-0.1c0.2,0,0.4-0.1,0.6-0.2L202.6,247.7z M200.4,240.6c0,0.3-0.1,0.5-0.3,0.7s-0.4,0.3-0.7,0.3
		c-0.3,0-0.5-0.1-0.7-0.3s-0.3-0.4-0.3-0.7c0-0.3,0.1-0.5,0.3-0.7s0.4-0.3,0.7-0.3c0.3,0,0.5,0.1,0.7,0.3S200.4,240.3,200.4,240.6z"
		/>
	<path d="M208.3,247.2c0,0.9-0.2,1.6-0.7,2c-0.4,0.4-1.2,0.7-2.1,0.7c-0.4,0-0.7,0-1-0.1s-0.6-0.2-0.9-0.3l0.3-1.2
		c0.2,0.1,0.5,0.2,0.7,0.2c0.3,0.1,0.6,0.1,1,0.1c0.3,0,0.5,0,0.6-0.1c0.2-0.1,0.3-0.1,0.4-0.2c0.1-0.1,0.2-0.2,0.2-0.4
		c0-0.1,0.1-0.3,0.1-0.5v-0.2c-0.2,0.1-0.4,0.1-0.6,0.2c-0.2,0-0.4,0.1-0.6,0.1c-0.7,0-1.3-0.2-1.7-0.7c-0.4-0.5-0.6-1.1-0.6-1.9
		c0-0.9,0.3-1.6,0.8-2.1s1.2-0.7,2.1-0.7c0.6,0,1.3,0.1,2,0.3V247.2z M204.9,244.9c0,0.5,0.1,0.8,0.3,1.1c0.2,0.2,0.4,0.4,0.8,0.4
		c0.2,0,0.3,0,0.5-0.1c0.1,0,0.3-0.1,0.4-0.2v-2.7c-0.1,0-0.2,0-0.3,0c-0.1,0-0.2,0-0.3,0C205.3,243.3,204.9,243.9,204.9,244.9z"/>
	<path d="M209.8,242.4c0.3-0.1,0.6-0.1,1-0.2c0.4-0.1,0.8-0.1,1.3-0.1c0.4,0,0.8,0.1,1.1,0.2s0.5,0.3,0.7,0.5
		c0.2,0.2,0.3,0.5,0.4,0.8c0.1,0.3,0.1,0.7,0.1,1.1v3.2h-1.5v-3c0-0.5-0.1-0.9-0.2-1.1c-0.1-0.2-0.4-0.3-0.7-0.3c-0.1,0-0.2,0-0.3,0
		c-0.1,0-0.2,0-0.3,0v4.4h-1.5V242.4z"/>
</g>
<g>
	<g>
		<g>
			<path class="st10" d="M211.1,217.7c-0.1,0-0.2,0-0.4,0l-31.2-6.4c-1-0.2-1.6-1.2-1.4-2.1l8.4-41.2c0.2-0.8,0.9-1.5,1.8-1.5
				c0.1,0,0.2,0,0.4,0l31.1,6.4c0.5,0.1,0.9,0.4,1.2,0.8c0.3,0.4,0.4,0.9,0.3,1.4l-8.4,41.2C212.8,217.1,212,217.7,211.1,217.7z"/>
			<path d="M188.4,167.9C188.5,167.9,188.5,167.9,188.4,167.9l31.2,6.4c0.1,0,0.2,0.1,0.2,0.1c0,0.1,0.1,0.2,0,0.2l-8.4,41.2
				c0,0.2-0.2,0.3-0.3,0.3c0,0,0,0-0.1,0l-31.2-6.4c-0.2,0-0.3-0.2-0.2-0.4l8.4-41.2C188.2,168,188.3,167.9,188.4,167.9
				 M188.4,164.9c-1.5,0-2.9,1.1-3.2,2.6l-8.4,41.2c-0.4,1.8,0.8,3.5,2.6,3.9l31.2,6.4c0.2,0,0.4,0.1,0.7,0.1c1.5,0,2.9-1.1,3.2-2.6
				l8.4-41.2c0.4-1.8-0.8-3.5-2.6-3.9l-31.2-6.4C188.9,165,188.7,164.9,188.4,164.9L188.4,164.9z"/>
		</g>
		<g>
			<g>
				<path class="st10" d="M211.2,179.5c-0.1,0-0.3,0-0.4,0c-1-0.2-1.6-1.1-1.4-2c0.2-0.8,0.9-1.3,1.7-1.3c0.1,0,0.3,0,0.4,0
					c1,0.2,1.6,1.1,1.4,2C212.8,179,212.1,179.5,211.2,179.5z"/>
				<path d="M211.2,177.2L211.2,177.2c0.1,0,0.1,0,0.2,0c0.4,0.1,0.7,0.5,0.6,0.8c-0.1,0.3-0.4,0.5-0.7,0.5c-0.1,0-0.1,0-0.2,0
					c-0.3-0.1-0.4-0.2-0.5-0.3s-0.1-0.3-0.1-0.5C210.5,177.4,210.8,177.2,211.2,177.2 M211.2,175.2c-1.3,0-2.4,0.9-2.7,2.1
					c-0.3,1.4,0.7,2.9,2.2,3.2c0.2,0,0.4,0.1,0.6,0.1c1.3,0,2.4-0.9,2.7-2.1c0.3-1.4-0.7-2.9-2.2-3.2
					C211.5,175.2,211.3,175.2,211.2,175.2L211.2,175.2z"/>
			</g>
			<path class="st11" d="M205.6,184.4c0.6-2.8,2.9-4.6,5.2-4.1s3.7,3.1,3.1,5.9"/>
		</g>
		<line class="st0" x1="198.9" y1="188.5" x2="213.4" y2="191.5"/>
		<line class="st0" x1="197.6" y1="192.2" x2="212.2" y2="195.2"/>
		<line class="st0" x1="195.7" y1="199.3" x2="210.2" y2="202.2"/>
		<line class="st0" x1="195.7" y1="195.2" x2="210.2" y2="198.2"/>
		<line class="st0" x1="196.1" y1="203.1" x2="210.6" y2="206.1"/>
	</g>
	<g>
		<polygon class="st12" points="173,164.1 170.9,166.3 173,166.3 		"/>
		<path class="st10" d="M175.9,166.3c0,0.7-0.3,1.5-0.8,2s-1.2,0.8-2,0.8h-2.5v42.2h32v-47.6h-26.7V166.3z"/>
		<path class="st10" d="M205.3,211.5L205.3,211.5c0,0.2,0,0.3-0.1,0.5C205.3,211.9,205.3,211.7,205.3,211.5z"/>
		<path class="st10" d="M170.3,216c-2.4,0-4.4-2-4.4-4.4v-45.3l-0.1-0.7l0.1-0.1v-1.1h1l4.4-4.8V159h1.9h29.7c2.4,0,4.4,2,4.4,4.4
			v48.1c0,0.3,0,0.6-0.1,0.9c-0.1,0.3-0.1,0.6-0.3,0.8c-0.2,0.5-0.5,1-1,1.4c-0.2,0.2-0.4,0.4-0.7,0.5c-0.7,0.5-1.6,0.8-2.5,0.8
			h-32.4V216z M200.6,209.4v-43.8h-22.9v0.7c0,1.3-0.5,2.4-1.4,3.3c-0.9,0.9-2.1,1.4-3.3,1.4h-0.6v38.4H200.6z"/>
		<path d="M202.8,160.9H173l0,0c-0.2,0-0.3,0-0.5,0l-4.8,5.3v0.1l0,0v45.2c0,1.4,1.1,2.6,2.6,2.6h32.5c0.5,0,1-0.2,1.4-0.4
			c0.1-0.1,0.3-0.2,0.4-0.3c0.2-0.2,0.4-0.5,0.5-0.8c0.1-0.2,0.1-0.3,0.1-0.5s0.1-0.3,0.1-0.5v-48.1
			C205.3,162,204.2,160.9,202.8,160.9z M173,164.1v2.2h-2.2L173,164.1z M202.5,211.3h-32v-42.2h2.5c0.7,0,1.5-0.3,2-0.8
			s0.8-1.2,0.8-2v-2.6h26.7V211.3z"/>
	</g>
	<g>
		<g>
			<path d="M190.4,169v1.1h-6.2V169H190.4 M191.1,167h-7.7c-0.7,0-1.3,0.6-1.3,1.3v2.6c0,0.7,0.6,1.3,1.3,1.3h7.7
				c0.7,0,1.3-0.6,1.3-1.3v-2.6C192.4,167.6,191.8,167,191.1,167L191.1,167z"/>
		</g>
		<g>
			<path d="M180.1,177.6v1.1h-2.8v-1.1H180.1 M181.1,175.6h-4.7c-0.6,0-1,0.5-1,1v3c0,0.6,0.5,1,1,1h4.7c0.6,0,1-0.5,1-1v-3
				C182.1,176,181.7,175.6,181.1,175.6L181.1,175.6z"/>
		</g>
		<g>
			<path d="M180.1,186.1v1.1h-2.8v-1.1H180.1 M181.1,184.1h-4.7c-0.6,0-1,0.5-1,1v3c0,0.6,0.5,1,1,1h4.7c0.6,0,1-0.5,1-1v-3
				C182.1,184.6,181.7,184.1,181.1,184.1L181.1,184.1z"/>
		</g>
		<g>
			<path d="M178.4,194.6v2h-2.8v-2H178.4 M179.3,192.6h-4.6c-0.6,0-1.1,0.5-1.1,1.1v3.7c0,0.6,0.5,1.1,1.1,1.1h4.6
				c0.6,0,1.1-0.5,1.1-1.1v-3.7C180.4,193.1,179.9,192.6,179.3,192.6L179.3,192.6z"/>
		</g>
		<g>
			<path d="M187.8,194.6v2H185v-2H187.8 M188.7,192.6h-4.6c-0.6,0-1.1,0.5-1.1,1.1v3.7c0,0.6,0.5,1.1,1.1,1.1h4.6
				c0.6,0,1.1-0.5,1.1-1.1v-3.7C189.8,193.1,189.3,192.6,188.7,192.6L188.7,192.6z"/>
		</g>
		<g>
			<path d="M197.2,194.6v2h-2.8v-2H197.2 M198.1,192.6h-4.6c-0.6,0-1.1,0.5-1.1,1.1v3.7c0,0.6,0.5,1.1,1.1,1.1h4.6
				c0.6,0,1.1-0.5,1.1-1.1v-3.7C199.2,193.1,198.7,192.6,198.1,192.6L198.1,192.6z"/>
		</g>
		<g>
			<path d="M196.3,186.1v1.1H191v-1.1H196.3 M197.1,184.1h-6.9c-0.7,0-1.2,0.6-1.2,1.2v2.7c0,0.7,0.6,1.2,1.2,1.2h6.9
				c0.7,0,1.2-0.6,1.2-1.2v-2.7C198.3,184.6,197.8,184.1,197.1,184.1L197.1,184.1z"/>
		</g>
		<g>
			<path d="M196.3,177.6v1.1h-2.8v-1.1H196.3 M197.3,175.6h-4.7c-0.6,0-1,0.5-1,1v3c0,0.6,0.5,1,1,1h4.7c0.6,0,1-0.5,1-1v-3
				C198.3,176,197.9,175.6,197.3,175.6L197.3,175.6z"/>
		</g>
		<polyline class="st0" points="191.5,169.6 194.9,169.6 194.9,176.4 		"/>
		<polyline class="st0" points="183,169.6 178.7,169.6 178.7,176.4 		"/>
		<polyline class="st0" points="181.4,178.1 186.4,178.1 186.4,186.7 189,186.7 		"/>
		<line class="st0" x1="178.7" y1="180.7" x2="178.7" y2="184.9"/>
		<line class="st0" x1="186.4" y1="186.7" x2="186.4" y2="193.5"/>
		<line class="st0" x1="189.4" y1="195.6" x2="192.8" y2="195.6"/>
		<line class="st0" x1="183.4" y1="195.6" x2="180" y2="195.6"/>
		<g>
			<path d="M178.4,204.9v1.1h-2.8v-1.1H178.4 M179.4,202.9h-4.7c-0.6,0-1,0.5-1,1v3c0,0.6,0.5,1,1,1h4.7c0.6,0,1-0.5,1-1v-3
				C180.4,203.3,180,202.9,179.4,202.9L179.4,202.9z"/>
		</g>
		<line class="st9" x1="177" y1="197.7" x2="177" y2="203.7"/>
	</g>
</g>
<g>
	<g class="st2">
		<path d="M90.9,84.9c0,0.6-0.1,1.1-0.2,1.5c-0.1,0.4-0.3,0.7-0.6,1c-0.3,0.3-0.6,0.4-0.9,0.6c-0.4,0.1-0.7,0.2-1.2,0.2
			c-0.2,0-0.4,0-0.6,0S87,88,86.7,87.9v-6c0.3-0.1,0.5-0.1,0.8-0.1c0.2,0,0.5,0,0.7,0c0.4,0,0.8,0.1,1.1,0.2
			c0.3,0.1,0.6,0.3,0.9,0.6c0.2,0.3,0.4,0.6,0.5,1C90.9,83.9,90.9,84.3,90.9,84.9z M88,87c0,0,0.1,0,0.1,0s0.1,0,0.1,0
			c0.3,0,0.5-0.1,0.7-0.2c0.2-0.1,0.3-0.3,0.5-0.4s0.2-0.4,0.3-0.7c0.1-0.3,0.1-0.5,0.1-0.8c0-0.3,0-0.5-0.1-0.8s-0.1-0.5-0.2-0.7
			S89.2,83.1,89,83c-0.2-0.1-0.4-0.2-0.7-0.2c-0.1,0-0.1,0-0.2,0c-0.1,0-0.1,0-0.2,0V87z"/>
		<path d="M95.9,87.8c-0.3,0.1-0.5,0.2-0.7,0.2c-0.2,0-0.4,0.1-0.6,0.1c-0.3,0-0.6,0-0.8-0.1c-0.2-0.1-0.4-0.2-0.5-0.4
			c-0.1-0.2-0.2-0.4-0.3-0.6c-0.1-0.3-0.1-0.5-0.1-0.9v-1.7h-1.3v-1h2.5v2.9c0,0.3,0.1,0.5,0.2,0.6s0.3,0.2,0.5,0.2
			c0.1,0,0.3,0,0.4,0c0.2,0,0.3-0.1,0.5-0.2L95.9,87.8z M94,82c0,0.2-0.1,0.4-0.2,0.6c-0.2,0.1-0.3,0.2-0.5,0.2s-0.4-0.1-0.5-0.2
			c-0.1-0.1-0.2-0.3-0.2-0.6c0-0.2,0.1-0.4,0.2-0.6s0.3-0.2,0.5-0.2s0.4,0.1,0.5,0.2S94,81.7,94,82z"/>
		<path d="M98.5,87.1c0.3,0,0.5,0,0.7-0.1c0.2,0,0.2-0.1,0.2-0.3c0-0.1,0-0.2-0.1-0.2c0-0.1-0.1-0.1-0.2-0.2c-0.1,0-0.2-0.1-0.3-0.1
			c-0.1,0-0.2-0.1-0.4-0.1c-0.2-0.1-0.4-0.1-0.5-0.2c-0.2-0.1-0.4-0.2-0.5-0.3s-0.3-0.2-0.4-0.4c-0.1-0.2-0.1-0.4-0.1-0.6
			c0-0.2,0-0.4,0.1-0.6s0.2-0.3,0.4-0.5c0.2-0.1,0.4-0.2,0.6-0.3c0.3-0.1,0.6-0.1,0.9-0.1c0.3,0,0.6,0,0.9,0.1s0.5,0.1,0.7,0.2
			l-0.2,1c-0.1,0-0.3-0.1-0.5-0.2c-0.2-0.1-0.5-0.1-0.8-0.1c-0.3,0-0.5,0-0.6,0.1c-0.1,0.1-0.2,0.2-0.2,0.2c0,0.1,0,0.1,0.1,0.2
			c0,0.1,0.1,0.1,0.2,0.2c0.1,0,0.2,0.1,0.3,0.1c0.1,0,0.2,0.1,0.4,0.1c0.2,0.1,0.4,0.1,0.6,0.2s0.4,0.2,0.5,0.3
			c0.2,0.1,0.3,0.3,0.4,0.4s0.1,0.4,0.1,0.6c0,0.2,0,0.4-0.1,0.5c-0.1,0.2-0.2,0.3-0.4,0.5c-0.2,0.1-0.4,0.2-0.7,0.3s-0.6,0.1-1,0.1
			c-0.4,0-0.8,0-1-0.1c-0.3-0.1-0.5-0.2-0.7-0.3l0.2-1c0.2,0.1,0.5,0.2,0.7,0.3C97.9,87,98.2,87.1,98.5,87.1z"/>
		<path d="M101.6,85.7c0-0.3,0.1-0.7,0.2-1c0.1-0.3,0.3-0.6,0.5-0.8c0.2-0.2,0.5-0.4,0.8-0.5c0.3-0.1,0.7-0.2,1.2-0.2
			c0.3,0,0.5,0,0.8,0.1c0.2,0,0.5,0.1,0.7,0.2l-0.3,1c-0.1,0-0.3-0.1-0.4-0.1c-0.2,0-0.4-0.1-0.6-0.1c-0.3,0-0.5,0-0.7,0.1
			c-0.2,0.1-0.4,0.2-0.5,0.3c-0.1,0.1-0.2,0.3-0.3,0.4c-0.1,0.2-0.1,0.4-0.1,0.6c0,0.4,0.1,0.8,0.4,1c0.2,0.2,0.7,0.4,1.2,0.4
			c0.2,0,0.4,0,0.6,0c0.2,0,0.4-0.1,0.6-0.1l0.2,1c-0.2,0.1-0.4,0.1-0.6,0.2s-0.5,0.1-0.9,0.1c-0.5,0-0.9-0.1-1.2-0.2
			s-0.6-0.3-0.8-0.5c-0.2-0.2-0.4-0.5-0.5-0.8C101.7,86.3,101.6,86,101.6,85.7z"/>
		<path d="M110.6,87.8c-0.2,0.1-0.5,0.1-0.8,0.2c-0.3,0.1-0.7,0.1-1.1,0.1c-0.4,0-0.7-0.1-1-0.2s-0.4-0.3-0.6-0.5
			c-0.1-0.2-0.2-0.4-0.3-0.7s-0.1-0.6-0.1-0.9v-2.6h1.2v2.5c0,0.4,0.1,0.8,0.2,1c0.1,0.2,0.3,0.3,0.6,0.3c0.2,0,0.4,0,0.6,0v-3.7
			h1.2V87.8z"/>
		<path d="M113.5,87.1c0.3,0,0.5,0,0.7-0.1c0.2,0,0.2-0.1,0.2-0.3c0-0.1,0-0.2-0.1-0.2c0-0.1-0.1-0.1-0.2-0.2
			c-0.1,0-0.2-0.1-0.3-0.1c-0.1,0-0.2-0.1-0.4-0.1c-0.2-0.1-0.4-0.1-0.5-0.2c-0.2-0.1-0.4-0.2-0.5-0.3s-0.3-0.2-0.4-0.4
			c-0.1-0.2-0.1-0.4-0.1-0.6c0-0.2,0-0.4,0.1-0.6s0.2-0.3,0.4-0.5c0.2-0.1,0.4-0.2,0.6-0.3c0.3-0.1,0.6-0.1,0.9-0.1
			c0.3,0,0.6,0,0.9,0.1c0.3,0,0.5,0.1,0.7,0.2l-0.2,1c-0.1,0-0.3-0.1-0.5-0.2c-0.2-0.1-0.5-0.1-0.8-0.1c-0.3,0-0.5,0-0.6,0.1
			c-0.1,0.1-0.2,0.2-0.2,0.2c0,0.1,0,0.1,0.1,0.2c0,0.1,0.1,0.1,0.2,0.2c0.1,0,0.2,0.1,0.3,0.1c0.1,0,0.2,0.1,0.4,0.1
			c0.2,0.1,0.4,0.1,0.6,0.2s0.4,0.2,0.5,0.3c0.2,0.1,0.3,0.3,0.4,0.4c0.1,0.2,0.2,0.4,0.2,0.6c0,0.2,0,0.4-0.1,0.5
			c-0.1,0.2-0.2,0.3-0.4,0.5s-0.4,0.2-0.7,0.3s-0.6,0.1-1,0.1c-0.4,0-0.8,0-1-0.1c-0.3-0.1-0.5-0.2-0.7-0.3l0.2-1
			c0.2,0.1,0.5,0.2,0.7,0.3C112.9,87,113.2,87.1,113.5,87.1z"/>
		<path d="M118.5,87.1c0.3,0,0.5,0,0.7-0.1c0.2,0,0.2-0.1,0.2-0.3c0-0.1,0-0.2-0.1-0.2c0-0.1-0.1-0.1-0.2-0.2
			c-0.1,0-0.2-0.1-0.3-0.1c-0.1,0-0.2-0.1-0.4-0.1c-0.2-0.1-0.4-0.1-0.5-0.2c-0.2-0.1-0.4-0.2-0.5-0.3c-0.2-0.1-0.3-0.2-0.4-0.4
			c-0.1-0.2-0.2-0.4-0.2-0.6c0-0.2,0-0.4,0.1-0.6c0.1-0.2,0.2-0.3,0.4-0.5c0.2-0.1,0.4-0.2,0.6-0.3c0.3-0.1,0.6-0.1,0.9-0.1
			c0.3,0,0.6,0,0.9,0.1c0.3,0,0.5,0.1,0.7,0.2l-0.2,1c-0.1,0-0.3-0.1-0.5-0.2c-0.2-0.1-0.5-0.1-0.8-0.1c-0.3,0-0.5,0-0.6,0.1
			c-0.1,0.1-0.2,0.2-0.2,0.2c0,0.1,0,0.1,0.1,0.2c0,0.1,0.1,0.1,0.2,0.2c0.1,0,0.2,0.1,0.3,0.1c0.1,0,0.2,0.1,0.4,0.1
			c0.2,0.1,0.4,0.1,0.6,0.2s0.4,0.2,0.5,0.3c0.2,0.1,0.3,0.3,0.4,0.4c0.1,0.2,0.2,0.4,0.2,0.6c0,0.2,0,0.4-0.1,0.5
			c-0.1,0.2-0.2,0.3-0.4,0.5s-0.4,0.2-0.7,0.3s-0.6,0.1-1,0.1c-0.4,0-0.8,0-1-0.1c-0.3-0.1-0.5-0.2-0.7-0.3l0.2-1
			c0.2,0.1,0.5,0.2,0.7,0.3S118.2,87.1,118.5,87.1z"/>
		<path d="M125.9,87.8c-0.3,0.1-0.5,0.2-0.7,0.2c-0.2,0-0.4,0.1-0.6,0.1c-0.3,0-0.6,0-0.8-0.1c-0.2-0.1-0.4-0.2-0.5-0.4
			c-0.1-0.2-0.2-0.4-0.3-0.6c-0.1-0.3-0.1-0.5-0.1-0.9v-1.7h-1.3v-1h2.5v2.9c0,0.3,0.1,0.5,0.2,0.6s0.3,0.2,0.5,0.2
			c0.1,0,0.3,0,0.4,0c0.2,0,0.3-0.1,0.5-0.2L125.9,87.8z M124,82c0,0.2-0.1,0.4-0.2,0.6c-0.2,0.1-0.3,0.2-0.5,0.2
			c-0.2,0-0.4-0.1-0.5-0.2c-0.2-0.1-0.2-0.3-0.2-0.6c0-0.2,0.1-0.4,0.2-0.6c0.1-0.1,0.3-0.2,0.5-0.2c0.2,0,0.4,0.1,0.5,0.2
			C124,81.5,124,81.7,124,82z"/>
		<path d="M130.9,85.6c0,0.4-0.1,0.7-0.2,1c-0.1,0.3-0.3,0.6-0.5,0.8c-0.2,0.2-0.4,0.4-0.7,0.5s-0.6,0.2-0.9,0.2
			c-0.3,0-0.6-0.1-0.9-0.2c-0.3-0.1-0.5-0.3-0.7-0.5c-0.2-0.2-0.3-0.5-0.5-0.8c-0.1-0.3-0.2-0.6-0.2-1c0-0.4,0.1-0.7,0.2-1
			c0.1-0.3,0.3-0.6,0.5-0.8c0.2-0.2,0.4-0.4,0.7-0.5c0.3-0.1,0.6-0.2,0.9-0.2c0.3,0,0.6,0.1,0.9,0.2c0.3,0.1,0.5,0.3,0.7,0.5
			c0.2,0.2,0.3,0.5,0.5,0.8C130.9,84.9,130.9,85.3,130.9,85.6z M127.7,85.7c0,0.4,0.1,0.8,0.2,1c0.1,0.3,0.4,0.4,0.7,0.4
			c0.3,0,0.6-0.1,0.7-0.4c0.2-0.3,0.2-0.6,0.2-1s-0.1-0.8-0.2-1c-0.1-0.3-0.4-0.4-0.7-0.4c-0.3,0-0.6,0.1-0.7,0.4
			C127.8,84.9,127.7,85.2,127.7,85.7z"/>
		<path d="M131.8,83.5c0.2-0.1,0.5-0.1,0.8-0.2c0.3-0.1,0.7-0.1,1.1-0.1c0.4,0,0.7,0.1,0.9,0.2c0.2,0.1,0.4,0.3,0.6,0.4
			c0.1,0.2,0.2,0.4,0.3,0.7c0.1,0.3,0.1,0.6,0.1,0.9V88h-1.2v-2.5c0-0.4,0-0.8-0.2-1c-0.1-0.2-0.3-0.3-0.6-0.3c-0.1,0-0.2,0-0.3,0
			s-0.2,0-0.3,0V88h-1.2V83.5z"/>
	</g>
</g>
<g>
	
		<ellipse transform="matrix(0.9624 -0.2717 0.2717 0.9624 -81.1293 61.2181)" class="st5" cx="180.5" cy="323.6" rx="5.1" ry="5.1"/>
	<path class="st1" d="M190.2,306.7c-1.2-0.7-2.5-1.3-3.8-1.7l-4,5.5c-1.2-0.2-2.5-0.2-3.8,0l-4-5.5c-1.4,0.4-2.6,1-3.8,1.7l1.8,6.4
		c-1.2,0.9-2.2,2-3.1,3.3l-6.9-0.3c-0.5,1.2-0.9,2.4-1.1,3.7l6,2.5c-0.2,1.6,0,3.3,0.4,4.9c0.1,0.4,0.2,0.7,0.4,1.1l-4.5,5.1
		c0.6,1,1.2,1.9,1.9,2.8l5.7-3.1c1.8,1.7,4,2.9,6.4,3.4l1.2,6.5c1,0.1,2.1,0.1,3.2,0l1.2-6.5c0.3-0.1,0.6-0.1,0.8-0.2
		c2.2-0.6,4.1-1.8,5.6-3.2"/>
	<path class="st1" d="M188.5,313.1"/>
	<path class="st1" d="M193.7,322.2"/>
</g>
<path class="st10" d="M199.2,347.8c-8.2,0-12.4-9.4-13.9-13.5c-1.1-0.5-1.9-1.4-2.5-2.5c-0.5-0.9-1.8-3.7-0.4-6
	c0.2-0.4,0.5-0.7,0.8-0.9V319c0-0.5,0.1-1,0.4-1.4c0.5-0.9,5-9,11.6-11.4c1.9-0.7,3.4-1,4.8-1c1.5,0,2.7,0.4,3.6,1.3
	c0.4,0.4,0.7,0.8,1,1.3c4.4,1,7.8,4.4,9.4,7.1c2.3,3.8,2.1,8.9,1.9,10.7c0.1,0.1,0.2,0.2,0.2,0.3c1.4,2.3,0,5.1-0.4,6
	c-0.6,1.1-1.4,2-2.5,2.5c-1.5,4.1-5.7,13.5-13.9,13.5h-0.1V347.8z M190.2,330.3c0.1,0.2,0.2,0.5,0.3,0.7c0.8,3,4.1,10.7,8.6,10.7
	h0.3c4.6,0,7.8-7.8,8.6-10.7c0.1-0.3,0.2-0.5,0.3-0.7c-0.4-0.2-0.7-0.4-1-0.7c-0.6-0.6-0.9-1.3-0.9-2.2v-0.2v-3.5
	c-1.6-0.5-3.4-1.2-5-2.4c-3.1,1.7-6.9,2.6-9.5,3v3.1C192.1,328.8,191.4,329.9,190.2,330.3C190.3,330.3,190.2,330.3,190.2,330.3z
	 M199.2,311.1c-0.4,0.1-1,0.3-1.8,0.6c-3.2,1.2-6,4.9-7.4,7c2.9-0.4,7.8-1.5,10.2-3.5l0.2-0.2l0.1-0.1c0.1-0.1,0.2-0.1,0.3-0.2
	l0.3-0.1h0.2c0.1,0,0.3-0.1,0.4-0.1c0.2,0,0.3,0,0.5,0l0,0c0.2,0,0.5,0,0.6,0.1c0.2,0,0.3,0.1,0.5,0.2s0.3,0.2,0.5,0.3
	c0.1,0.1,0.2,0.1,0.3,0.2l0.1,0.1l0.2,0.2c0.1,0.1,0.2,0.2,0.2,0.3c0.1,0.1,0.1,0.2,0.2,0.3c0.3,0.7,2.4,1.7,4.5,2.2
	c-0.1-0.2-0.2-0.3-0.3-0.5c-1.4-2.3-4.2-4.5-6.9-4.5c-0.9,0-1.8-0.4-2.4-1.2C199.4,311.8,199.3,311.5,199.2,311.1z"/>
<path d="M214.5,326.8c-0.1-0.2-0.4-0.5-0.7-0.7c0.1-0.1,0.1-0.2,0.1-0.4c0-0.2,0.7-6.1-1.6-10c-1.8-3-5.3-6-9.3-6.4
	c-0.1-0.6-0.3-1.1-0.8-1.6c-1.2-1.1-3.2-1-6.4,0.2c-6,2.3-10.4,10.2-10.6,10.5c-0.1,0.1-0.1,0.3-0.1,0.5v7.1
	c-0.6,0.2-0.9,0.5-1.1,0.9c-0.6,0.9-0.4,2.2,0.5,4c0.6,1.1,1.5,1.7,2.3,1.9c0.9,2.7,4.7,13,12.3,13h0.3c7.6,0,11.4-10.4,12.3-13.1
	c0.8-0.2,1.7-0.7,2.3-1.9C214.9,329.1,215.1,327.8,214.5,326.8z M196.6,309.8c3.3-1.2,4.2-0.7,4.3-0.6c0.3,0.2,0.1,0.8,0.1,0.8
	c-0.1,0.3,0,0.6,0.2,0.9c0.2,0.2,0.5,0.4,0.8,0.4c3.6,0,7,2.9,8.6,5.5c1.9,3.2,1.3,8.7,1.3,8.7c0,0.1,0,0.2,0,0.3
	c-0.6,0-1,0.1-1.4,0.2v-4.6c0-0.5-0.3-0.9-0.8-1c-1.4-0.3-5.8-1.4-6.8-3.4c0,0,0-0.1-0.1-0.1c0,0,0-0.1-0.1-0.1c0,0,0,0-0.1-0.1
	c0,0-0.1-0.1-0.2-0.1c-0.1,0-0.1-0.1-0.2-0.1c-0.1,0-0.1,0-0.2-0.1c-0.1,0-0.1,0-0.2,0c-0.1,0-0.1,0-0.2,0c-0.1,0-0.1,0-0.2,0.1
	h-0.1c0,0-0.1,0-0.1,0.1c0,0-0.1,0-0.1,0.1c-4,3.3-12.3,4.1-12.4,4.1c-0.5,0-0.9,0.5-0.9,1v4.2c-0.3-0.1-0.5-0.1-0.9-0.1v-6.7
	C188,317.9,191.8,311.6,196.6,309.8z M212.2,330c-0.4,0.8-1.2,0.9-1.3,0.9c-0.4,0-0.8,0.3-1,0.7c0,0.1-3.5,12.2-10.5,12.2h-0.3
	c-7.1,0-10.5-12.1-10.5-12.2c-0.1-0.4-0.5-0.7-0.9-0.7c-0.1,0-0.9-0.1-1.3-0.9c-0.7-1.4-0.6-2-0.6-2.1c0,0,0.1-0.1,0.4-0.1
	c1.6,0,2.2,0.4,2.2,0.4l0,0c0.3,0.3,0.7,0.4,1.1,0.2c0.4-0.2,0.6-0.5,0.6-0.9v-4.9c2.2-0.3,7.9-1.2,11.7-3.8c1.7,2,5.1,3,6.7,3.4
	v5.1v0.1c0,0.3,0,0.6,0.3,0.9c0.4,0.4,1,0.4,1.4,0c0,0,0.6-0.5,2.2-0.5c0.3,0,0.4,0.1,0.4,0.1C212.9,328,212.9,328.6,212.2,330z"/>
<g class="st2">
	<path d="M171.8,361.4c0.2,0,0.5,0,0.6-0.1c0.2-0.1,0.3-0.1,0.4-0.2s0.2-0.2,0.2-0.3c0-0.1,0.1-0.2,0.1-0.4c0-0.2,0-0.3-0.1-0.4
		s-0.2-0.2-0.3-0.3c-0.1-0.1-0.3-0.2-0.5-0.3s-0.3-0.1-0.5-0.2c-0.2-0.1-0.5-0.2-0.7-0.3s-0.5-0.2-0.7-0.4c-0.2-0.2-0.4-0.4-0.5-0.6
		c-0.1-0.2-0.2-0.5-0.2-0.9c0-0.7,0.2-1.2,0.7-1.6c0.5-0.4,1.1-0.6,1.9-0.6c0.5,0,0.9,0.1,1.2,0.2c0.3,0.1,0.6,0.2,0.9,0.3l-0.4,1.1
		c-0.2-0.1-0.4-0.2-0.7-0.3s-0.5-0.1-0.8-0.1c-0.8,0-1.2,0.3-1.2,0.9c0,0.1,0,0.3,0.1,0.4c0.1,0.1,0.2,0.2,0.3,0.3
		c0.1,0.1,0.3,0.2,0.4,0.2c0.2,0.1,0.3,0.1,0.5,0.2c0.2,0.1,0.5,0.2,0.7,0.3c0.3,0.1,0.5,0.3,0.7,0.4s0.4,0.4,0.5,0.7
		c0.1,0.3,0.2,0.6,0.2,1c0,0.7-0.2,1.2-0.7,1.6c-0.5,0.4-1.1,0.6-2.1,0.6c-0.6,0-1.1-0.1-1.5-0.2c-0.4-0.1-0.6-0.3-0.8-0.4l0.4-1.2
		c0.2,0.1,0.5,0.2,0.8,0.4C171,361.4,171.4,361.4,171.8,361.4z"/>
	<path d="M180.3,362.3c-0.3,0.1-0.6,0.1-1,0.2c-0.4,0.1-0.8,0.1-1.3,0.1c-0.5,0-0.8-0.1-1.1-0.2c-0.3-0.1-0.5-0.3-0.7-0.5
		c-0.2-0.2-0.3-0.5-0.4-0.8c-0.1-0.3-0.1-0.7-0.1-1.1v-3.1h1.5v3c0,0.5,0.1,0.9,0.2,1.2s0.4,0.4,0.7,0.4c0.2,0,0.4,0,0.7-0.1v-4.4
		h1.5V362.3z"/>
	<path d="M186.6,359.7c0,0.4,0,0.8-0.1,1.2s-0.2,0.7-0.4,0.9c-0.2,0.3-0.4,0.5-0.7,0.6s-0.6,0.2-1,0.2c-0.4,0-0.8-0.1-1.2-0.3v2.1
		h-1.5V357c0.3-0.1,0.6-0.2,1-0.2s0.8-0.1,1.2-0.1c0.9,0,1.5,0.3,2,0.8C186.4,358.1,186.6,358.8,186.6,359.7z M185.1,359.7
		c0-0.5-0.1-0.9-0.3-1.2c-0.2-0.3-0.5-0.5-0.9-0.5c-0.1,0-0.2,0-0.4,0c-0.1,0-0.2,0-0.3,0v3.1c0.1,0.1,0.2,0.1,0.4,0.2
		c0.2,0,0.3,0.1,0.5,0.1c0.4,0,0.6-0.1,0.8-0.4C185,360.7,185.1,360.2,185.1,359.7z"/>
	<path d="M192.6,359.7c0,0.4,0,0.8-0.1,1.2s-0.2,0.7-0.4,0.9c-0.2,0.3-0.4,0.5-0.7,0.6s-0.6,0.2-1,0.2c-0.4,0-0.8-0.1-1.2-0.3v2.1
		h-1.5V357c0.3-0.1,0.6-0.2,1-0.2s0.8-0.1,1.2-0.1c0.9,0,1.5,0.3,2,0.8C192.4,358.1,192.6,358.8,192.6,359.7z M191.1,359.7
		c0-0.5-0.1-0.9-0.3-1.2c-0.2-0.3-0.5-0.5-0.9-0.5c-0.1,0-0.2,0-0.4,0c-0.1,0-0.2,0-0.3,0v3.1c0.1,0.1,0.2,0.1,0.4,0.2
		c0.2,0,0.3,0.1,0.5,0.1c0.4,0,0.6-0.1,0.8-0.4C191,360.7,191.1,360.2,191.1,359.7z"/>
	<path d="M198.7,359.7c0,0.4-0.1,0.9-0.2,1.2c-0.1,0.4-0.3,0.7-0.5,0.9s-0.5,0.5-0.8,0.6c-0.3,0.1-0.7,0.2-1.1,0.2s-0.8-0.1-1.1-0.2
		c-0.3-0.1-0.6-0.3-0.8-0.6s-0.4-0.6-0.5-0.9c-0.1-0.4-0.2-0.8-0.2-1.2c0-0.4,0.1-0.8,0.2-1.2s0.3-0.7,0.6-0.9s0.5-0.5,0.8-0.6
		c0.3-0.1,0.7-0.2,1.1-0.2c0.4,0,0.8,0.1,1.1,0.2c0.3,0.1,0.6,0.3,0.8,0.6s0.4,0.6,0.5,0.9C198.6,358.8,198.7,359.2,198.7,359.7z
		 M194.8,359.7c0,0.5,0.1,0.9,0.3,1.2c0.2,0.3,0.5,0.5,0.9,0.5c0.4,0,0.7-0.2,0.9-0.5c0.2-0.3,0.3-0.7,0.3-1.2s-0.1-0.9-0.3-1.2
		c-0.2-0.3-0.5-0.5-0.9-0.5c-0.4,0-0.7,0.2-0.9,0.5C194.9,358.8,194.8,359.2,194.8,359.7z"/>
	<path d="M204.2,358.4c-0.1,0-0.2,0-0.3-0.1c-0.1,0-0.3,0-0.4-0.1c-0.1,0-0.3,0-0.4,0c-0.1,0-0.2,0-0.3,0c-0.2,0-0.4,0-0.6,0
		c-0.2,0-0.4,0.1-0.6,0.1v4.2h-1.5v-5.3c0.4-0.1,0.8-0.3,1.2-0.3s0.9-0.1,1.4-0.1c0.1,0,0.2,0,0.3,0c0.1,0,0.3,0,0.5,0
		c0.2,0,0.3,0,0.5,0.1s0.3,0.1,0.5,0.1L204.2,358.4z"/>
	<path d="M206.7,358.1h-1.3v-1.2h1.3v-1.4l1.5-0.2v1.7h2.4v1.2h-2.4v2.3c0,0.2,0,0.4,0.1,0.5s0.1,0.2,0.2,0.3s0.2,0.1,0.3,0.1
		c0.1,0,0.2,0,0.3,0c0.1,0,0.3,0,0.4,0c0.1,0,0.2,0,0.3,0c0.1,0,0.2,0,0.3-0.1c0.1,0,0.2-0.1,0.4-0.2l0.2,1.3
		c-0.3,0.1-0.6,0.2-0.9,0.2c-0.3,0-0.6,0.1-0.9,0.1c-0.3,0-0.6,0-0.9-0.1c-0.3-0.1-0.5-0.2-0.7-0.3c-0.2-0.2-0.3-0.4-0.4-0.7
		c-0.1-0.3-0.1-0.7-0.1-1.1V358.1z"/>
</g>
<g>
	<g class="st2">
		<path d="M85,321.4v-1h1.4v-4.2H85v-1H89v1h-1.3v4.2H89v1H85z"/>
		<path d="M92.9,316.7c0.3,0,0.5,0,0.6,0.1s0.3,0.2,0.4,0.4c0.1,0.2,0.2,0.4,0.2,0.6c0,0.2,0,0.5,0,0.9v2.8h-1v-2.9
			c0-0.2,0-0.3,0-0.5s-0.1-0.2-0.1-0.3c0-0.1-0.1-0.1-0.1-0.1c-0.1,0-0.1,0-0.2,0c-0.1,0-0.1,0-0.2,0c-0.1,0-0.1,0-0.2,0.1
			c0,0.1,0,0.3,0,0.4s0,0.3,0,0.5v0.9h-1v-1.1c0-0.3,0-0.5-0.1-0.7c-0.1-0.1-0.2-0.2-0.3-0.2c0,0-0.1,0-0.1,0s-0.1,0-0.2,0v3.7h-1
			v-4.5c0.3-0.1,0.5-0.1,0.8-0.2s0.5-0.1,0.7-0.1c0.2,0,0.3,0,0.5,0.1c0.1,0,0.3,0.1,0.4,0.2c0.1-0.1,0.2-0.1,0.4-0.2
			C92.6,316.7,92.8,316.7,92.9,316.7z"/>
		<path d="M99.2,319.1c0,0.4,0,0.7-0.1,1c-0.1,0.3-0.2,0.6-0.3,0.8c-0.2,0.2-0.3,0.4-0.6,0.5c-0.2,0.1-0.5,0.2-0.8,0.2
			c-0.3,0-0.6-0.1-1-0.2v1.8h-1.2v-6.2c0.2-0.1,0.5-0.1,0.8-0.2c0.3,0,0.7-0.1,1-0.1c0.7,0,1.3,0.2,1.7,0.7
			C99,317.7,99.2,318.3,99.2,319.1z M97.9,319.1c0-0.4-0.1-0.8-0.3-1c-0.2-0.3-0.4-0.4-0.8-0.4c-0.1,0-0.2,0-0.3,0
			c-0.1,0-0.2,0-0.3,0v2.6c0.1,0.1,0.2,0.1,0.3,0.1c0.1,0,0.3,0,0.4,0c0.3,0,0.5-0.1,0.6-0.4C97.9,319.9,97.9,319.6,97.9,319.1z"/>
		<path d="M103.9,318c-0.1,0-0.2,0-0.3-0.1c-0.1,0-0.2,0-0.3-0.1c-0.1,0-0.2,0-0.3,0c-0.1,0-0.2,0-0.3,0c-0.2,0-0.3,0-0.5,0
			c-0.2,0-0.3,0-0.5,0.1v3.5h-1.2v-4.4c0.3-0.1,0.7-0.2,1-0.3s0.7-0.1,1.2-0.1c0.1,0,0.2,0,0.3,0c0.1,0,0.3,0,0.4,0
			c0.1,0,0.3,0,0.4,0.1c0.1,0,0.3,0.1,0.4,0.1L103.9,318z"/>
		<path d="M109.2,319.1c0,0.4-0.1,0.7-0.2,1c-0.1,0.3-0.3,0.6-0.5,0.8c-0.2,0.2-0.4,0.4-0.7,0.5s-0.6,0.2-0.9,0.2
			c-0.3,0-0.6-0.1-0.9-0.2s-0.5-0.3-0.7-0.5c-0.2-0.2-0.3-0.5-0.5-0.8c-0.1-0.3-0.2-0.6-0.2-1c0-0.4,0.1-0.7,0.2-1
			c0.1-0.3,0.3-0.6,0.5-0.8c0.2-0.2,0.4-0.4,0.7-0.5c0.3-0.1,0.6-0.2,0.9-0.2c0.3,0,0.6,0.1,0.9,0.2c0.3,0.1,0.5,0.3,0.7,0.5
			c0.2,0.2,0.3,0.5,0.5,0.8C109.2,318.4,109.2,318.7,109.2,319.1z M106,319.1c0,0.4,0.1,0.8,0.2,1s0.4,0.4,0.7,0.4
			c0.3,0,0.6-0.1,0.7-0.4c0.2-0.3,0.2-0.6,0.2-1s-0.1-0.8-0.2-1c-0.1-0.3-0.4-0.4-0.7-0.4c-0.3,0-0.6,0.1-0.7,0.4
			C106.1,318.3,106,318.7,106,319.1z"/>
		<path d="M111.4,321.4c-0.3-0.6-0.6-1.3-0.9-2.1s-0.6-1.7-0.9-2.6h1.3c0.1,0.3,0.1,0.5,0.2,0.8c0.1,0.3,0.2,0.6,0.3,0.9
			c0.1,0.3,0.2,0.6,0.3,0.8s0.2,0.5,0.3,0.8c0.1-0.2,0.2-0.5,0.3-0.8c0.1-0.3,0.2-0.6,0.3-0.8c0.1-0.3,0.2-0.6,0.3-0.9
			c0.1-0.3,0.2-0.6,0.2-0.8h1.2c-0.3,0.9-0.6,1.8-0.9,2.6c-0.3,0.8-0.7,1.5-1,2.1H111.4z"/>
		<path d="M114.8,319.1c0-0.4,0.1-0.8,0.2-1.1c0.1-0.3,0.3-0.6,0.5-0.8s0.4-0.4,0.7-0.5s0.5-0.2,0.8-0.2c0.7,0,1.2,0.2,1.6,0.6
			c0.4,0.4,0.5,1,0.5,1.8c0,0.1,0,0.2,0,0.3c0,0.1,0,0.2,0,0.2h-3c0,0.3,0.1,0.5,0.4,0.7s0.6,0.3,1,0.3c0.2,0,0.5,0,0.7-0.1
			c0.2-0.1,0.4-0.1,0.6-0.2l0.2,1c-0.2,0.1-0.4,0.1-0.7,0.2c-0.2,0-0.5,0.1-0.8,0.1c-0.4,0-0.8-0.1-1.1-0.2s-0.6-0.3-0.8-0.5
			s-0.4-0.5-0.5-0.8C114.9,319.9,114.8,319.5,114.8,319.1z M118,318.6c0-0.1,0-0.2,0-0.4c0-0.1-0.1-0.2-0.2-0.3
			c-0.1-0.1-0.2-0.2-0.3-0.2c-0.1-0.1-0.3-0.1-0.4-0.1c-0.2,0-0.3,0-0.4,0.1s-0.2,0.1-0.3,0.2c-0.1,0.1-0.1,0.2-0.2,0.3
			s-0.1,0.2-0.1,0.4H118z"/>
		<path d="M122.9,316.7c0.3,0,0.5,0,0.6,0.1c0.2,0.1,0.3,0.2,0.4,0.4c0.1,0.2,0.2,0.4,0.2,0.6s0,0.5,0,0.9v2.8h-1v-2.9
			c0-0.2,0-0.3,0-0.5s-0.1-0.2-0.1-0.3c0-0.1-0.1-0.1-0.1-0.1c-0.1,0-0.1,0-0.2,0c-0.1,0-0.1,0-0.2,0c-0.1,0-0.1,0-0.2,0.1
			c0,0.1,0,0.3,0.1,0.4c0,0.2,0,0.3,0,0.5v0.9h-1v-1.1c0-0.3,0-0.5-0.1-0.7c-0.1-0.1-0.2-0.2-0.3-0.2c0,0-0.1,0-0.1,0s-0.1,0-0.2,0
			v3.7h-1v-4.5c0.3-0.1,0.5-0.1,0.8-0.2c0.3,0,0.5-0.1,0.7-0.1c0.2,0,0.3,0,0.5,0.1c0.1,0,0.3,0.1,0.4,0.2c0.1-0.1,0.2-0.1,0.4-0.2
			S122.8,316.7,122.9,316.7z"/>
		<path d="M124.8,319.1c0-0.4,0.1-0.8,0.2-1.1c0.1-0.3,0.3-0.6,0.5-0.8s0.4-0.4,0.7-0.5s0.5-0.2,0.8-0.2c0.7,0,1.2,0.2,1.6,0.6
			c0.4,0.4,0.5,1,0.5,1.8c0,0.1,0,0.2,0,0.3c0,0.1,0,0.2,0,0.2h-3c0,0.3,0.1,0.5,0.4,0.7s0.6,0.3,1,0.3c0.2,0,0.5,0,0.7-0.1
			c0.2-0.1,0.4-0.1,0.6-0.2l0.2,1c-0.2,0.1-0.4,0.1-0.7,0.2c-0.2,0-0.5,0.1-0.8,0.1c-0.4,0-0.8-0.1-1.1-0.2s-0.6-0.3-0.8-0.5
			s-0.4-0.5-0.5-0.8C124.9,319.9,124.8,319.5,124.8,319.1z M128,318.6c0-0.1,0-0.2,0-0.4c0-0.1-0.1-0.2-0.2-0.3
			c-0.1-0.1-0.2-0.2-0.3-0.2c-0.1-0.1-0.3-0.1-0.4-0.1c-0.2,0-0.3,0-0.4,0.1s-0.2,0.1-0.3,0.2c-0.1,0.1-0.1,0.2-0.2,0.3
			s-0.1,0.2-0.1,0.4H128z"/>
		<path d="M130.1,316.9c0.2-0.1,0.5-0.1,0.8-0.2c0.3-0.1,0.7-0.1,1.1-0.1c0.4,0,0.7,0.1,0.9,0.2c0.2,0.1,0.4,0.3,0.6,0.4
			c0.1,0.2,0.2,0.4,0.3,0.7c0.1,0.3,0.1,0.6,0.1,0.9v2.7h-1.2V319c0-0.4,0-0.8-0.2-1c-0.1-0.2-0.3-0.3-0.6-0.3c-0.1,0-0.2,0-0.3,0
			s-0.2,0-0.3,0v3.7h-1.2V316.9z"/>
		<path d="M135.9,317.8h-1.1v-1h1.1v-1.2l1.2-0.2v1.4h2v1h-2v1.9c0,0.2,0,0.3,0,0.4c0,0.1,0.1,0.2,0.1,0.3c0.1,0.1,0.1,0.1,0.2,0.1
			c0.1,0,0.2,0,0.3,0c0.1,0,0.2,0,0.3,0s0.2,0,0.3,0s0.2,0,0.3-0.1c0.1,0,0.2-0.1,0.3-0.1l0.2,1.1c-0.2,0.1-0.5,0.2-0.7,0.2
			c-0.3,0-0.5,0.1-0.8,0.1c-0.3,0-0.5,0-0.8-0.1s-0.4-0.1-0.6-0.3c-0.2-0.1-0.3-0.3-0.4-0.6c-0.1-0.2-0.1-0.6-0.1-1V317.8z"/>
		<path d="M141.8,320.5c0.3,0,0.5,0,0.7-0.1c0.2,0,0.2-0.1,0.2-0.3c0-0.1,0-0.2-0.1-0.2c0-0.1-0.1-0.1-0.2-0.2
			c-0.1,0-0.2-0.1-0.3-0.1c-0.1,0-0.2-0.1-0.4-0.1c-0.2-0.1-0.4-0.1-0.5-0.2c-0.2-0.1-0.4-0.2-0.5-0.3c-0.2-0.1-0.3-0.2-0.4-0.4
			c-0.1-0.2-0.2-0.4-0.2-0.6c0-0.2,0-0.4,0.1-0.6c0.1-0.2,0.2-0.3,0.4-0.5c0.2-0.1,0.4-0.2,0.6-0.3c0.3-0.1,0.6-0.1,0.9-0.1
			c0.3,0,0.6,0,0.9,0.1c0.3,0,0.5,0.1,0.7,0.2l-0.2,1c-0.1,0-0.3-0.1-0.5-0.2c-0.2-0.1-0.5-0.1-0.8-0.1c-0.3,0-0.5,0-0.6,0.1
			c-0.1,0.1-0.2,0.2-0.2,0.2c0,0.1,0,0.1,0.1,0.2c0,0.1,0.1,0.1,0.2,0.2c0.1,0,0.2,0.1,0.3,0.1c0.1,0,0.2,0.1,0.4,0.1
			c0.2,0.1,0.4,0.1,0.6,0.2s0.4,0.2,0.5,0.3c0.2,0.1,0.3,0.3,0.4,0.4c0.1,0.2,0.2,0.4,0.2,0.6c0,0.2,0,0.4-0.1,0.5
			c-0.1,0.2-0.2,0.3-0.4,0.5s-0.4,0.2-0.7,0.3s-0.6,0.1-1,0.1c-0.4,0-0.8,0-1-0.1c-0.3-0.1-0.5-0.2-0.7-0.3l0.2-1
			c0.2,0.1,0.5,0.2,0.7,0.3S141.5,320.5,141.8,320.5z"/>
	</g>
</g>
</svg>
